<?xml version="1.0" encoding="utf-8"?>
<svg version="1.1" xmlns:xlink="http://www.w3.org/1999/xlink" width="90px" height="90px" xmlns="http://www.w3.org/2000/svg">
  <g transform="matrix(1 0 0 1 -60 -56 )">
    <path d="M 115.5 56.5  L 94.5 56.5  L 94.5 90.5  L 60.5 90.5  L 60.5 111.5  L 94.5 111.5  L 94.5 145.5  L 115.5 145.5  L 115.5 111.5  L 149.5 111.5  L 149.5 90.5  L 115.5 90.5  L 115.5 56.5  Z " fill-rule="nonzero" fill="#ffffff" stroke="none" />
    <path d="M 115.5 56.5  L 94.5 56.5  L 94.5 90.5  L 60.5 90.5  L 60.5 111.5  L 94.5 111.5  L 94.5 145.5  L 115.5 145.5  L 115.5 111.5  L 149.5 111.5  L 149.5 90.5  L 115.5 90.5  L 115.5 56.5  Z " stroke-width="1" stroke="#797979" fill="none" />
  </g>
</svg>