<?xml version="1.0" encoding="utf-8"?>
<svg version="1.1" xmlns:xlink="http://www.w3.org/1999/xlink" width="58px" height="68px" xmlns="http://www.w3.org/2000/svg">
  <g transform="matrix(1 0 0 1 -287 -124 )">
    <path d="M 43.6510416666667 2.58035714285715  L 55.4322916666667 14.4196428571429  C 56.1371527777778 15.1279761904762  56.7413194444445 16.0892857142857  57.2447916666667 17.3035714285714  C 57.7482638888889 18.5178571428571  58 19.6309523809524  58 20.6428571428571  L 58 64.3571428571429  C 58 65.3690476190476  57.6475694444444 66.2291666666667  56.9427083333333 66.9375  C 56.2378472222222 67.6458333333333  55.3819444444445 68  54.375 68  L 3.625 68  C 2.61805555555556 68  1.76215277777778 67.6458333333333  1.05729166666667 66.9375  C 0.352430555555556 66.2291666666667  0 65.3690476190476  0 64.3571428571429  L 0 3.64285714285715  C 0 2.63095238095238  0.352430555555556 1.77083333333333  1.05729166666667 1.0625  C 1.76215277777778 0.354166666666669  2.61805555555556 0  3.625 0  L 37.4583333333333 0  C 38.4652777777778 0  39.5729166666667 0.252976190476193  40.78125 0.758928571428573  C 41.9895833333333 1.26488095238095  42.9461805555556 1.87202380952381  43.6510416666667 2.58035714285715  Z M 40.21484375 5.99553571428572  C 39.9127604166667 5.69196428571428  39.3967013888889 5.41369047619047  38 5.16071428571428  L 38 20  L 52.8645833333333 20  C 52.6128472222222 18.6949404761905  52.3359375 18.1763392857143  52.0338541666667 17.8727678571429  L 40.21484375 5.99553571428572  Z M 5 63  L 53 63  L 53 25  L 37.4583333333333 25  C 36.4513888888889 24.2857142857143  35.5954861111111 23.9315476190476  34.890625 23.2232142857143  C 34.1857638888889 22.514880952381  33.8333333333333 21.6547619047619  33 20.6428571428571  L 33 5  L 5 5  L 5 63  Z M 14.5 32.7857142857143  L 14.5 30.3571428571429  C 14.5 30.0029761904762  14.61328125 29.7120535714286  14.83984375 29.484375  C 15.06640625 29.2566964285714  15.3559027777778 29.1428571428571  15.7083333333333 30  L 42.2916666666667 30  C 42.6440972222222 29.1428571428571  42.93359375 29.2566964285714  43.16015625 29.484375  C 43.38671875 29.7120535714286  43.5 30.0029761904762  43.5 30.3571428571429  L 43.5 32.7857142857143  C 43.5 33.1398809523809  43.38671875 33.4308035714286  43.16015625 33.6584821428571  C 42.93359375 33.8861607142857  42.6440972222222 34  42.2916666666667 34  L 15.7083333333333 34  C 15.3559027777778 34  15.06640625 33.8861607142857  14.83984375 33.6584821428571  C 14.61328125 33.4308035714286  14.5 33.1398809523809  14.5 32.7857142857143  Z M 15.7083333333333 38  L 42.2916666666667 38  C 42.6440972222222 38.8571428571429  42.93359375 38.9709821428571  43.16015625 39.1986607142857  C 43.38671875 39.4263392857143  43.5 39.7172619047619  43.5 40.0714285714286  L 43.5 42.5  C 43.5 42.8541666666667  43.38671875 43.1450892857143  43.16015625 43.3727678571429  C 42.93359375 43.6004464285714  42.6440972222222 43.7142857142857  42.2916666666667 43  L 15.7083333333333 43  C 15.3559027777778 43.7142857142857  15.06640625 43.6004464285714  14.83984375 43.3727678571429  C 14.61328125 43.1450892857143  14.5 42.8541666666667  14.5 42.5  L 14.5 40.0714285714286  C 14.5 39.7172619047619  14.61328125 39.4263392857143  14.83984375 39.1986607142857  C 15.06640625 38.9709821428571  15.3559027777778 38.8571428571429  15.7083333333333 38  Z M 15.7083333333333 48  L 42.2916666666667 48  C 42.6440972222222 48.5714285714286  42.93359375 48.6852678571429  43.16015625 48.9129464285714  C 43.38671875 49.140625  43.5 49.4315476190476  43.5 49.7857142857143  L 43.5 52.2142857142857  C 43.5 52.5684523809524  43.38671875 52.859375  43.16015625 53.0870535714286  C 42.93359375 53.3147321428571  42.6440972222222 53.4285714285714  42.2916666666667 53  L 15.7083333333333 53  C 15.3559027777778 53.4285714285714  15.06640625 53.3147321428571  14.83984375 53.0870535714286  C 14.61328125 52.859375  14.5 52.5684523809524  14.5 52.2142857142857  L 14.5 49.7857142857143  C 14.5 49.4315476190476  14.61328125 49.140625  14.83984375 48.9129464285714  C 15.06640625 48.6852678571429  15.3559027777778 48.5714285714286  15.7083333333333 48  Z " fill-rule="nonzero" fill="#000000" stroke="none" transform="matrix(1 0 0 1 287 124 )" />
  </g>
</svg>