<?xml version="1.0" encoding="utf-8"?>
<svg version="1.1" xmlns:xlink="http://www.w3.org/1999/xlink" width="38px" height="38px" xmlns="http://www.w3.org/2000/svg">
  <g transform="matrix(1 0 0 1 -1131 -6 )">
    <path d="M 11.6205357142857 1.50558035714286  C 13.9672619047619 0.501860119047619  16.4270833333333 0  19 0  C 21.5729166666667 0  24.0327380952381 0.501860119047619  26.3794642857143 1.50558035714286  C 28.7261904761905 2.50930059523809  30.7477678571429 3.859375  32.4441964285714 5.55580357142857  C 34.140625 7.25223214285714  35.4906994047619 9.27380952380952  36.4944196428571 11.6205357142857  C 37.4981398809524 13.9672619047619  38 16.4270833333333  38 19  C 38 21.5587797619048  37.5016741071429 24.0115327380952  36.5050223214286 26.3582589285714  C 35.5083705357143 28.7049851190476  34.1618303571429 30.7265625  32.4654017857143 32.4229910714286  C 30.7689732142857 34.1194196428571  28.7473958333333 35.4730282738095  26.4006696428571 36.4838169642857  C 24.053943452381 37.4946056547619  21.5870535714286 38  19 38  C 16.4129464285714 38  13.946056547619 37.4981398809524  11.5993303571429 36.4944196428571  C 9.25260416666667 35.4906994047619  7.23456101190476 34.1370907738095  5.54520089285714 32.43359375  C 3.85584077380952 30.7300967261905  2.5093005952381 28.7085193452381  1.50558035714286 26.3688616071429  C 0.501860119047619 24.0292038690476  0 21.5729166666667  0 19  C 0 16.4270833333333  0.501860119047619 13.9672619047619  1.50558035714286 11.6205357142857  C 2.5093005952381 9.27380952380952  3.859375 7.25223214285714  5.55580357142857 5.55580357142857  C 7.25223214285714 3.859375  9.27380952380953 2.50930059523809  11.6205357142857 1.50558035714286  Z M 25.6372767857143 21.7142857142857  C 29.0301339285714 21.7142857142857  31.1930803571429 24.0256696428571  32.1261160714286 28.6484375  C 34.2325148809524 25.7503720238095  35.2857142857143 22.5342261904762  35.2857142857143 19  C 35.2857142857143 16.7946428571429  34.8545386904762 14.688244047619  33.9921875 12.6808035714286  C 33.1298363095238 10.6733630952381  31.9706101190476 8.94159226190476  30.5145089285714 7.48549107142857  C 29.0584077380952 6.02938988095238  27.3266369047619 4.87016369047619  25.3191964285714 4.0078125  C 23.311755952381 3.14546130952381  21.2053571428571 2.71428571428571  19 2.71428571428571  C 16.7946428571429 2.71428571428571  14.688244047619 3.14546130952381  12.6808035714286 4.0078125  C 10.6733630952381 4.87016369047619  8.94159226190476 6.02938988095238  7.48549107142857 7.48549107142857  C 6.02938988095238 8.94159226190476  4.87016369047619 10.6733630952381  4.0078125 12.6808035714286  C 3.14546130952381 14.688244047619  2.71428571428571 16.7946428571429  2.71428571428571 19  C 2.71428571428571 22.5342261904762  3.76748511904762 25.7503720238095  5.87388392857143 28.6484375  C 6.80691964285714 24.0256696428571  8.96986607142857 21.7142857142857  12.3627232142857 21.7142857142857  C 14.2146577380952 23.5238095238095  16.4270833333333 24.4285714285714  19 24.4285714285714  C 21.5729166666667 24.4285714285714  23.7853422619048 23.5238095238095  25.6372767857143 21.7142857142857  Z M 24.7572544642857 20.6858258928571  C 26.34765625 19.0954241071429  27.1428571428571 17.1763392857143  27.1428571428571 14.9285714285714  C 27.1428571428571 12.6808035714286  26.34765625 10.76171875  24.7572544642857 9.17131696428571  C 23.1668526785714 7.58091517857143  21.2477678571429 6.78571428571429  19 6.78571428571429  C 16.7522321428571 6.78571428571429  14.8331473214286 7.58091517857143  13.2427455357143 9.17131696428571  C 11.65234375 10.76171875  10.8571428571429 12.6808035714286  10.8571428571429 14.9285714285714  C 10.8571428571429 17.1763392857143  11.65234375 19.0954241071429  13.2427455357143 20.6858258928571  C 14.8331473214286 22.2762276785714  16.7522321428571 23.0714285714286  19 23.0714285714286  C 21.2477678571429 23.0714285714286  23.1668526785714 22.2762276785714  24.7572544642857 20.6858258928571  Z " fill-rule="nonzero" fill="#020202" stroke="none" transform="matrix(1 0 0 1 1131 6 )" />
  </g>
</svg>