<?xml version="1.0" encoding="utf-8"?>
<svg version="1.1" xmlns:xlink="http://www.w3.org/1999/xlink" width="61px" height="61px" xmlns="http://www.w3.org/2000/svg">
  <g transform="matrix(1 0 0 1 -1810 -10 )">
    <path d="M 18.6540178571429 2.41685267857143  C 22.421130952381 0.805617559523809  26.3697916666667 0  30.5 0  C 34.6302083333333 0  38.5788690476191 0.805617559523809  42.3459821428571 2.41685267857143  C 46.1130952380952 4.02808779761905  49.3582589285714 6.1953125  52.0814732142857 8.91852678571428  C 54.8046875 11.6417410714286  56.971912202381 14.8869047619048  58.5831473214286 18.6540178571429  C 60.1943824404762 22.4211309523809  61 26.3697916666667  61 30.5  C 61 34.6075148809524  60.2000558035714 38.5448288690476  58.6001674107143 42.3119419642857  C 57.0002790178571 46.0790550595238  54.8387276785714 49.32421875  52.1155133928571 52.0474330357143  C 49.3922991071429 54.7706473214286  46.1471354166667 56.9435453869048  42.3800223214286 58.5661272321429  C 38.6129092261905 60.188709077381  34.6529017857143 61  30.5 61  C 26.3470982142857 61  22.3870907738095 60.1943824404762  18.6199776785714 58.5831473214286  C 14.8528645833333 56.971912202381  11.6133742559524 54.7990141369048  8.90150669642857 52.064453125  C 6.18963913690476 49.3298921130952  4.02808779761905 46.084728422619  2.41685267857143 42.3289620535714  C 0.805617559523809 38.5731956845238  0 34.6302083333333  0 30.5  C 0 26.3697916666667  0.805617559523809 22.4211309523809  2.41685267857143 18.6540178571429  C 4.02808779761905 14.8869047619048  6.1953125 11.6417410714286  8.91852678571429 8.91852678571428  C 11.6417410714286 6.1953125  14.8869047619048 4.02808779761905  18.6540178571429 2.41685267857143  Z M 41.1545758928571 34.8571428571429  C 46.6010044642857 34.8571428571429  50.0731026785714 38.5675223214286  51.5708705357143 45.98828125  C 54.9521949404762 41.3361235119048  56.6428571428571 36.1733630952381  56.6428571428571 30.5  C 56.6428571428571 26.9598214285714  55.9507068452381 23.5784970238095  54.56640625 20.3560267857143  C 53.1821056547619 17.133556547619  51.3212425595238 14.3536086309524  48.9838169642857 12.0161830357143  C 46.6463913690476 9.67875744047619  43.866443452381 7.81789434523809  40.6439732142857 6.43359375  C 37.4215029761905 5.0492931547619  34.0401785714286 4.35714285714286  30.5 4.35714285714286  C 26.9598214285714 4.35714285714286  23.5784970238095 5.0492931547619  20.3560267857143 6.43359375  C 17.1335565476191 7.81789434523809  14.3536086309524 9.67875744047619  12.0161830357143 12.0161830357143  C 9.67875744047619 14.3536086309524  7.8178943452381 17.133556547619  6.43359375 20.3560267857143  C 5.04929315476191 23.5784970238095  4.35714285714286 26.9598214285714  4.35714285714286 30.5  C 4.35714285714286 36.1733630952381  6.04780505952381 41.3361235119048  9.42912946428571 45.98828125  C 10.9268973214286 38.5675223214286  14.3989955357143 34.8571428571429  19.8454241071429 34.8571428571429  C 22.8182663690476 37.7619047619048  26.3697916666667 39.2142857142857  30.5 39.2142857142857  C 34.6302083333333 39.2142857142857  38.1817336309524 37.7619047619048  41.1545758928571 34.8571428571429  Z M 39.7419084821429 33.2061941964286  C 42.294921875 30.6531808035714  43.5714285714286 27.5725446428571  43.5714285714286 23.9642857142857  C 43.5714285714286 20.3560267857143  42.294921875 17.275390625  39.7419084821429 14.7223772321429  C 37.1888950892857 12.1693638392857  34.1082589285714 10.8928571428571  30.5 10.8928571428571  C 26.8917410714286 10.8928571428571  23.8111049107143 12.1693638392857  21.2580915178571 14.7223772321429  C 18.705078125 17.275390625  17.4285714285714 20.3560267857143  17.4285714285714 23.9642857142857  C 17.4285714285714 27.5725446428571  18.705078125 30.6531808035714  21.2580915178571 33.2061941964286  C 23.8111049107143 35.7592075892857  26.8917410714286 37.0357142857143  30.5 37.0357142857143  C 34.1082589285714 37.0357142857143  37.1888950892857 35.7592075892857  39.7419084821429 33.2061941964286  Z " fill-rule="nonzero" fill="#000000" stroke="none" fill-opacity="0.996078431372549" transform="matrix(1 0 0 1 1810 10 )" />
  </g>
</svg>