<?xml version="1.0" encoding="utf-8"?>
<svg version="1.1" xmlns:xlink="http://www.w3.org/1999/xlink" width="58px" height="50px" xmlns="http://www.w3.org/2000/svg">
  <g transform="matrix(1 0 0 1 -1767 -7 )">
    <path d="M 17.7366071428571 1.98102678571428  C 21.3184523809524 0.660342261904762  25.0729166666667 0  29 0  C 32.9270833333333 0  36.6815476190476 0.660342261904762  40.2633928571429 1.98102678571428  C 43.8452380952381 3.30171130952381  46.9308035714286 5.078125  49.5200892857143 7.31026785714286  C 52.109375 9.54241071428572  54.1700148809524 12.2023809523809  55.7020089285714 15.2901785714286  C 57.2340029761905 18.3779761904762  58 21.6145833333333  58 25  C 58 28.3668154761905  57.2393973214286 31.5941220238095  55.7181919642857 34.6819196428571  C 54.1969866071429 37.7697172619048  52.1417410714286 40.4296875  49.5524553571429 42.6618303571429  C 46.9631696428571 44.8939732142857  43.8776041666667 46.6750372023809  40.2957589285714 48.0050223214286  C 36.7139136904762 49.3350074404762  32.9486607142857 50  29 50  C 25.0513392857143 50  21.2860863095238 49.3396577380952  17.7042410714286 48.0189732142857  C 14.1223958333333 46.6982886904762  11.042224702381 44.9172247023809  8.46372767857143 42.67578125  C 5.8852306547619 40.434337797619  3.82998511904762 37.7743675595238  2.29799107142857 34.6958705357143  C 0.765997023809524 31.6173735119048  0 28.3854166666667  0 25  C 0 21.6145833333333  0.765997023809524 18.3779761904762  2.29799107142857 15.2901785714286  C 3.82998511904762 12.2023809523809  5.890625 9.54241071428572  8.47991071428572 7.31026785714286  C 11.0691964285714 5.078125  14.1547619047619 3.30171130952381  17.7366071428571 1.98102678571428  Z M 39.1305803571429 28.5714285714286  C 44.3091517857143 28.5714285714286  47.6104910714286 31.6127232142857  49.0345982142857 37.6953125  C 52.2496279761905 33.882068452381  53.8571428571429 29.6502976190476  53.8571428571429 25  C 53.8571428571429 22.0982142857143  53.1990327380952 19.3266369047619  51.8828125 16.6852678571429  C 50.5665922619048 14.0438988095238  48.7972470238095 11.7652529761905  46.5747767857143 9.84933035714285  C 44.3523065476191 7.93340773809524  41.7090773809524 6.40811011904762  38.6450892857143 5.2734375  C 35.5811011904762 4.13876488095238  32.3660714285714 3.57142857142857  29 3.57142857142857  C 25.6339285714286 3.57142857142857  22.4188988095238 4.13876488095238  19.3549107142857 5.2734375  C 16.2909226190476 6.40811011904762  13.647693452381 7.93340773809524  11.4252232142857 9.84933035714285  C 9.20275297619048 11.7652529761905  7.43340773809524 14.0438988095238  6.1171875 16.6852678571429  C 4.80096726190476 19.3266369047619  4.14285714285714 22.0982142857143  4.14285714285714 25  C 4.14285714285714 29.6502976190476  5.75037202380952 33.882068452381  8.96540178571428 37.6953125  C 10.3895089285714 31.6127232142857  13.6908482142857 28.5714285714286  18.8694196428571 28.5714285714286  C 21.6960565476191 30.952380952381  25.0729166666667 32.1428571428571  29 32.1428571428571  C 32.9270833333333 32.1428571428571  36.303943452381 30.952380952381  39.1305803571429 28.5714285714286  Z M 37.7873883928571 27.2181919642857  C 40.21484375 25.1255580357143  41.4285714285714 22.6004464285714  41.4285714285714 19.6428571428571  C 41.4285714285714 16.6852678571429  40.21484375 14.16015625  37.7873883928571 12.0675223214286  C 35.3599330357143 9.97488839285715  32.4308035714286 8.92857142857143  29 8.92857142857143  C 25.5691964285714 8.92857142857143  22.6400669642857 9.97488839285715  20.2126116071429 12.0675223214286  C 17.78515625 14.16015625  16.5714285714286 16.6852678571429  16.5714285714286 19.6428571428571  C 16.5714285714286 22.6004464285714  17.78515625 25.1255580357143  20.2126116071429 27.2181919642857  C 22.6400669642857 29.3108258928571  25.5691964285714 30.3571428571429  29 30.3571428571429  C 32.4308035714286 30.3571428571429  35.3599330357143 29.3108258928571  37.7873883928571 27.2181919642857  Z " fill-rule="nonzero" fill="#000000" stroke="none" transform="matrix(1 0 0 1 1767 7 )" />
  </g>
</svg>