<?xml version="1.0" encoding="utf-8"?>
<svg version="1.1" xmlns:xlink="http://www.w3.org/1999/xlink" width="44px" height="50px" xmlns="http://www.w3.org/2000/svg">
  <g transform="matrix(1 0 0 1 -270 -4 )">
    <path d="M 13.4553571428571 1.98102678571428  C 16.172619047619 0.660342261904762  19.0208333333333 0  22 0  C 24.9791666666667 0  27.827380952381 0.660342261904762  30.5446428571429 1.98102678571428  C 33.2619047619048 3.30171130952381  35.6026785714286 5.078125  37.5669642857143 7.31026785714286  C 39.53125 9.54241071428572  41.0944940476191 12.2023809523809  42.2566964285714 15.2901785714286  C 43.4188988095238 18.3779761904762  44 21.6145833333333  44 25  C 44 28.3668154761905  43.4229910714286 31.5941220238095  42.2689732142857 34.6819196428571  C 41.1149553571429 37.7697172619048  39.5558035714286 40.4296875  37.5915178571429 42.6618303571429  C 35.6272321428571 44.8939732142857  33.2864583333333 46.6750372023809  30.5691964285714 48.0050223214286  C 27.8519345238095 49.3350074404762  24.9955357142857 50  22 50  C 19.0044642857143 50  16.1480654761905 49.3396577380952  13.4308035714286 48.0189732142857  C 10.7135416666667 46.6982886904762  8.37686011904762 44.9172247023809  6.42075892857143 42.67578125  C 4.46465773809524 40.434337797619  2.90550595238095 37.7743675595238  1.74330357142857 34.6958705357143  C 0.58110119047619 31.6173735119048  0 28.3854166666667  0 25  C 0 21.6145833333333  0.58110119047619 18.3779761904762  1.74330357142857 15.2901785714286  C 2.90550595238095 12.2023809523809  4.46875 9.54241071428572  6.43303571428571 7.31026785714286  C 8.39732142857143 5.078125  10.7380952380952 3.30171130952381  13.4553571428571 1.98102678571428  Z M 29.6852678571429 28.5714285714286  C 33.6138392857143 28.5714285714286  36.1183035714286 31.6127232142857  37.1986607142857 37.6953125  C 39.6376488095238 33.882068452381  40.8571428571429 29.6502976190476  40.8571428571429 25  C 40.8571428571429 22.0982142857143  40.3578869047619 19.3266369047619  39.359375 16.6852678571429  C 38.3608630952381 14.0438988095238  37.0186011904762 11.7652529761905  35.3325892857143 9.84933035714285  C 33.6465773809524 7.93340773809524  31.641369047619 6.40811011904762  29.3169642857143 5.2734375  C 26.9925595238095 4.13876488095238  24.5535714285714 3.57142857142857  22 3.57142857142857  C 19.4464285714286 3.57142857142857  17.0074404761905 4.13876488095238  14.6830357142857 5.2734375  C 12.358630952381 6.40811011904762  10.3534226190476 7.93340773809524  8.66741071428572 9.84933035714285  C 6.98139880952381 11.7652529761905  5.63913690476191 14.0438988095238  4.640625 16.6852678571429  C 3.6421130952381 19.3266369047619  3.14285714285714 22.0982142857143  3.14285714285714 25  C 3.14285714285714 29.6502976190476  4.36235119047619 33.882068452381  6.80133928571429 37.6953125  C 7.88169642857143 31.6127232142857  10.3861607142857 28.5714285714286  14.3147321428571 28.5714285714286  C 16.4590773809524 30.952380952381  19.0208333333333 32.1428571428571  22 32.1428571428571  C 24.9791666666667 32.1428571428571  27.5409226190476 30.952380952381  29.6852678571429 28.5714285714286  Z M 28.6662946428571 27.2181919642857  C 30.5078125 25.1255580357143  31.4285714285714 22.6004464285714  31.4285714285714 19.6428571428571  C 31.4285714285714 16.6852678571429  30.5078125 14.16015625  28.6662946428571 12.0675223214286  C 26.8247767857143 9.97488839285715  24.6026785714286 8.92857142857143  22 8.92857142857143  C 19.3973214285714 8.92857142857143  17.1752232142857 9.97488839285715  15.3337053571429 12.0675223214286  C 13.4921875 14.16015625  12.5714285714286 16.6852678571429  12.5714285714286 19.6428571428571  C 12.5714285714286 22.6004464285714  13.4921875 25.1255580357143  15.3337053571429 27.2181919642857  C 17.1752232142857 29.3108258928571  19.3973214285714 30.3571428571429  22 30.3571428571429  C 24.6026785714286 30.3571428571429  26.8247767857143 29.3108258928571  28.6662946428571 27.2181919642857  Z " fill-rule="nonzero" fill="#000000" stroke="none" transform="matrix(1 0 0 1 270 4 )" />
  </g>
</svg>