<?xml version="1.0" encoding="utf-8"?>
<svg version="1.1" xmlns:xlink="http://www.w3.org/1999/xlink" width="60px" height="60px" xmlns="http://www.w3.org/2000/svg">
  <g transform="matrix(1 0 0 1 -566 -162 )">
    <path d="M 55.3962053571429 55.3962053571429  C 55.6082589285714 55.1841517857143  55.7142857142857 54.9330357142857  55 54.6428571428571  L 55 18.2142857142857  C 55.7142857142857 17.9241071428571  55.6082589285714 17.6729910714286  55.3962053571429 17.4609375  C 55.1841517857143 17.2488839285714  54.9330357142857 17.1428571428571  54.6428571428571 18  L 18.2142857142857 18  C 17.9241071428571 17.1428571428571  17.6729910714286 17.2488839285714  17.4609375 17.4609375  C 17.2488839285714 17.6729910714286  17.1428571428571 17.9241071428571  18 18.2142857142857  L 18 54.6428571428571  C 17.1428571428571 54.9330357142857  17.2488839285714 55.1841517857143  17.4609375 55.3962053571429  C 17.6729910714286 55.6082589285714  17.9241071428571 55.7142857142857  18.2142857142857 55  L 54.6428571428571 55  C 54.9330357142857 55.7142857142857  55.1841517857143 55.6082589285714  55.3962053571429 55.3962053571429  Z M 58.4263392857143 14.4308035714286  C 59.4754464285714 15.4799107142857  60 16.7410714285714  60 18.2142857142857  L 60 54.6428571428571  C 60 56.1160714285714  59.4754464285714 57.3772321428571  58.4263392857143 58.4263392857143  C 57.3772321428572 59.4754464285714  56.1160714285714 60  54.6428571428571 60  L 18.2142857142857 60  C 16.7410714285714 60  15.4799107142857 59.4754464285714  14.4308035714286 58.4263392857143  C 13.3816964285714 57.3772321428571  12.8571428571429 56.1160714285714  13 54.6428571428571  L 13 18.2142857142857  C 12.8571428571429 16.7410714285714  13.3816964285714 15.4799107142857  14.4308035714286 14.4308035714286  C 15.4799107142857 13.3816964285714  16.7410714285714 12.8571428571429  18.2142857142857 13  L 54.6428571428571 13  C 56.1160714285714 12.8571428571429  57.3772321428572 13.3816964285714  58.4263392857143 14.4308035714286  Z M 45.5691964285714 1.57366071428572  C 46.6183035714286 2.62276785714285  47.1428571428571 3.88392857142857  47.1428571428571 5.35714285714286  L 47.1428571428571 10.7142857142857  L 42.8571428571429 10.7142857142857  L 42.8571428571429 5.35714285714286  C 42.8571428571429 5.06696428571429  42.7511160714286 4.81584821428571  42.5390625 4.60379464285714  C 42.3270089285714 4.39174107142857  42.0758928571429 4.28571428571428  41.7857142857143 5  L 5.35714285714286 5  C 5.06696428571429 4.28571428571428  4.81584821428571 4.39174107142857  4.60379464285714 4.60379464285714  C 4.39174107142857 4.81584821428571  4.28571428571429 5.06696428571429  5 5.35714285714286  L 5 41.7857142857143  C 4.28571428571429 42.0758928571429  4.39174107142857 42.3270089285714  4.60379464285714 42.5390625  C 4.81584821428571 42.7511160714286  5.06696428571429 42.8571428571429  5.35714285714286 42.8571428571429  L 10.7142857142857 42.8571428571429  L 10.7142857142857 47.1428571428571  L 5.35714285714286 47.1428571428571  C 3.88392857142857 47.1428571428571  2.62276785714286 46.6183035714286  1.57366071428571 45.5691964285714  C 0.524553571428571 44.5200892857143  0 43.2589285714286  0 41.7857142857143  L 0 5.35714285714286  C 0 3.88392857142857  0.524553571428571 2.62276785714285  1.57366071428571 1.57366071428572  C 2.62276785714286 0.524553571428572  3.88392857142857 0  5.35714285714286 0  L 41.7857142857143 0  C 43.2589285714286 0  44.5200892857143 0.524553571428572  45.5691964285714 1.57366071428572  Z " fill-rule="nonzero" fill="#000000" stroke="none" transform="matrix(1 0 0 1 566 162 )" />
  </g>
</svg>