<?xml version="1.0" encoding="utf-8"?>
<svg version="1.1" xmlns:xlink="http://www.w3.org/1999/xlink" width="65px" height="60px" xmlns="http://www.w3.org/2000/svg">
  <g transform="matrix(1 0 0 1 -1315 -162 )">
    <path d="M 60.0125558035714 55.3962053571429  C 60.2422805059524 55.1841517857143  60.3571428571429 54.9330357142857  60 54.6428571428571  L 60 18.2142857142857  C 60.3571428571429 17.9241071428571  60.2422805059524 17.6729910714286  60.0125558035714 17.4609375  C 59.7828311011905 17.2488839285714  59.5107886904762 17.1428571428571  59.1964285714286 18  L 19.7321428571429 18  C 19.4177827380952 17.1428571428571  19.145740327381 17.2488839285714  18.916015625 17.4609375  C 18.6862909226191 17.6729910714286  18.5714285714286 17.9241071428571  19 18.2142857142857  L 19 54.6428571428571  C 18.5714285714286 54.9330357142857  18.6862909226191 55.1841517857143  18.916015625 55.3962053571429  C 19.145740327381 55.6082589285714  19.4177827380952 55.7142857142857  19.7321428571429 55  L 59.1964285714286 55  C 59.5107886904762 55.7142857142857  59.7828311011905 55.6082589285714  60.0125558035714 55.3962053571429  Z M 63.2952008928571 14.4308035714286  C 64.4317336309524 15.4799107142857  65 16.7410714285714  65 18.2142857142857  L 65 54.6428571428571  C 65 56.1160714285714  64.4317336309524 57.3772321428571  63.2952008928571 58.4263392857143  C 62.1586681547619 59.4754464285714  60.7924107142857 60  59.1964285714286 60  L 19.7321428571429 60  C 18.1361607142857 60  16.7699032738095 59.4754464285714  15.6333705357143 58.4263392857143  C 14.496837797619 57.3772321428571  13.9285714285714 56.1160714285714  14 54.6428571428571  L 14 18.2142857142857  C 13.9285714285714 16.7410714285714  14.496837797619 15.4799107142857  15.6333705357143 14.4308035714286  C 16.7699032738095 13.3816964285714  18.1361607142857 12.8571428571429  19.7321428571429 13  L 59.1964285714286 13  C 60.7924107142857 12.8571428571429  62.1586681547619 13.3816964285714  63.2952008928571 14.4308035714286  Z M 49.3666294642857 1.57366071428572  C 50.503162202381 2.62276785714285  51.0714285714286 3.88392857142857  51.0714285714286 5.35714285714286  L 51.0714285714286 10.7142857142857  L 46.4285714285714 10.7142857142857  L 46.4285714285714 5.35714285714286  C 46.4285714285714 5.06696428571429  46.313709077381 4.81584821428571  46.083984375 4.60379464285714  C 45.8542596726191 4.39174107142857  45.5822172619048 4.28571428571428  45.2678571428571 5  L 5.80357142857143 5  C 5.48921130952381 4.28571428571428  5.21716889880952 4.39174107142857  4.98744419642857 4.60379464285714  C 4.75771949404762 4.81584821428571  4.64285714285714 5.06696428571429  5 5.35714285714286  L 5 41.7857142857143  C 4.64285714285714 42.0758928571429  4.75771949404762 42.3270089285714  4.98744419642857 42.5390625  C 5.21716889880952 42.7511160714286  5.48921130952381 42.8571428571429  5.80357142857143 42.8571428571429  L 11.6071428571429 42.8571428571429  L 11.6071428571429 47.1428571428571  L 5.80357142857143 47.1428571428571  C 4.20758928571429 47.1428571428571  2.8413318452381 46.6183035714286  1.70479910714286 45.5691964285714  C 0.568266369047619 44.5200892857143  0 43.2589285714286  0 41.7857142857143  L 0 5.35714285714286  C 0 3.88392857142857  0.568266369047619 2.62276785714285  1.70479910714286 1.57366071428572  C 2.8413318452381 0.524553571428572  4.20758928571429 0  5.80357142857143 0  L 45.2678571428571 0  C 46.8638392857143 0  48.2300967261905 0.524553571428572  49.3666294642857 1.57366071428572  Z " fill-rule="nonzero" fill="#ffffff" stroke="none" fill-opacity="0.996078431372549" transform="matrix(1 0 0 1 1315 162 )" />
  </g>
</svg>