<?xml version="1.0" encoding="utf-8"?>
<svg version="1.1" xmlns:xlink="http://www.w3.org/1999/xlink" width="40px" height="40px" xmlns="http://www.w3.org/2000/svg">
  <g transform="matrix(1 0 0 1 -757 -101 )">
    <path d="M 36.9308035714286 36.9308035714286  C 37.0721726190476 36.7894345238095  37.1428571428571 36.6220238095238  37 36.4285714285714  L 37 12.1428571428571  C 37.1428571428571 11.9494047619048  37.0721726190476 11.781994047619  36.9308035714286 11.640625  C 36.7894345238095 11.4992559523809  36.6220238095238 11.4285714285714  36.4285714285714 12  L 12.1428571428571 12  C 11.9494047619048 11.4285714285714  11.781994047619 11.4992559523809  11.640625 11.640625  C 11.499255952381 11.781994047619  11.4285714285714 11.9494047619048  12 12.1428571428571  L 12 36.4285714285714  C 11.4285714285714 36.6220238095238  11.499255952381 36.7894345238095  11.640625 36.9308035714286  C 11.781994047619 37.0721726190476  11.9494047619048 37.1428571428571  12.1428571428571 37  L 36.4285714285714 37  C 36.6220238095238 37.1428571428571  36.7894345238095 37.0721726190476  36.9308035714286 36.9308035714286  Z M 38.9508928571429 9.62053571428572  C 39.6502976190476 10.3199404761905  40 11.1607142857143  40 12.1428571428571  L 40 36.4285714285714  C 40 37.4107142857143  39.6502976190476 38.2514880952381  38.9508928571429 38.9508928571429  C 38.2514880952381 39.6502976190476  37.4107142857143 40  36.4285714285714 40  L 12.1428571428571 40  C 11.1607142857143 40  10.3199404761905 39.6502976190476  9.62053571428571 38.9508928571429  C 8.92113095238095 38.2514880952381  8.57142857142857 37.4107142857143  9 36.4285714285714  L 9 12.1428571428571  C 8.57142857142857 11.1607142857143  8.92113095238095 10.3199404761905  9.62053571428571 9.62053571428572  C 10.3199404761905 8.92113095238095  11.1607142857143 8.57142857142857  12.1428571428571 9  L 36.4285714285714 9  C 37.4107142857143 8.57142857142857  38.2514880952381 8.92113095238095  38.9508928571429 9.62053571428572  Z M 30.3794642857143 1.04910714285714  C 31.0788690476191 1.7485119047619  31.4285714285714 2.58928571428572  31.4285714285714 3.57142857142857  L 31.4285714285714 7.14285714285714  L 28.5714285714286 7.14285714285714  L 28.5714285714286 3.57142857142857  C 28.5714285714286 3.37797619047619  28.5007440476191 3.21056547619047  28.359375 3.06919642857143  C 28.218005952381 2.92782738095238  28.0505952380952 2.85714285714286  27.8571428571429 3  L 3.57142857142857 3  C 3.37797619047619 2.85714285714286  3.21056547619048 2.92782738095238  3.06919642857143 3.06919642857143  C 2.92782738095238 3.21056547619047  2.85714285714286 3.37797619047619  3 3.57142857142857  L 3 27.8571428571429  C 2.85714285714286 28.0505952380952  2.92782738095238 28.2180059523809  3.06919642857143 28.359375  C 3.21056547619048 28.500744047619  3.37797619047619 28.5714285714286  3.57142857142857 28.5714285714286  L 7.14285714285714 28.5714285714286  L 7.14285714285714 31.4285714285714  L 3.57142857142857 31.4285714285714  C 2.58928571428571 31.4285714285714  1.7485119047619 31.078869047619  1.04910714285714 30.3794642857143  C 0.349702380952381 29.6800595238095  0 28.8392857142857  0 27.8571428571429  L 0 3.57142857142857  C 0 2.58928571428572  0.349702380952381 1.7485119047619  1.04910714285714 1.04910714285714  C 1.7485119047619 0.349702380952381  2.58928571428571 0  3.57142857142857 0  L 27.8571428571429 0  C 28.8392857142857 0  29.6800595238095 0.349702380952381  30.3794642857143 1.04910714285714  Z " fill-rule="nonzero" fill="#ffffff" stroke="none" fill-opacity="0.996078431372549" transform="matrix(1 0 0 1 757 101 )" />
  </g>
</svg>