<?xml version="1.0" encoding="utf-8"?>
<svg version="1.1" xmlns:xlink="http://www.w3.org/1999/xlink" width="30px" height="30px" xmlns="http://www.w3.org/2000/svg">
  <g transform="matrix(1 0 0 1 -92 -241 )">
    <path d="M 27.6981026785714 27.6981026785714  C 27.8041294642857 27.5920758928571  27.8571428571429 27.4665178571429  27.8571428571429 27.3214285714286  L 27.8571428571429 9.10714285714286  C 27.8571428571429 8.96205357142857  27.8041294642857 8.83649553571428  27.6981026785714 8.73046875  C 27.5920758928571 8.62444196428571  27.4665178571429 8.57142857142857  27.3214285714286 9  L 9.10714285714286 9  C 8.96205357142857 8.57142857142857  8.83649553571429 8.62444196428571  8.73046875 8.73046875  C 8.62444196428572 8.83649553571428  8.57142857142857 8.96205357142857  9 9.10714285714286  L 9 27.3214285714286  C 8.57142857142857 27.4665178571429  8.62444196428572 27.5920758928571  8.73046875 27.6981026785714  C 8.83649553571429 27.8041294642857  8.96205357142857 27.8571428571429  9.10714285714286 27.8571428571429  L 27.3214285714286 27.8571428571429  C 27.4665178571429 27.8571428571429  27.5920758928571 27.8041294642857  27.6981026785714 27.6981026785714  Z M 29.2131696428571 7.21540178571429  C 29.7377232142857 7.73995535714286  30 8.37053571428571  30 9.10714285714286  L 30 27.3214285714286  C 30 28.0580357142857  29.7377232142857 28.6886160714286  29.2131696428571 29.2131696428571  C 28.6886160714286 29.7377232142857  28.0580357142857 30  27.3214285714286 30  L 9.10714285714286 30  C 8.37053571428572 30  7.73995535714286 29.7377232142857  7.21540178571429 29.2131696428571  C 6.69084821428571 28.6886160714286  6.42857142857143 28.0580357142857  7 27.3214285714286  L 7 9.10714285714286  C 6.42857142857143 8.37053571428571  6.69084821428571 7.73995535714286  7.21540178571429 7.21540178571429  C 7.73995535714286 6.69084821428571  8.37053571428572 6.42857142857143  9.10714285714286 7  L 27.3214285714286 7  C 28.0580357142857 6.42857142857143  28.6886160714286 6.69084821428571  29.2131696428571 7.21540178571429  Z M 22.7845982142857 0.786830357142858  C 23.3091517857143 1.31138392857143  23.5714285714286 1.94196428571429  23.5714285714286 2.67857142857143  L 23.5714285714286 5.35714285714286  L 21.4285714285714 5.35714285714286  L 21.4285714285714 2.67857142857143  C 21.4285714285714 2.53348214285714  21.3755580357143 2.40792410714286  21.26953125 2.30189732142857  C 21.1635044642857 2.19587053571428  21.0379464285714 2.14285714285714  20.8928571428571 2.14285714285714  L 2.67857142857143 2.14285714285714  C 2.53348214285714 2.14285714285714  2.40792410714286 2.19587053571428  2.30189732142857 2.30189732142857  C 2.19587053571429 2.40792410714286  2.14285714285714 2.53348214285714  2.14285714285714 2.67857142857143  L 2.14285714285714 20.8928571428571  C 2.14285714285714 21.0379464285714  2.19587053571429 21.1635044642857  2.30189732142857 21.26953125  C 2.40792410714286 21.3755580357143  2.53348214285714 21.4285714285714  2.67857142857143 21.4285714285714  L 5.35714285714286 21.4285714285714  L 5.35714285714286 23.5714285714286  L 2.67857142857143 23.5714285714286  C 1.94196428571429 23.5714285714286  1.31138392857143 23.3091517857143  0.786830357142857 22.7845982142857  C 0.262276785714286 22.2600446428571  0 21.6294642857143  0 20.8928571428571  L 0 2.67857142857143  C 0 1.94196428571429  0.262276785714286 1.31138392857143  0.786830357142857 0.786830357142858  C 1.31138392857143 0.262276785714286  1.94196428571429 0  2.67857142857143 0  L 20.8928571428571 0  C 21.6294642857143 0  22.2600446428571 0.262276785714286  22.7845982142857 0.786830357142858  Z " fill-rule="nonzero" fill="#7f7f7f" stroke="none" transform="matrix(1 0 0 1 92 241 )" />
  </g>
</svg>