<?xml version="1.0" encoding="utf-8"?>
<svg version="1.1" xmlns:xlink="http://www.w3.org/1999/xlink" width="30px" height="40px" xmlns="http://www.w3.org/2000/svg">
  <g transform="matrix(1 0 0 1 -93 -476 )">
    <path d="M 22.578125 1.51785714285714  L 28.671875 8.48214285714286  C 29.0364583333333 8.89880952380952  29.3489583333333 9.46428571428572  29.609375 10.1785714285714  C 29.8697916666667 10.8928571428571  30 11.547619047619  30 12.1428571428571  L 30 37.8571428571429  C 30 38.452380952381  29.8177083333333 38.9583333333333  29.453125 39.375  C 29.0885416666667 39.7916666666667  28.6458333333333 40  28.125 40  L 1.875 40  C 1.35416666666667 40  0.911458333333333 39.7916666666667  0.546875 39.375  C 0.182291666666667 38.9583333333333  0 38.452380952381  0 37.8571428571429  L 0 2.14285714285714  C 0 1.54761904761905  0.182291666666667 1.04166666666667  0.546875 0.625  C 0.911458333333333 0.208333333333335  1.35416666666667 0  1.875 0  L 19.375 0  C 19.8958333333333 0  20.46875 0.148809523809526  21.09375 0.446428571428572  C 21.71875 0.744047619047619  22.2135416666667 1.10119047619047  22.578125 1.51785714285714  Z M 20.80078125 3.52678571428572  C 20.64453125 3.34821428571428  20.3776041666667 3.1845238095238  20 3.03571428571428  L 20 11.4285714285714  L 27.34375 11.4285714285714  C 27.2135416666667 10.9970238095238  27.0703125 10.6919642857143  26.9140625 10.5133928571429  L 20.80078125 3.52678571428572  Z M 3 37  L 27 37  L 27 14.2857142857143  L 19.375 14.2857142857143  C 18.8541666666667 14.2857142857143  18.4114583333333 14.0773809523809  18.046875 13.6607142857143  C 17.6822916666667 13.2440476190476  17.5 12.7380952380952  17.5 12.1428571428571  L 17.5 3  L 3 3  L 3 37  Z M 7.5 19.2857142857143  L 7.5 17.8571428571429  C 7.5 17.6488095238095  7.55859375 17.4776785714286  7.67578125 17.34375  C 7.79296875 17.2098214285714  7.94270833333333 17.1428571428571  8.125 17.1428571428571  L 21.875 17.1428571428571  C 22.0572916666667 17.1428571428571  22.20703125 17.2098214285714  22.32421875 17.34375  C 22.44140625 17.4776785714286  22.5 17.6488095238095  22.5 17.8571428571429  L 22.5 19.2857142857143  C 22.5 19.4940476190476  22.44140625 19.6651785714286  22.32421875 19.7991071428571  C 22.20703125 19.9330357142857  22.0572916666667 20  21.875 20  L 8.125 20  C 7.94270833333333 20  7.79296875 19.9330357142857  7.67578125 19.7991071428571  C 7.55859375 19.6651785714286  7.5 19.4940476190476  7.5 19.2857142857143  Z M 8.125 22.8571428571429  L 21.875 22.8571428571429  C 22.0572916666667 22.8571428571429  22.20703125 22.9241071428571  22.32421875 23.0580357142857  C 22.44140625 23.1919642857143  22.5 23.3630952380952  22.5 23.5714285714286  L 22.5 25  C 22.5 25.2083333333333  22.44140625 25.3794642857143  22.32421875 25.5133928571429  C 22.20703125 25.6473214285714  22.0572916666667 25.7142857142857  21.875 25  L 8.125 25  C 7.94270833333333 25.7142857142857  7.79296875 25.6473214285714  7.67578125 25.5133928571429  C 7.55859375 25.3794642857143  7.5 25.2083333333333  7.5 25  L 7.5 23.5714285714286  C 7.5 23.3630952380952  7.55859375 23.1919642857143  7.67578125 23.0580357142857  C 7.79296875 22.9241071428571  7.94270833333333 22.8571428571429  8.125 22.8571428571429  Z M 8.125 28  L 21.875 28  C 22.0572916666667 28.5714285714286  22.20703125 28.6383928571429  22.32421875 28.7723214285714  C 22.44140625 28.90625  22.5 29.077380952381  22.5 29.2857142857143  L 22.5 30.7142857142857  C 22.5 30.922619047619  22.44140625 31.09375  22.32421875 31.2276785714286  C 22.20703125 31.3616071428571  22.0572916666667 31.4285714285714  21.875 31  L 8.125 31  C 7.94270833333333 31.4285714285714  7.79296875 31.3616071428571  7.67578125 31.2276785714286  C 7.55859375 31.09375  7.5 30.922619047619  7.5 30.7142857142857  L 7.5 29.2857142857143  C 7.5 29.077380952381  7.55859375 28.90625  7.67578125 28.7723214285714  C 7.79296875 28.6383928571429  7.94270833333333 28.5714285714286  8.125 28  Z " fill-rule="nonzero" fill="#7f7f7f" stroke="none" transform="matrix(1 0 0 1 93 476 )" />
  </g>
</svg>