<?xml version="1.0" encoding="utf-8"?>
<svg version="1.1" xmlns:xlink="http://www.w3.org/1999/xlink" width="30px" height="40px" xmlns="http://www.w3.org/2000/svg">
  <g transform="matrix(1 0 0 1 -92 -265 )">
    <path d="M 23.7890625 25.4464285714286  C 23.9296875 26.25  24 27.1279761904762  24 28.0803571428571  C 24 29.0327380952381  23.7109375 29.828869047619  23.1328125 30.46875  C 22.5546875 31.108630952381  21.84375 31.4285714285714  21 31  L 9 31  C 8.15625 31.4285714285714  7.4453125 31.108630952381  6.8671875 30.46875  C 6.2890625 29.828869047619  6 29.0327380952381  6 28.0803571428571  C 6 27.1279761904762  6.0703125 26.25  6.2109375 25.4464285714286  C 6.3515625 24.6428571428571  6.58203125 23.8690476190476  6.90234375 23.125  C 7.22265625 22.3809523809524  7.69921875 21.796875  8.33203125 21.3727678571429  C 8.96484375 20.9486607142857  9.71875 20.7366071428571  10.59375 20.7366071428571  C 11.84375 21.8526785714286  13.3125 22.4107142857143  15 22.4107142857143  C 16.6875 22.4107142857143  18.15625 21.8526785714286  19.40625 20.7366071428571  C 20.28125 20.7366071428571  21.03515625 20.9486607142857  21.66796875 21.3727678571429  C 22.30078125 21.796875  22.77734375 22.3809523809524  23.09765625 23.125  C 23.41796875 23.8690476190476  23.6484375 24.6428571428571  23.7890625 25.4464285714286  Z M 18.80859375 12.9129464285714  C 19.86328125 13.9025297619048  20.390625 15.0967261904762  20.390625 16.4955357142857  C 20.390625 17.8943452380952  19.86328125 19.0885416666667  18.80859375 20.078125  C 17.75390625 21.0677083333333  16.484375 21.5625  15 21.5625  C 13.515625 21.5625  12.24609375 21.0677083333333  11.19140625 20.078125  C 10.13671875 19.0885416666667  9.609375 17.8943452380952  9.609375 16.4955357142857  C 9.609375 15.0967261904762  10.13671875 13.9025297619048  11.19140625 12.9129464285714  C 12.24609375 11.9233630952381  13.515625 11.4285714285714  15 11.4285714285714  C 16.484375 11.4285714285714  17.75390625 11.9233630952381  18.80859375 12.9129464285714  Z M 26.77734375 36.9308035714286  C 26.92578125 36.7894345238095  27 36.6220238095238  27 36.4285714285714  L 27 6  L 3 6  L 3 36.4285714285714  C 3 36.6220238095238  3.07421875 36.7894345238095  3.22265625 36.9308035714286  C 3.37109375 37.0721726190476  3.546875 37.1428571428571  3.75 37  L 26.25 37  C 26.453125 37.1428571428571  26.62890625 37.0721726190476  26.77734375 36.9308035714286  Z M 28.8984375 1.04910714285714  C 29.6328125 1.7485119047619  30 2.58928571428572  30 3.57142857142857  L 30 36.4285714285714  C 30 37.4107142857143  29.6328125 38.2514880952381  28.8984375 38.9508928571429  C 28.1640625 39.6502976190476  27.28125 40  26.25 40  L 3.75 40  C 2.71875 40  1.8359375 39.6502976190476  1.1015625 38.9508928571429  C 0.3671875 38.2514880952381  0 37.4107142857143  0 36.4285714285714  L 0 3.57142857142857  C 0 2.58928571428572  0.3671875 1.7485119047619  1.1015625 1.04910714285714  C 1.8359375 0.349702380952381  2.71875 0  3.75 0  L 12 0  L 12 2.14285714285714  C 12 2.35119047619047  12.0703125 2.52232142857143  12.2109375 2.65625  C 12.3515625 2.79017857142857  12.53125 2.85714285714286  12.75 2.85714285714286  L 17.25 2.85714285714286  C 17.46875 2.85714285714286  17.6484375 2.79017857142857  17.7890625 2.65625  C 17.9296875 2.52232142857143  18 2.35119047619047  18 2.14285714285714  L 18 0  L 26.25 0  C 27.28125 0  28.1640625 0.349702380952381  28.8984375 1.04910714285714  Z " fill-rule="nonzero" fill="#7f7f7f" stroke="none" transform="matrix(1 0 0 1 92 265 )" />
  </g>
</svg>