<?xml version="1.0" encoding="utf-8"?>
<svg version="1.1" xmlns:xlink="http://www.w3.org/1999/xlink" width="32px" height="39px" xmlns="http://www.w3.org/2000/svg">
  <g transform="matrix(1 0 0 1 -93 -346 )">
    <path d="M 8.88888888888889 19  L 29.3333333333333 19  C 30.0740740740741 19.5  30.7037037037037 19.7369791666667  31.2222222222222 20.2109375  C 31.7407407407407 20.6848958333333  32 21.2604166666667  32 21.9375  L 32 36.5625  C 32 37.2395833333333  31.7407407407407 37.8151041666667  31.2222222222222 38.2890625  C 30.7037037037037 38.7630208333333  30.0740740740741 39  29.3333333333333 39  L 2.66666666666667 39  C 1.92592592592593 39  1.2962962962963 38.7630208333333  0.777777777777778 38.2890625  C 0.259259259259259 37.8151041666667  0 37.2395833333333  0 36.5625  L 0 21.9375  C 0 21.2604166666667  0.259259259259259 20.6848958333333  0.777777777777778 20.2109375  C 1.2962962962963 19.7369791666667  1.92592592592593 19.5  2.66666666666667 19.5  L 3.55555555555556 19.5  L 3.55555555555556 11.375  C 3.55555555555556 8.24348958333333  4.77314814814815 5.56477864583333  7.20833333333333 3.3388671875  C 9.64351851851852 1.11295572916667  12.5740740740741 0  16 0  C 19.4259259259259 0  22.3564814814815 1.11295572916667  24.7916666666667 3.3388671875  C 27.2268518518519 5.56477864583333  28.4444444444444 8.24348958333333  28.4444444444444 11.375  C 28.4444444444444 11.8151041666667  28.2685185185185 12.1959635416667  27.9166666666667 12.517578125  C 27.5648148148148 12.8391927083333  27.1481481481481 13  26.6666666666667 13  L 24.8888888888889 13  C 24.4074074074074 13  23.9907407407407 12.8391927083333  23.6388888888889 12.517578125  C 23.287037037037 12.1959635416667  23.1111111111111 11.8151041666667  23.1111111111111 11.375  C 23.1111111111111 9.58072916666667  22.4166666666667 8.048828125  21.0277777777778 6.779296875  C 19.6388888888889 5.509765625  17.962962962963 4.875  16 4.875  C 14.037037037037 4.875  12.3611111111111 5.509765625  10.9722222222222 6.779296875  C 9.58333333333333 8.048828125  8.88888888888889 9.58072916666667  8.88888888888889 11.375  L 8.88888888888889 19  Z " fill-rule="nonzero" fill="#7f7f7f" stroke="none" transform="matrix(1 0 0 1 93 346 )" />
  </g>
</svg>