<?xml version="1.0" encoding="utf-8"?>
<svg version="1.1" xmlns:xlink="http://www.w3.org/1999/xlink" width="27px" height="34px" xmlns="http://www.w3.org/2000/svg">
  <g transform="matrix(1 0 0 1 -45 -318 )">
    <path d="M 20.3203125 1.29017857142857  L 25.8046875 7.20982142857143  C 26.1328125 7.56398809523809  26.4140625 8.04464285714286  26.6484375 8.65178571428571  C 26.8828125 9.25892857142857  27 9.81547619047619  27 10.3214285714286  L 27 32.1785714285714  C 27 32.6845238095238  26.8359375 33.1145833333333  26.5078125 33.46875  C 26.1796875 33.8229166666667  25.78125 34  25.3125 34  L 1.6875 34  C 1.21875 34  0.8203125 33.8229166666667  0.4921875 33.46875  C 0.1640625 33.1145833333333  0 32.6845238095238  0 32.1785714285714  L 0 1.82142857142857  C 0 1.31547619047619  0.1640625 0.885416666666665  0.4921875 0.53125  C 0.8203125 0.177083333333335  1.21875 0  1.6875 0  L 17.4375 0  C 17.90625 0  18.421875 0.126488095238097  18.984375 0.379464285714286  C 19.546875 0.632440476190476  19.9921875 0.936011904761903  20.3203125 1.29017857142857  Z M 18.720703125 2.99776785714286  C 18.580078125 2.84598214285714  18.33984375 2.70684523809523  18 2.58035714285714  L 18 9.71428571428571  L 24.609375 9.71428571428571  C 24.4921875 9.34747023809523  24.36328125 9.08816964285714  24.22265625 8.93638392857143  L 18.720703125 2.99776785714286  Z M 2.25 31  L 24.75 31  L 24.75 12.1428571428571  L 17.4375 12.1428571428571  C 16.96875 12.1428571428571  16.5703125 11.9657738095238  16.2421875 11.6116071428571  C 15.9140625 11.2574404761905  15.75 10.8273809523809  15.75 10.3214285714286  L 15.75 3  L 2.25 3  L 2.25 31  Z M 6.75 16.3928571428571  L 6.75 15.1785714285714  C 6.75 15.0014880952381  6.802734375 14.8560267857143  6.908203125 14.7421875  C 7.013671875 14.6283482142857  7.1484375 14.5714285714286  7.3125 15  L 19.6875 15  C 19.8515625 14.5714285714286  19.986328125 14.6283482142857  20.091796875 14.7421875  C 20.197265625 14.8560267857143  20.25 15.0014880952381  20.25 15.1785714285714  L 20.25 16.3928571428571  C 20.25 16.5699404761905  20.197265625 16.7154017857143  20.091796875 16.8292410714286  C 19.986328125 16.9430803571429  19.8515625 17  19.6875 17  L 7.3125 17  C 7.1484375 17  7.013671875 16.9430803571429  6.908203125 16.8292410714286  C 6.802734375 16.7154017857143  6.75 16.5699404761905  6.75 16.3928571428571  Z M 7.3125 19  L 19.6875 19  C 19.8515625 19.4285714285714  19.986328125 19.4854910714286  20.091796875 19.5993303571429  C 20.197265625 19.7131696428571  20.25 19.858630952381  20.25 20.0357142857143  L 20.25 21.25  C 20.25 21.4270833333333  20.197265625 21.5725446428571  20.091796875 21.6863839285714  C 19.986328125 21.8002232142857  19.8515625 21.8571428571429  19.6875 21.8571428571429  L 7.3125 21.8571428571429  C 7.1484375 21.8571428571429  7.013671875 21.8002232142857  6.908203125 21.6863839285714  C 6.802734375 21.5725446428571  6.75 21.4270833333333  6.75 21.25  L 6.75 20.0357142857143  C 6.75 19.858630952381  6.802734375 19.7131696428571  6.908203125 19.5993303571429  C 7.013671875 19.4854910714286  7.1484375 19.4285714285714  7.3125 19  Z M 7.3125 24  L 19.6875 24  C 19.8515625 24.2857142857143  19.986328125 24.3426339285714  20.091796875 24.4564732142857  C 20.197265625 24.5703125  20.25 24.7157738095238  20.25 24.8928571428571  L 20.25 26.1071428571429  C 20.25 26.2842261904762  20.197265625 26.4296875  20.091796875 26.5435267857143  C 19.986328125 26.6573660714286  19.8515625 26.7142857142857  19.6875 26.7142857142857  L 7.3125 26.7142857142857  C 7.1484375 26.7142857142857  7.013671875 26.6573660714286  6.908203125 26.5435267857143  C 6.802734375 26.4296875  6.75 26.2842261904762  6.75 26.1071428571429  L 6.75 24.8928571428571  C 6.75 24.7157738095238  6.802734375 24.5703125  6.908203125 24.4564732142857  C 7.013671875 24.3426339285714  7.1484375 24.2857142857143  7.3125 24  Z " fill-rule="nonzero" fill="#7f7f7f" stroke="none" transform="matrix(1 0 0 1 45 318 )" />
  </g>
</svg>