<?xml version="1.0" encoding="utf-8"?>
<svg version="1.1" xmlns:xlink="http://www.w3.org/1999/xlink" width="27px" height="26px" xmlns="http://www.w3.org/2000/svg">
  <g transform="matrix(1 0 0 1 -40 -117 )">
    <path d="M 24.9282924107143 24.0050223214286  C 25.0237165178571 23.9131324404762  25.0714285714286 23.8043154761905  25 23.6785714285714  L 25 7.89285714285714  C 25.0714285714286 7.76711309523809  25.0237165178571 7.65829613095238  24.9282924107143 7.56640625  C 24.8328683035714 7.47451636904762  24.7198660714286 7.42857142857143  24.5892857142857 7.42857142857143  L 8.19642857142857 7.42857142857143  C 8.06584821428572 7.42857142857143  7.95284598214286 7.47451636904762  7.857421875 7.56640625  C 7.76199776785714 7.65829613095238  7.71428571428571 7.76711309523809  8 7.89285714285714  L 8 23.6785714285714  C 7.71428571428571 23.8043154761905  7.76199776785714 23.9131324404762  7.857421875 24.0050223214286  C 7.95284598214286 24.096912202381  8.06584821428572 24.1428571428571  8.19642857142857 24  L 24.5892857142857 24  C 24.7198660714286 24.1428571428571  24.8328683035714 24.096912202381  24.9282924107143 24.0050223214286  Z M 26.2918526785714 6.25334821428572  C 26.7639508928571 6.70796130952381  27 7.25446428571428  27 7.89285714285714  L 27 23.6785714285714  C 27 24.3169642857143  26.7639508928571 24.8634672619048  26.2918526785714 25.3180803571429  C 25.8197544642857 25.772693452381  25.2522321428571 26  24.5892857142857 26  L 8.19642857142857 26  C 7.53348214285714 26  6.96595982142857 25.772693452381  6.49386160714286 25.3180803571429  C 6.02176339285714 24.8634672619048  5.78571428571429 24.3169642857143  6 23.6785714285714  L 6 7.89285714285714  C 5.78571428571429 7.25446428571428  6.02176339285714 6.70796130952381  6.49386160714286 6.25334821428572  C 6.96595982142857 5.79873511904762  7.53348214285714 5.57142857142857  8.19642857142857 6  L 24.5892857142857 6  C 25.2522321428571 5.57142857142857  25.8197544642857 5.79873511904762  26.2918526785714 6.25334821428572  Z M 20.5061383928571 0.681919642857144  C 20.9782366071429 1.13653273809524  21.2142857142857 1.68303571428572  21.2142857142857 2.32142857142857  L 21.2142857142857 4.64285714285714  L 19.2857142857143 4.64285714285714  L 19.2857142857143 2.32142857142857  C 19.2857142857143 2.19568452380952  19.2380022321429 2.08686755952381  19.142578125 1.99497767857143  C 19.0471540178571 1.90308779761905  18.9341517857143 1.85714285714286  18.8035714285714 2  L 2.41071428571429 2  C 2.28013392857143 1.85714285714286  2.16713169642857 1.90308779761905  2.07170758928571 1.99497767857143  C 1.97628348214286 2.08686755952381  1.92857142857143 2.19568452380952  2 2.32142857142857  L 2 18.1071428571429  C 1.92857142857143 18.2328869047619  1.97628348214286 18.3417038690476  2.07170758928571 18.43359375  C 2.16713169642857 18.5254836309524  2.28013392857143 18.5714285714286  2.41071428571429 18.5714285714286  L 4.82142857142857 18.5714285714286  L 4.82142857142857 20.4285714285714  L 2.41071428571429 20.4285714285714  C 1.74776785714286 20.4285714285714  1.18024553571429 20.2012648809524  0.708147321428571 19.7466517857143  C 0.236049107142857 19.2920386904762  0 18.7455357142857  0 18.1071428571429  L 0 2.32142857142857  C 0 1.68303571428572  0.236049107142857 1.13653273809524  0.708147321428571 0.681919642857144  C 1.18024553571429 0.227306547619048  1.74776785714286 0  2.41071428571429 0  L 18.8035714285714 0  C 19.4665178571429 0  20.0340401785714 0.227306547619048  20.5061383928571 0.681919642857144  Z " fill-rule="nonzero" fill="#7f7f7f" stroke="none" transform="matrix(1 0 0 1 40 117 )" />
  </g>
</svg>