<?xml version="1.0" encoding="utf-8"?>
<svg version="1.1" xmlns:xlink="http://www.w3.org/1999/xlink" width="27px" height="34px" xmlns="http://www.w3.org/2000/svg">
  <g transform="matrix(1 0 0 1 -40 -181 )">
    <path d="M 21.41015625 21.6294642857143  C 21.53671875 22.3125  21.6 23.0587797619048  21.6 23.8683035714286  C 21.6 24.6778273809524  21.33984375 25.3545386904762  20.81953125 25.8984375  C 20.29921875 26.4423363095238  19.659375 26.7142857142857  18.9 26.7142857142857  L 8.1 26.7142857142857  C 7.340625 26.7142857142857  6.70078125 26.4423363095238  6.18046875 25.8984375  C 5.66015625 25.3545386904762  5.4 24.6778273809524  5.4 23.8683035714286  C 5.4 23.0587797619048  5.46328125 22.3125  5.58984375 21.6294642857143  C 5.71640625 20.9464285714286  5.923828125 20.2886904761905  6.212109375 19.65625  C 6.500390625 19.0238095238095  6.929296875 18.52734375  7.498828125 18.1668526785714  C 8.068359375 17.8063616071429  8.746875 17.6261160714286  9.534375 17.6261160714286  C 10.659375 18.5747767857143  11.98125 19.0491071428571  13.5 19.0491071428571  C 15.01875 19.0491071428571  16.340625 18.5747767857143  17.465625 17.6261160714286  C 18.253125 17.6261160714286  18.931640625 17.8063616071429  19.501171875 18.1668526785714  C 20.070703125 18.52734375  20.499609375 19.0238095238095  20.787890625 19.65625  C 21.076171875 20.2886904761905  21.28359375 20.9464285714286  21.41015625 21.6294642857143  Z M 16.927734375 10.9760044642857  C 17.876953125 11.817150297619  18.3515625 12.8322172619048  18.3515625 14.0212053571429  C 18.3515625 15.210193452381  17.876953125 16.2252604166667  16.927734375 17.06640625  C 15.978515625 17.9075520833333  14.8359375 18.328125  13.5 18.328125  C 12.1640625 18.328125  11.021484375 17.9075520833333  10.072265625 17.06640625  C 9.123046875 16.2252604166667  8.6484375 15.210193452381  8.6484375 14.0212053571429  C 8.6484375 12.8322172619048  9.123046875 11.817150297619  10.072265625 10.9760044642857  C 11.021484375 10.1348586309524  12.1640625 9.71428571428571  13.5 9.71428571428571  C 14.8359375 9.71428571428571  15.978515625 10.1348586309524  16.927734375 10.9760044642857  Z M 24.099609375 31.3911830357143  C 24.233203125 31.2710193452381  24.3 31.1287202380952  24 30.9642857142857  L 24 5  L 3 5  L 3 30.9642857142857  C 2.7 31.1287202380952  2.766796875 31.2710193452381  2.900390625 31.3911830357143  C 3.033984375 31.5113467261905  3.1921875 31.5714285714286  3.375 31  L 23.625 31  C 23.8078125 31.5714285714286  23.966015625 31.5113467261905  24.099609375 31.3911830357143  Z M 26.00859375 0.891741071428573  C 26.66953125 1.48623511904762  27 2.20089285714286  27 3.03571428571429  L 27 30.9642857142857  C 27 31.7991071428571  26.66953125 32.5137648809524  26.00859375 33.1082589285714  C 25.34765625 33.7027529761905  24.553125 34  23.625 34  L 3.375 34  C 2.446875 34  1.65234375 33.7027529761905  0.99140625 33.1082589285714  C 0.33046875 32.5137648809524  0 31.7991071428571  0 30.9642857142857  L 0 3.03571428571429  C 0 2.20089285714286  0.33046875 1.48623511904762  0.99140625 0.891741071428573  C 1.65234375 0.297247023809524  2.446875 0  3.375 0  L 10.8 0  L 10.8 1.82142857142857  C 10.8 1.9985119047619  10.86328125 2.14397321428571  10.98984375 2.2578125  C 11.11640625 2.37165178571429  11.278125 2.42857142857143  11.475 2.42857142857143  L 15.525 2.42857142857143  C 15.721875 2.42857142857143  15.88359375 2.37165178571429  16.01015625 2.2578125  C 16.13671875 2.14397321428571  16.2 1.9985119047619  16.2 1.82142857142857  L 16.2 0  L 23.625 0  C 24.553125 0  25.34765625 0.297247023809524  26.00859375 0.891741071428573  Z " fill-rule="nonzero" fill="#7f7f7f" stroke="none" transform="matrix(1 0 0 1 40 181 )" />
  </g>
</svg>