<?xml version="1.0" encoding="utf-8"?>
<svg version="1.1" xmlns:xlink="http://www.w3.org/1999/xlink" width="28px" height="33px" xmlns="http://www.w3.org/2000/svg">
  <g transform="matrix(1 0 0 1 -41 -250 )">
    <path d="M 7.77777777777778 16  L 25.6666666666667 16  C 26.3148148148148 16.5  26.8657407407407 16.7005208333333  27.3194444444444 17.1015625  C 27.7731481481482 17.5026041666667  28 17.9895833333333  28 18.5625  L 28 30.9375  C 28 31.5104166666667  27.7731481481482 31.9973958333333  27.3194444444444 32.3984375  C 26.8657407407407 32.7994791666667  26.3148148148148 33  25.6666666666667 33  L 2.33333333333333 33  C 1.68518518518519 33  1.13425925925926 32.7994791666667  0.680555555555556 32.3984375  C 0.226851851851852 31.9973958333333  0 31.5104166666667  0 30.9375  L 0 18.5625  C 0 17.9895833333333  0.226851851851852 17.5026041666667  0.680555555555556 17.1015625  C 1.13425925925926 16.7005208333333  1.68518518518519 16.5  2.33333333333333 16.5  L 3.11111111111111 16.5  L 3.11111111111111 9.625  C 3.11111111111111 6.97526041666666  4.17650462962963 4.70865885416666  6.30729166666667 2.8251953125  C 8.4380787037037 0.941731770833335  11.0023148148148 0  14 0  C 16.9976851851852 0  19.5619212962963 0.941731770833335  21.6927083333333 2.8251953125  C 23.8234953703704 4.70865885416666  24.8888888888889 6.97526041666666  24.8888888888889 9.625  C 24.8888888888889 9.99739583333333  24.7349537037037 10.3196614583333  24.4270833333333 10.591796875  C 24.119212962963 10.8639322916667  23.7546296296296 11  23.3333333333333 11  L 21.7777777777778 11  C 21.3564814814815 11  20.9918981481482 10.8639322916667  20.6840277777778 10.591796875  C 20.3761574074074 10.3196614583333  20.2222222222222 9.99739583333333  20.2222222222222 9.625  C 20.2222222222222 8.10677083333333  19.6145833333333 6.810546875  18.3993055555556 5.736328125  C 17.1840277777778 4.662109375  15.7175925925926 4.125  14 4.125  C 12.2824074074074 4.125  10.8159722222222 4.662109375  9.60069444444444 5.736328125  C 8.38541666666667 6.810546875  7.77777777777778 8.10677083333333  7.77777777777778 9.625  L 7.77777777777778 16  Z " fill-rule="nonzero" fill="#7f7f7f" stroke="none" transform="matrix(1 0 0 1 41 250 )" />
  </g>
</svg>