<?xml version="1.0" encoding="utf-8"?>
<svg version="1.1" xmlns:xlink="http://www.w3.org/1999/xlink" width="30px" height="30px" xmlns="http://www.w3.org/2000/svg">
  <g transform="matrix(1 0 0 1 -15 -75 )">
    <path d="M 17.01171875 20.48828125  C 17.12890625 20.60546875  17.1875 20.7552083333333  17.1875 20.9375  L 17.1875 24.0625  C 17.1875 24.2447916666667  17.12890625 24.39453125  17.01171875 24.51171875  C 16.89453125 24.62890625  16.7447916666667 24.6875  16.5625 24.6875  L 13.4375 24.6875  C 13.2552083333333 24.6875  13.10546875 24.62890625  12.98828125 24.51171875  C 12.87109375 24.39453125  12.8125 24.2447916666667  12.8125 24.0625  L 12.8125 20.9375  C 12.8125 20.7552083333333  12.87109375 20.60546875  12.98828125 20.48828125  C 13.10546875 20.37109375  13.2552083333333 20.3125  13.4375 20.3125  L 16.5625 20.3125  C 16.7447916666667 20.3125  16.89453125 20.37109375  17.01171875 20.48828125  Z M 20.048828125 7.060546875  C 21.474609375 8.22591145833333  22.1875 9.62239583333333  22.1875 11.25  C 22.1875 11.9010416666667  22.08984375 12.4869791666667  21.89453125 13.0078125  C 21.69921875 13.5286458333333  21.4029947916667 13.9778645833333  21.005859375 14.35546875  C 20.6087239583333 14.7330729166667  20.2701822916667 15.01953125  19.990234375 15.21484375  C 19.7102864583333 15.41015625  19.3229166666667 15.64453125  18.828125 15.91796875  C 18.4114583333333 16.15234375  18.1087239583333 16.3346354166667  17.919921875 16.46484375  C 17.7311197916667 16.5950520833333  17.5618489583333 16.7513020833333  17.412109375 16.93359375  C 17.2623697916667 17.1158854166667  17.1875 17.3046875  17.1875 17.5  L 17.1875 18.125  C 17.1875 18.3072916666667  17.12890625 18.45703125  17.01171875 18.57421875  C 16.89453125 18.69140625  16.7447916666667 18.75  16.5625 18.75  L 13.4375 18.75  C 13.2552083333333 18.75  13.10546875 18.69140625  12.98828125 18.57421875  C 12.87109375 18.45703125  12.8125 18.3072916666667  12.8125 18.125  L 12.8125 16.796875  C 12.8125 16.3411458333333  12.880859375 15.9212239583333  13.017578125 15.537109375  C 13.154296875 15.1529947916667  13.310546875 14.84375  13.486328125 14.609375  C 13.662109375 14.375  13.916015625 14.1438802083333  14.248046875 13.916015625  C 14.580078125 13.6881510416667  14.8470052083333 13.5221354166667  15.048828125 13.41796875  C 15.2506510416667 13.3138020833333  15.5403645833333 13.1770833333333  15.91796875 13.0078125  C 16.6080729166667 12.6822916666667  17.0963541666667 12.40234375  17.3828125 12.16796875  C 17.6692708333333 11.93359375  17.8125 11.6145833333333  17.8125 11.2109375  C 17.8125 10.6640625  17.529296875 10.1985677083333  16.962890625 9.814453125  C 16.396484375 9.43033854166666  15.7747395833333 9.23828125  15.09765625 9.23828125  C 14.3684895833333 9.23828125  13.75 9.4140625  13.2421875 9.765625  C 12.8645833333333 10.0260416666667  12.34375 10.56640625  11.6796875 11.38671875  C 11.5625 11.54296875  11.3997395833333 11.62109375  11.19140625 11.62109375  C 11.0481770833333 11.62109375  10.9244791666667 11.58203125  10.8203125 11.50390625  L 8.7109375 9.90234375  C 8.58072916666667 9.81119791666666  8.50260416666667 9.68098958333333  8.4765625 9.51171875  C 8.45052083333334 9.34244791666666  8.48307291666667 9.19270833333333  8.57421875 9.0625  C 10.1627604166667 6.5625  12.4348958333333 5.3125  15.390625 5.3125  C 17.0703125 5.3125  18.623046875 5.89518229166667  20.048828125 7.060546875  Z M 19.853515625 3.49609375  C 18.310546875 2.83203125  16.6927083333333 2.5  15 2.5  C 13.3072916666667 2.5  11.689453125 2.83203125  10.146484375 3.49609375  C 8.603515625 4.16015625  7.275390625 5.048828125  6.162109375 6.162109375  C 5.048828125 7.275390625  4.16015625 8.603515625  3.49609375 10.146484375  C 2.83203125 11.689453125  2.5 13.3072916666667  2.5 15  C 2.5 16.6927083333333  2.83203125 18.310546875  3.49609375 19.853515625  C 4.16015625 21.396484375  5.048828125 22.724609375  6.162109375 23.837890625  C 7.275390625 24.951171875  8.603515625 25.83984375  10.146484375 26.50390625  C 11.689453125 27.16796875  13.3072916666667 27.5  15 27.5  C 16.6927083333333 27.5  18.310546875 27.16796875  19.853515625 26.50390625  C 21.396484375 25.83984375  22.724609375 24.951171875  23.837890625 23.837890625  C 24.951171875 22.724609375  25.83984375 21.396484375  26.50390625 19.853515625  C 27.16796875 18.310546875  27.5 16.6927083333333  27.5 15  C 27.5 13.3072916666667  27.16796875 11.689453125  26.50390625 10.146484375  C 25.83984375 8.603515625  24.951171875 7.275390625  23.837890625 6.162109375  C 22.724609375 5.048828125  21.396484375 4.16015625  19.853515625 3.49609375  Z M 27.98828125 7.470703125  C 29.3294270833333 9.76888020833333  30 12.2786458333333  30 15  C 30 17.7213541666667  29.3294270833333 20.2311197916667  27.98828125 22.529296875  C 26.6471354166667 24.8274739583333  24.8274739583333 26.6471354166667  22.529296875 27.98828125  C 20.2311197916667 29.3294270833333  17.7213541666667 30  15 30  C 12.2786458333333 30  9.76888020833333 29.3294270833333  7.470703125 27.98828125  C 5.17252604166667 26.6471354166667  3.35286458333333 24.8274739583333  2.01171875 22.529296875  C 0.670572916666667 20.2311197916667  0 17.7213541666667  0 15  C 0 12.2786458333333  0.670572916666667 9.76888020833333  2.01171875 7.470703125  C 3.35286458333333 5.17252604166667  5.17252604166667 3.35286458333333  7.470703125 2.01171875  C 9.76888020833333 0.670572916666664  12.2786458333333 0  15 0  C 17.7213541666667 0  20.2311197916667 0.670572916666664  22.529296875 2.01171875  C 24.8274739583333 3.35286458333333  26.6471354166667 5.17252604166667  27.98828125 7.470703125  Z " fill-rule="nonzero" fill="#aaaaaa" stroke="none" transform="matrix(1 0 0 1 15 75 )" />
  </g>
</svg>