<?xml version="1.0" encoding="utf-8"?>
<svg version="1.1" xmlns:xlink="http://www.w3.org/1999/xlink" width="50px" height="50px" xmlns="http://www.w3.org/2000/svg">
  <g transform="matrix(1 0 0 1 -25 -9 )">
    <path d="M 55.5 9.5  L 44.5 9.5  L 44.5 28.5  L 25.5 28.5  L 25.5 39.5  L 44.5 39.5  L 44.5 58.5  L 55.5 58.5  L 55.5 39.5  L 74.5 39.5  L 74.5 28.5  L 55.5 28.5  L 55.5 9.5  Z " fill-rule="nonzero" fill="#ffffff" stroke="none" />
    <path d="M 55.5 9.5  L 44.5 9.5  L 44.5 28.5  L 25.5 28.5  L 25.5 39.5  L 44.5 39.5  L 44.5 58.5  L 55.5 58.5  L 55.5 39.5  L 74.5 39.5  L 74.5 28.5  L 55.5 28.5  L 55.5 9.5  Z " stroke-width="1" stroke="#797979" fill="none" />
  </g>
</svg>