<?xml version="1.0" encoding="utf-8"?>
<svg version="1.1" xmlns:xlink="http://www.w3.org/1999/xlink" width="49px" height="59px" xmlns="http://www.w3.org/2000/svg">
  <g transform="matrix(1 0 0 1 -348 -132 )">
    <path d="M 36.8776041666667 2.23883928571429  L 46.8307291666667 12.5111607142857  C 47.4262152777778 13.125744047619  47.9366319444445 13.9598214285714  48.3619791666667 15.0133928571429  C 48.7873263888889 16.0669642857143  49 17.0327380952381  49 17.9107142857143  L 49 55.8392857142857  C 49 56.7172619047619  48.7022569444444 57.4635416666667  48.1067708333333 58.078125  C 47.5112847222222 58.6927083333333  46.7881944444445 59  45.9375 59  L 3.0625 59  C 2.21180555555556 59  1.48871527777778 58.6927083333333  0.893229166666667 58.078125  C 0.297743055555556 57.4635416666667  0 56.7172619047619  0 55.8392857142857  L 0 3.16071428571429  C 0 2.28273809523809  0.297743055555556 1.53645833333333  0.893229166666667 0.921875  C 1.48871527777778 0.307291666666669  2.21180555555556 0  3.0625 0  L 31.6458333333333 0  C 32.4965277777778 0  33.4322916666667 0.21949404761905  34.453125 0.658482142857144  C 35.4739583333333 1.09747023809524  36.2821180555556 1.62425595238095  36.8776041666667 2.23883928571429  Z M 33.974609375 5.20200892857143  C 33.7194010416667 4.93861607142857  33.2834201388889 4.69717261904761  32 4.47767857142857  L 32 17  L 44.6614583333333 17  C 44.4487847222222 16.2206101190476  44.21484375 15.7706473214286  43.9596354166667 15.5072544642857  L 33.974609375 5.20200892857143  Z M 4 54  L 45 54  L 45 21  L 31.6458333333333 21  C 30.7951388888889 21.0714285714286  30.0720486111111 20.7641369047619  29.4765625 20.1495535714286  C 28.8810763888889 19.5349702380952  28.5833333333333 18.7886904761905  28 17.9107142857143  L 28 5  L 4 5  L 4 54  Z M 12.25 28.4464285714286  L 12.25 26.3392857142857  C 12.25 26.031994047619  12.345703125 25.7795758928571  12.537109375 25.58203125  C 12.728515625 25.3844866071429  12.9730902777778 25.2857142857143  13.2708333333333 26  L 35.7291666666667 26  C 36.0269097222222 25.2857142857143  36.271484375 25.3844866071429  36.462890625 25.58203125  C 36.654296875 25.7795758928571  36.75 26.031994047619  36.75 26.3392857142857  L 36.75 28.4464285714286  C 36.75 28.7537202380952  36.654296875 29.0061383928571  36.462890625 29.2036830357143  C 36.271484375 29.4012276785714  36.0269097222222 29.5  35.7291666666667 29  L 13.2708333333333 29  C 12.9730902777778 29.5  12.728515625 29.4012276785714  12.537109375 29.2036830357143  C 12.345703125 29.0061383928571  12.25 28.7537202380952  12.25 28.4464285714286  Z M 13.2708333333333 33  L 35.7291666666667 33  C 36.0269097222222 33.7142857142857  36.271484375 33.8130580357143  36.462890625 34.0106026785714  C 36.654296875 34.2081473214286  36.75 34.4605654761905  36.75 34.7678571428571  L 36.75 36.875  C 36.75 37.1822916666667  36.654296875 37.4347098214286  36.462890625 37.6322544642857  C 36.271484375 37.8297991071429  36.0269097222222 37.9285714285714  35.7291666666667 38  L 13.2708333333333 38  C 12.9730902777778 37.9285714285714  12.728515625 37.8297991071429  12.537109375 37.6322544642857  C 12.345703125 37.4347098214286  12.25 37.1822916666667  12.25 36.875  L 12.25 34.7678571428571  C 12.25 34.4605654761905  12.345703125 34.2081473214286  12.537109375 34.0106026785714  C 12.728515625 33.8130580357143  12.9730902777778 33.7142857142857  13.2708333333333 33  Z M 13.2708333333333 42  L 35.7291666666667 42  C 36.0269097222222 42.1428571428571  36.271484375 42.2416294642857  36.462890625 42.4391741071429  C 36.654296875 42.63671875  36.75 42.8891369047619  36.75 43.1964285714286  L 36.75 45.3035714285714  C 36.75 45.6108630952381  36.654296875 45.86328125  36.462890625 46.0608258928571  C 36.271484375 46.2583705357143  36.0269097222222 46.3571428571429  35.7291666666667 46  L 13.2708333333333 46  C 12.9730902777778 46.3571428571429  12.728515625 46.2583705357143  12.537109375 46.0608258928571  C 12.345703125 45.86328125  12.25 45.6108630952381  12.25 45.3035714285714  L 12.25 43.1964285714286  C 12.25 42.8891369047619  12.345703125 42.63671875  12.537109375 42.4391741071429  C 12.728515625 42.2416294642857  12.9730902777778 42.1428571428571  13.2708333333333 42  Z " fill-rule="nonzero" fill="#000000" stroke="none" transform="matrix(1 0 0 1 348 132 )" />
  </g>
</svg>