<?xml version="1.0" encoding="utf-8"?>
<svg version="1.1" xmlns:xlink="http://www.w3.org/1999/xlink" width="1642px" height="610px" xmlns="http://www.w3.org/2000/svg">
  <g transform="matrix(1 0 0 1 -171 -302 )">
    <path d="M 173 349  A 45 45 0 0 1 218 304 L 1766 304  A 45 45 0 0 1 1811 349 L 1811 865  A 45 45 0 0 1 1766 910 L 218 910  A 45 45 0 0 1 173 865 L 173 349  Z " fill-rule="nonzero" fill="#ffffff" stroke="none" fill-opacity="0.988235294117647" />
    <path d="M 172 349  A 46 46 0 0 1 218 303 L 1766 303  A 46 46 0 0 1 1812 349 L 1812 865  A 46 46 0 0 1 1766 911 L 218 911  A 46 46 0 0 1 172 865 L 172 349  Z " stroke-width="2" stroke="#000000" fill="none" stroke-opacity="0.282352941176471" />
  </g>
</svg>