<?xml version="1.0" encoding="utf-8"?>
<svg version="1.1" xmlns:xlink="http://www.w3.org/1999/xlink" width="226px" height="80px" xmlns="http://www.w3.org/2000/svg">
  <g transform="matrix(1 0 0 1 0 -172 )">
    <path d="M 194.074636387675 172.5  C 194.074636387675 172.5  197.742446064734 173.149169854347  197.742446064734 173.149169854347  C 197.742446064734 173.149169854347  225.428037636997 212  225.428037636997 212  C 225.428037636997 212  197.742446064734 250.850830145653  197.742446064734 250.850830145653  C 197.742446064734 250.850830145653  194.074636387675 251.5  194.074636387675 251.5  C 194.074636387675 251.5  0.499999999999988 251.5  0.499999999999988 251.5  C 0.499999999999988 251.5  0.5 172.5  0.5 172.5  C 0.5 172.5  194.074636387675 172.5  194.074636387675 172.5  Z " fill-rule="nonzero" fill="#95f204" stroke="none" />
    <path d="M 194.074636387675 172.5  C 194.074636387675 172.5  197.742446064734 173.149169854347  197.742446064734 173.149169854347  C 197.742446064734 173.149169854347  225.428037636997 212  225.428037636997 212  C 225.428037636997 212  197.742446064734 250.850830145653  197.742446064734 250.850830145653  C 197.742446064734 250.850830145653  194.074636387675 251.5  194.074636387675 251.5  C 194.074636387675 251.5  0.499999999999988 251.5  0.499999999999988 251.5  C 0.499999999999988 251.5  0.5 172.5  0.5 172.5  C 0.5 172.5  194.074636387675 172.5  194.074636387675 172.5  Z " stroke-width="1" stroke="#169bd5" fill="none" />
  </g>
</svg>