<?xml version="1.0" encoding="utf-8"?>
<svg version="1.1" xmlns:xlink="http://www.w3.org/1999/xlink" width="35px" height="28px" xmlns="http://www.w3.org/2000/svg">
  <g transform="matrix(1 0 0 1 -27 -9 )">
    <path d="M 33.96484375 12.6525  C 34.6549479166667 14.2158333333333  35 16.1583333333333  35 18.48  C 35 20.4166666666667  34.1731770833333 23.0475  32.51953125 26.3725  C 32.48046875 26.4541666666667  32.412109375 26.5941666666667  32.314453125 26.7925  C 32.216796875 26.9908333333333  32.12890625 27.1658333333333  32.05078125 27.3175  C 31.97265625 27.4691666666667  31.8880208333333 27.5975  31.796875 27.7025  C 31.640625 27.9008333333333  31.4583333333333 28  31.25 28  C 31.0546875 28  30.9016927083333 27.9416666666667  30.791015625 27.825  C 30.6803385416667 27.7083333333333  30.625 27.5625  30.625 27.3875  C 30.625 27.2825  30.6412760416667 27.1279166666667  30.673828125 26.92375  C 30.7063802083333 26.7195833333333  30.72265625 26.5825  30.72265625 26.5125  C 30.7877604166667 25.7191666666667  30.8203125 25.0016666666667  30.8203125 24.36  C 30.8203125 23.1816666666667  30.7063802083333 22.1258333333333  30.478515625 21.1925  C 30.2506510416667 20.2591666666667  29.9348958333333 19.45125  29.53125 18.76875  C 29.1276041666667 18.08625  28.6067708333333 17.4970833333333  27.96875 17.00125  C 27.3307291666667 16.5054166666667  26.6438802083333 16.1  25.908203125 15.785  C 25.1725260416667 15.47  24.306640625 15.2220833333333  23.310546875 15.04125  C 22.314453125 14.8604166666667  21.3118489583333 14.735  20.302734375 14.665  C 19.2936197916667 14.595  18.1510416666667 14.56  16.875 14.56  L 12.5 14.56  L 12.5 19.04  C 12.5 19.3433333333333  12.3763020833333 19.6058333333333  12.12890625 19.8275  C 11.8815104166667 20.0491666666667  11.5885416666667 20.16  11.25 20.16  C 10.9114583333333 20.16  10.6184895833333 20.0491666666667  10.37109375 19.8275  L 0.37109375 10.8675  C 0.123697916666667 10.6458333333333  0 10.3833333333333  0 10.08  C 0 9.77666666666667  0.123697916666667 9.51416666666666  0.37109375 9.2925  L 10.37109375 0.332499999999999  C 10.6184895833333 0.110833333333332  10.9114583333333 0  11.25 0  C 11.5885416666667 0  11.8815104166667 0.110833333333332  12.12890625 0.332499999999999  C 12.3763020833333 0.554166666666663  12.5 0.816666666666664  12.5 1.12  L 12.5 5.6  L 16.875 5.6  C 26.1588541666667 5.6  31.85546875 7.95083333333333  33.96484375 12.6525  Z " fill-rule="nonzero" fill="#ffffff" stroke="none" fill-opacity="0.988235294117647" transform="matrix(1 0 0 1 27 9 )" />
  </g>
</svg>