<?xml version="1.0" encoding="utf-8"?>
<svg version="1.1" xmlns:xlink="http://www.w3.org/1999/xlink" width="27px" height="26px" xmlns="http://www.w3.org/2000/svg">
  <defs>
    <mask fill="white" id="clip7">
      <path d="M 21.9183238636364 11.984375  C 22.0333806818182 12.0951704545455  22.0909090909091 12.2367424242424  22.0909090909091 12.4090909090909  L 22.0909090909091 13.5909090909091  C 22.0909090909091 13.7632575757576  22.0333806818182 13.9048295454545  21.9183238636364 14.015625  C 21.8032670454545 14.1264204545455  21.65625 14.1818181818182  21.4772727272727 14.1818181818182  L 14.7272727272727 14.1818181818182  L 14.7272727272727 20.6818181818182  C 14.7272727272727 20.8541666666667  14.6697443181818 20.9957386363636  14.5546875 21.1065340909091  C 14.4396306818182 21.2173295454545  14.2926136363636 21.2727272727273  14.1136363636364 21.2727272727273  L 12.8863636363636 21.2727272727273  C 12.7073863636364 21.2727272727273  12.5603693181818 21.2173295454545  12.4453125 21.1065340909091  C 12.3302556818182 20.9957386363636  12.2727272727273 20.8541666666667  12.2727272727273 20.6818181818182  L 12.2727272727273 14.1818181818182  L 5.52272727272727 14.1818181818182  C 5.34375 14.1818181818182  5.19673295454546 14.1264204545455  5.08167613636364 14.015625  C 4.96661931818182 13.9048295454545  4.90909090909091 13.7632575757576  4.90909090909091 13.5909090909091  L 4.90909090909091 12.4090909090909  C 4.90909090909091 12.2367424242424  4.96661931818182 12.0951704545455  5.08167613636364 11.984375  C 5.19673295454546 11.8735795454545  5.34375 11.8181818181818  5.52272727272727 11.8181818181818  L 12.2727272727273 11.8181818181818  L 12.2727272727273 5.31818181818182  C 12.2727272727273 5.14583333333333  12.3302556818182 5.00426136363636  12.4453125 4.89346590909091  C 12.5603693181818 4.78267045454546  12.7073863636364 4.72727272727273  12.8863636363636 4.72727272727273  L 14.1136363636364 4.72727272727273  C 14.2926136363636 4.72727272727273  14.4396306818182 4.78267045454546  14.5546875 4.89346590909091  C 14.6697443181818 5.00426136363636  14.7272727272727 5.14583333333333  14.7272727272727 5.31818181818182  L 14.7272727272727 11.8181818181818  L 21.4772727272727 11.8181818181818  C 21.65625 11.8181818181818  21.8032670454545 11.8735795454545  21.9183238636364 11.984375  Z M 23.6441761363636 22.7684659090909  C 24.2450284090909 22.1898674242424  24.5454545454545 21.4943181818182  24.5454545454545 20.6818181818182  L 24.5454545454545 5.31818181818182  C 24.5454545454545 4.50568181818182  24.2450284090909 3.81013257575757  23.6441761363636 3.23153409090909  C 23.0433238636364 2.6529356060606  22.3210227272727 2.36363636363636  21.4772727272727 2.36363636363636  L 5.52272727272727 2.36363636363636  C 4.67897727272727 2.36363636363636  3.95667613636364 2.6529356060606  3.35582386363636 3.23153409090909  C 2.75497159090909 3.81013257575757  2.45454545454545 4.50568181818182  2.45454545454545 5.31818181818182  L 2.45454545454545 20.6818181818182  C 2.45454545454545 21.4943181818182  2.75497159090909 22.1898674242424  3.35582386363636 22.7684659090909  C 3.95667613636364 23.3470643939394  4.67897727272727 23.6363636363636  5.52272727272727 23.6363636363636  L 21.4772727272727 23.6363636363636  C 22.3210227272727 23.6363636363636  23.0433238636364 23.3470643939394  23.6441761363636 22.7684659090909  Z M 25.3796164772727 1.56036931818182  C 26.4598721590909 2.60061553030303  27 3.85321969696969  27 5.31818181818182  L 27 20.6818181818182  C 27 22.1467803030303  26.4598721590909 23.399384469697  25.3796164772727 24.4396306818182  C 24.2993607954545 25.4798768939394  22.9985795454546 26  21.4772727272727 26  L 5.52272727272727 26  C 4.00142045454546 26  2.70063920454546 25.4798768939394  1.62038352272727 24.4396306818182  C 0.540127840909091 23.399384469697  0 22.1467803030303  0 20.6818181818182  L 0 5.31818181818182  C 0 3.85321969696969  0.540127840909091 2.60061553030303  1.62038352272727 1.56036931818182  C 2.70063920454546 0.520123106060604  4.00142045454546 0  5.52272727272727 0  L 21.4772727272727 0  C 22.9985795454546 0  24.2993607954545 0.520123106060604  25.3796164772727 1.56036931818182  Z " fill-rule="evenodd" />
    </mask>
  </defs>
  <g transform="matrix(1 0 0 1 -478 -722 )">
    <path d="M 21.9183238636364 11.984375  C 22.0333806818182 12.0951704545455  22.0909090909091 12.2367424242424  22.0909090909091 12.4090909090909  L 22.0909090909091 13.5909090909091  C 22.0909090909091 13.7632575757576  22.0333806818182 13.9048295454545  21.9183238636364 14.015625  C 21.8032670454545 14.1264204545455  21.65625 14.1818181818182  21.4772727272727 14.1818181818182  L 14.7272727272727 14.1818181818182  L 14.7272727272727 20.6818181818182  C 14.7272727272727 20.8541666666667  14.6697443181818 20.9957386363636  14.5546875 21.1065340909091  C 14.4396306818182 21.2173295454545  14.2926136363636 21.2727272727273  14.1136363636364 21.2727272727273  L 12.8863636363636 21.2727272727273  C 12.7073863636364 21.2727272727273  12.5603693181818 21.2173295454545  12.4453125 21.1065340909091  C 12.3302556818182 20.9957386363636  12.2727272727273 20.8541666666667  12.2727272727273 20.6818181818182  L 12.2727272727273 14.1818181818182  L 5.52272727272727 14.1818181818182  C 5.34375 14.1818181818182  5.19673295454546 14.1264204545455  5.08167613636364 14.015625  C 4.96661931818182 13.9048295454545  4.90909090909091 13.7632575757576  4.90909090909091 13.5909090909091  L 4.90909090909091 12.4090909090909  C 4.90909090909091 12.2367424242424  4.96661931818182 12.0951704545455  5.08167613636364 11.984375  C 5.19673295454546 11.8735795454545  5.34375 11.8181818181818  5.52272727272727 11.8181818181818  L 12.2727272727273 11.8181818181818  L 12.2727272727273 5.31818181818182  C 12.2727272727273 5.14583333333333  12.3302556818182 5.00426136363636  12.4453125 4.89346590909091  C 12.5603693181818 4.78267045454546  12.7073863636364 4.72727272727273  12.8863636363636 4.72727272727273  L 14.1136363636364 4.72727272727273  C 14.2926136363636 4.72727272727273  14.4396306818182 4.78267045454546  14.5546875 4.89346590909091  C 14.6697443181818 5.00426136363636  14.7272727272727 5.14583333333333  14.7272727272727 5.31818181818182  L 14.7272727272727 11.8181818181818  L 21.4772727272727 11.8181818181818  C 21.65625 11.8181818181818  21.8032670454545 11.8735795454545  21.9183238636364 11.984375  Z M 23.6441761363636 22.7684659090909  C 24.2450284090909 22.1898674242424  24.5454545454545 21.4943181818182  24.5454545454545 20.6818181818182  L 24.5454545454545 5.31818181818182  C 24.5454545454545 4.50568181818182  24.2450284090909 3.81013257575757  23.6441761363636 3.23153409090909  C 23.0433238636364 2.6529356060606  22.3210227272727 2.36363636363636  21.4772727272727 2.36363636363636  L 5.52272727272727 2.36363636363636  C 4.67897727272727 2.36363636363636  3.95667613636364 2.6529356060606  3.35582386363636 3.23153409090909  C 2.75497159090909 3.81013257575757  2.45454545454545 4.50568181818182  2.45454545454545 5.31818181818182  L 2.45454545454545 20.6818181818182  C 2.45454545454545 21.4943181818182  2.75497159090909 22.1898674242424  3.35582386363636 22.7684659090909  C 3.95667613636364 23.3470643939394  4.67897727272727 23.6363636363636  5.52272727272727 23.6363636363636  L 21.4772727272727 23.6363636363636  C 22.3210227272727 23.6363636363636  23.0433238636364 23.3470643939394  23.6441761363636 22.7684659090909  Z M 25.3796164772727 1.56036931818182  C 26.4598721590909 2.60061553030303  27 3.85321969696969  27 5.31818181818182  L 27 20.6818181818182  C 27 22.1467803030303  26.4598721590909 23.399384469697  25.3796164772727 24.4396306818182  C 24.2993607954545 25.4798768939394  22.9985795454546 26  21.4772727272727 26  L 5.52272727272727 26  C 4.00142045454546 26  2.70063920454546 25.4798768939394  1.62038352272727 24.4396306818182  C 0.540127840909091 23.399384469697  0 22.1467803030303  0 20.6818181818182  L 0 5.31818181818182  C 0 3.85321969696969  0.540127840909091 2.60061553030303  1.62038352272727 1.56036931818182  C 2.70063920454546 0.520123106060604  4.00142045454546 0  5.52272727272727 0  L 21.4772727272727 0  C 22.9985795454546 0  24.2993607954545 0.520123106060604  25.3796164772727 1.56036931818182  Z " fill-rule="nonzero" fill="#caf982" stroke="none" fill-opacity="0" transform="matrix(1 0 0 1 478 722 )" />
    <path d="M 21.9183238636364 11.984375  C 22.0333806818182 12.0951704545455  22.0909090909091 12.2367424242424  22.0909090909091 12.4090909090909  L 22.0909090909091 13.5909090909091  C 22.0909090909091 13.7632575757576  22.0333806818182 13.9048295454545  21.9183238636364 14.015625  C 21.8032670454545 14.1264204545455  21.65625 14.1818181818182  21.4772727272727 14.1818181818182  L 14.7272727272727 14.1818181818182  L 14.7272727272727 20.6818181818182  C 14.7272727272727 20.8541666666667  14.6697443181818 20.9957386363636  14.5546875 21.1065340909091  C 14.4396306818182 21.2173295454545  14.2926136363636 21.2727272727273  14.1136363636364 21.2727272727273  L 12.8863636363636 21.2727272727273  C 12.7073863636364 21.2727272727273  12.5603693181818 21.2173295454545  12.4453125 21.1065340909091  C 12.3302556818182 20.9957386363636  12.2727272727273 20.8541666666667  12.2727272727273 20.6818181818182  L 12.2727272727273 14.1818181818182  L 5.52272727272727 14.1818181818182  C 5.34375 14.1818181818182  5.19673295454546 14.1264204545455  5.08167613636364 14.015625  C 4.96661931818182 13.9048295454545  4.90909090909091 13.7632575757576  4.90909090909091 13.5909090909091  L 4.90909090909091 12.4090909090909  C 4.90909090909091 12.2367424242424  4.96661931818182 12.0951704545455  5.08167613636364 11.984375  C 5.19673295454546 11.8735795454545  5.34375 11.8181818181818  5.52272727272727 11.8181818181818  L 12.2727272727273 11.8181818181818  L 12.2727272727273 5.31818181818182  C 12.2727272727273 5.14583333333333  12.3302556818182 5.00426136363636  12.4453125 4.89346590909091  C 12.5603693181818 4.78267045454546  12.7073863636364 4.72727272727273  12.8863636363636 4.72727272727273  L 14.1136363636364 4.72727272727273  C 14.2926136363636 4.72727272727273  14.4396306818182 4.78267045454546  14.5546875 4.89346590909091  C 14.6697443181818 5.00426136363636  14.7272727272727 5.14583333333333  14.7272727272727 5.31818181818182  L 14.7272727272727 11.8181818181818  L 21.4772727272727 11.8181818181818  C 21.65625 11.8181818181818  21.8032670454545 11.8735795454545  21.9183238636364 11.984375  Z " stroke-width="6" stroke="#020202" fill="none" transform="matrix(1 0 0 1 478 722 )" mask="url(#clip7)" />
    <path d="M 23.6441761363636 22.7684659090909  C 24.2450284090909 22.1898674242424  24.5454545454545 21.4943181818182  24.5454545454545 20.6818181818182  L 24.5454545454545 5.31818181818182  C 24.5454545454545 4.50568181818182  24.2450284090909 3.81013257575757  23.6441761363636 3.23153409090909  C 23.0433238636364 2.6529356060606  22.3210227272727 2.36363636363636  21.4772727272727 2.36363636363636  L 5.52272727272727 2.36363636363636  C 4.67897727272727 2.36363636363636  3.95667613636364 2.6529356060606  3.35582386363636 3.23153409090909  C 2.75497159090909 3.81013257575757  2.45454545454545 4.50568181818182  2.45454545454545 5.31818181818182  L 2.45454545454545 20.6818181818182  C 2.45454545454545 21.4943181818182  2.75497159090909 22.1898674242424  3.35582386363636 22.7684659090909  C 3.95667613636364 23.3470643939394  4.67897727272727 23.6363636363636  5.52272727272727 23.6363636363636  L 21.4772727272727 23.6363636363636  C 22.3210227272727 23.6363636363636  23.0433238636364 23.3470643939394  23.6441761363636 22.7684659090909  Z " stroke-width="6" stroke="#020202" fill="none" transform="matrix(1 0 0 1 478 722 )" mask="url(#clip7)" />
    <path d="M 25.3796164772727 1.56036931818182  C 26.4598721590909 2.60061553030303  27 3.85321969696969  27 5.31818181818182  L 27 20.6818181818182  C 27 22.1467803030303  26.4598721590909 23.399384469697  25.3796164772727 24.4396306818182  C 24.2993607954545 25.4798768939394  22.9985795454546 26  21.4772727272727 26  L 5.52272727272727 26  C 4.00142045454546 26  2.70063920454546 25.4798768939394  1.62038352272727 24.4396306818182  C 0.540127840909091 23.399384469697  0 22.1467803030303  0 20.6818181818182  L 0 5.31818181818182  C 0 3.85321969696969  0.540127840909091 2.60061553030303  1.62038352272727 1.56036931818182  C 2.70063920454546 0.520123106060604  4.00142045454546 0  5.52272727272727 0  L 21.4772727272727 0  C 22.9985795454546 0  24.2993607954545 0.520123106060604  25.3796164772727 1.56036931818182  Z " stroke-width="6" stroke="#020202" fill="none" transform="matrix(1 0 0 1 478 722 )" mask="url(#clip7)" />
  </g>
</svg>