<?xml version="1.0" encoding="utf-8"?>
<svg version="1.1" xmlns:xlink="http://www.w3.org/1999/xlink" width="35px" height="27px" xmlns="http://www.w3.org/2000/svg">
  <g transform="matrix(1 0 0 1 -149 -10 )">
    <path d="M 34.62890625 8.960625  C 34.8763020833333 9.174375  35 9.4275  35 9.72  C 35 10.0125  34.8763020833333 10.265625  34.62890625 10.479375  L 24.62890625 19.119375  C 24.3815104166667 19.333125  24.0885416666667 19.44  23.75 19.44  C 23.4114583333333 19.44  23.1184895833333 19.333125  22.87109375 19.119375  C 22.6236979166667 18.905625  22.5 18.6525  22.5 18.36  L 22.5 14.04  L 18.125 14.04  C 16.8489583333333 14.04  15.7063802083333 14.07375  14.697265625 14.14125  C 13.6881510416667 14.20875  12.685546875 14.3296875  11.689453125 14.5040625  C 10.693359375 14.6784375  9.82747395833334 14.9175  9.091796875 15.22125  C 8.35611979166667 15.525  7.66927083333333 15.9159375  7.03125 16.3940625  C 6.39322916666667 16.8721875  5.87239583333333 17.4403125  5.46875 18.0984375  C 5.06510416666667 18.7565625  4.74934895833333 19.535625  4.521484375 20.435625  C 4.29361979166667 21.335625  4.1796875 22.35375  4.1796875 23.49  C 4.1796875 24.10875  4.21223958333333 24.800625  4.27734375 25.565625  C 4.27734375 25.633125  4.29361979166667 25.7653125  4.326171875 25.9621875  C 4.35872395833333 26.1590625  4.375 26.308125  4.375 26.409375  C 4.375 26.578125  4.31966145833333 26.71875  4.208984375 26.83125  C 4.09830729166667 26.94375  3.9453125 27  3.75 27  C 3.54166666666667 27  3.359375 26.904375  3.203125 26.713125  C 3.11197916666667 26.611875  3.02734375 26.488125  2.94921875 26.341875  C 2.87109375 26.195625  2.783203125 26.026875  2.685546875 25.835625  C 2.587890625 25.644375  2.51953125 25.509375  2.48046875 25.430625  C 0.826822916666667 22.224375  0 19.6875  0 17.82  C 0 15.58125  0.345052083333333 13.708125  1.03515625 12.200625  C 3.14453125 7.666875  8.84114583333333 5.4  18.125 5.4  L 22.5 5.4  L 22.5 1.08  C 22.5 0.787499999999997  22.6236979166667 0.534374999999997  22.87109375 0.320624999999999  C 23.1184895833333 0.106874999999999  23.4114583333333 0  23.75 0  C 24.0885416666667 0  24.3815104166667 0.106874999999999  24.62890625 0.320624999999999  L 34.62890625 8.960625  Z " fill-rule="nonzero" fill="#ffffff" stroke="none" fill-opacity="0.996078431372549" transform="matrix(1 0 0 1 149 10 )" />
  </g>
</svg>