<?xml version="1.0" encoding="utf-8"?>
<svg version="1.1" xmlns:xlink="http://www.w3.org/1999/xlink" width="37px" height="33px" xmlns="http://www.w3.org/2000/svg">
  <defs>
    <mask fill="white" id="clip112">
      <path d="M 30.0362215909091 15.2109375  C 30.1938920454545 15.3515625  30.2727272727273 15.53125  30.2727272727273 15.75  L 30.2727272727273 17.25  C 30.2727272727273 17.46875  30.1938920454545 17.6484375  30.0362215909091 17.7890625  C 29.8785511363636 17.9296875  29.6770833333333 18  29.4318181818182 18  L 20.1818181818182 18  L 20.1818181818182 26.25  C 20.1818181818182 26.46875  20.1029829545455 26.6484375  19.9453125 26.7890625  C 19.7876420454545 26.9296875  19.5861742424242 27  19.3409090909091 27  L 17.6590909090909 27  C 17.4138257575758 27  17.2123579545455 26.9296875  17.0546875 26.7890625  C 16.8970170454545 26.6484375  16.8181818181818 26.46875  16.8181818181818 26.25  L 16.8181818181818 18  L 7.56818181818182 18  C 7.32291666666667 18  7.12144886363636 17.9296875  6.96377840909091 17.7890625  C 6.80610795454546 17.6484375  6.72727272727273 17.46875  6.72727272727273 17.25  L 6.72727272727273 15.75  C 6.72727272727273 15.53125  6.80610795454546 15.3515625  6.96377840909091 15.2109375  C 7.12144886363636 15.0703125  7.32291666666667 15  7.56818181818182 15  L 16.8181818181818 15  L 16.8181818181818 6.75  C 16.8181818181818 6.53124999999999  16.8970170454545 6.3515625  17.0546875 6.2109375  C 17.2123579545455 6.0703125  17.4138257575758 6  17.6590909090909 6  L 19.3409090909091 6  C 19.5861742424242 6  19.7876420454545 6.0703125  19.9453125 6.2109375  C 20.1029829545455 6.3515625  20.1818181818182 6.53124999999999  20.1818181818182 6.75  L 20.1818181818182 15  L 29.4318181818182 15  C 29.6770833333333 15  29.8785511363636 15.0703125  30.0362215909091 15.2109375  Z M 32.4012784090909 28.8984375  C 33.2246685606061 28.1640625  33.6363636363636 27.28125  33 26.25  L 33 6.75  C 33.6363636363636 5.71875  33.2246685606061 4.8359375  32.4012784090909 4.1015625  C 31.5778882575758 3.3671875  30.5880681818182 3  29.4318181818182 3  L 7.56818181818182 3  C 6.41193181818182 3  5.42211174242424 3.3671875  4.59872159090909 4.1015625  C 3.77533143939394 4.8359375  3.36363636363636 5.71875  4 6.75  L 4 26.25  C 3.36363636363636 27.28125  3.77533143939394 28.1640625  4.59872159090909 28.8984375  C 5.42211174242424 29.6328125  6.41193181818182 30  7.56818181818182 30  L 29.4318181818182 30  C 30.5880681818182 30  31.5778882575758 29.6328125  32.4012784090909 28.8984375  Z M 34.7794744318182 1.98046875  C 36.2598248106061 3.30078125  37 4.890625  37 6.75  L 37 26.25  C 37 28.109375  36.2598248106061 29.69921875  34.7794744318182 31.01953125  C 33.2991240530303 32.33984375  31.516571969697 33  29.4318181818182 33  L 7.56818181818182 33  C 5.48342803030303 33  3.7008759469697 32.33984375  2.22052556818182 31.01953125  C 0.740175189393939 29.69921875  0 28.109375  0 26.25  L 0 6.75  C 0 4.890625  0.740175189393939 3.30078125  2.22052556818182 1.98046875  C 3.7008759469697 0.660156249999997  5.48342803030303 0  7.56818181818182 0  L 29.4318181818182 0  C 31.516571969697 0  33.2991240530303 0.660156249999997  34.7794744318182 1.98046875  Z " fill-rule="evenodd" />
    </mask>
  </defs>
  <g transform="matrix(1 0 0 1 -1012 -760 )">
    <path d="M 30.0362215909091 15.2109375  C 30.1938920454545 15.3515625  30.2727272727273 15.53125  30.2727272727273 15.75  L 30.2727272727273 17.25  C 30.2727272727273 17.46875  30.1938920454545 17.6484375  30.0362215909091 17.7890625  C 29.8785511363636 17.9296875  29.6770833333333 18  29.4318181818182 18  L 20.1818181818182 18  L 20.1818181818182 26.25  C 20.1818181818182 26.46875  20.1029829545455 26.6484375  19.9453125 26.7890625  C 19.7876420454545 26.9296875  19.5861742424242 27  19.3409090909091 27  L 17.6590909090909 27  C 17.4138257575758 27  17.2123579545455 26.9296875  17.0546875 26.7890625  C 16.8970170454545 26.6484375  16.8181818181818 26.46875  16.8181818181818 26.25  L 16.8181818181818 18  L 7.56818181818182 18  C 7.32291666666667 18  7.12144886363636 17.9296875  6.96377840909091 17.7890625  C 6.80610795454546 17.6484375  6.72727272727273 17.46875  6.72727272727273 17.25  L 6.72727272727273 15.75  C 6.72727272727273 15.53125  6.80610795454546 15.3515625  6.96377840909091 15.2109375  C 7.12144886363636 15.0703125  7.32291666666667 15  7.56818181818182 15  L 16.8181818181818 15  L 16.8181818181818 6.75  C 16.8181818181818 6.53124999999999  16.8970170454545 6.3515625  17.0546875 6.2109375  C 17.2123579545455 6.0703125  17.4138257575758 6  17.6590909090909 6  L 19.3409090909091 6  C 19.5861742424242 6  19.7876420454545 6.0703125  19.9453125 6.2109375  C 20.1029829545455 6.3515625  20.1818181818182 6.53124999999999  20.1818181818182 6.75  L 20.1818181818182 15  L 29.4318181818182 15  C 29.6770833333333 15  29.8785511363636 15.0703125  30.0362215909091 15.2109375  Z M 32.4012784090909 28.8984375  C 33.2246685606061 28.1640625  33.6363636363636 27.28125  33 26.25  L 33 6.75  C 33.6363636363636 5.71875  33.2246685606061 4.8359375  32.4012784090909 4.1015625  C 31.5778882575758 3.3671875  30.5880681818182 3  29.4318181818182 3  L 7.56818181818182 3  C 6.41193181818182 3  5.42211174242424 3.3671875  4.59872159090909 4.1015625  C 3.77533143939394 4.8359375  3.36363636363636 5.71875  4 6.75  L 4 26.25  C 3.36363636363636 27.28125  3.77533143939394 28.1640625  4.59872159090909 28.8984375  C 5.42211174242424 29.6328125  6.41193181818182 30  7.56818181818182 30  L 29.4318181818182 30  C 30.5880681818182 30  31.5778882575758 29.6328125  32.4012784090909 28.8984375  Z M 34.7794744318182 1.98046875  C 36.2598248106061 3.30078125  37 4.890625  37 6.75  L 37 26.25  C 37 28.109375  36.2598248106061 29.69921875  34.7794744318182 31.01953125  C 33.2991240530303 32.33984375  31.516571969697 33  29.4318181818182 33  L 7.56818181818182 33  C 5.48342803030303 33  3.7008759469697 32.33984375  2.22052556818182 31.01953125  C 0.740175189393939 29.69921875  0 28.109375  0 26.25  L 0 6.75  C 0 4.890625  0.740175189393939 3.30078125  2.22052556818182 1.98046875  C 3.7008759469697 0.660156249999997  5.48342803030303 0  7.56818181818182 0  L 29.4318181818182 0  C 31.516571969697 0  33.2991240530303 0.660156249999997  34.7794744318182 1.98046875  Z " fill-rule="nonzero" fill="#caf982" stroke="none" fill-opacity="0" transform="matrix(1 0 0 1 1012 760 )" />
    <path d="M 30.0362215909091 15.2109375  C 30.1938920454545 15.3515625  30.2727272727273 15.53125  30.2727272727273 15.75  L 30.2727272727273 17.25  C 30.2727272727273 17.46875  30.1938920454545 17.6484375  30.0362215909091 17.7890625  C 29.8785511363636 17.9296875  29.6770833333333 18  29.4318181818182 18  L 20.1818181818182 18  L 20.1818181818182 26.25  C 20.1818181818182 26.46875  20.1029829545455 26.6484375  19.9453125 26.7890625  C 19.7876420454545 26.9296875  19.5861742424242 27  19.3409090909091 27  L 17.6590909090909 27  C 17.4138257575758 27  17.2123579545455 26.9296875  17.0546875 26.7890625  C 16.8970170454545 26.6484375  16.8181818181818 26.46875  16.8181818181818 26.25  L 16.8181818181818 18  L 7.56818181818182 18  C 7.32291666666667 18  7.12144886363636 17.9296875  6.96377840909091 17.7890625  C 6.80610795454546 17.6484375  6.72727272727273 17.46875  6.72727272727273 17.25  L 6.72727272727273 15.75  C 6.72727272727273 15.53125  6.80610795454546 15.3515625  6.96377840909091 15.2109375  C 7.12144886363636 15.0703125  7.32291666666667 15  7.56818181818182 15  L 16.8181818181818 15  L 16.8181818181818 6.75  C 16.8181818181818 6.53124999999999  16.8970170454545 6.3515625  17.0546875 6.2109375  C 17.2123579545455 6.0703125  17.4138257575758 6  17.6590909090909 6  L 19.3409090909091 6  C 19.5861742424242 6  19.7876420454545 6.0703125  19.9453125 6.2109375  C 20.1029829545455 6.3515625  20.1818181818182 6.53124999999999  20.1818181818182 6.75  L 20.1818181818182 15  L 29.4318181818182 15  C 29.6770833333333 15  29.8785511363636 15.0703125  30.0362215909091 15.2109375  Z " stroke-width="6" stroke="#020202" fill="none" transform="matrix(1 0 0 1 1012 760 )" mask="url(#clip112)" />
    <path d="M 32.4012784090909 28.8984375  C 33.2246685606061 28.1640625  33.6363636363636 27.28125  33 26.25  L 33 6.75  C 33.6363636363636 5.71875  33.2246685606061 4.8359375  32.4012784090909 4.1015625  C 31.5778882575758 3.3671875  30.5880681818182 3  29.4318181818182 3  L 7.56818181818182 3  C 6.41193181818182 3  5.42211174242424 3.3671875  4.59872159090909 4.1015625  C 3.77533143939394 4.8359375  3.36363636363636 5.71875  4 6.75  L 4 26.25  C 3.36363636363636 27.28125  3.77533143939394 28.1640625  4.59872159090909 28.8984375  C 5.42211174242424 29.6328125  6.41193181818182 30  7.56818181818182 30  L 29.4318181818182 30  C 30.5880681818182 30  31.5778882575758 29.6328125  32.4012784090909 28.8984375  Z " stroke-width="6" stroke="#020202" fill="none" transform="matrix(1 0 0 1 1012 760 )" mask="url(#clip112)" />
    <path d="M 34.7794744318182 1.98046875  C 36.2598248106061 3.30078125  37 4.890625  37 6.75  L 37 26.25  C 37 28.109375  36.2598248106061 29.69921875  34.7794744318182 31.01953125  C 33.2991240530303 32.33984375  31.516571969697 33  29.4318181818182 33  L 7.56818181818182 33  C 5.48342803030303 33  3.7008759469697 32.33984375  2.22052556818182 31.01953125  C 0.740175189393939 29.69921875  0 28.109375  0 26.25  L 0 6.75  C 0 4.890625  0.740175189393939 3.30078125  2.22052556818182 1.98046875  C 3.7008759469697 0.660156249999997  5.48342803030303 0  7.56818181818182 0  L 29.4318181818182 0  C 31.516571969697 0  33.2991240530303 0.660156249999997  34.7794744318182 1.98046875  Z " stroke-width="6" stroke="#020202" fill="none" transform="matrix(1 0 0 1 1012 760 )" mask="url(#clip112)" />
  </g>
</svg>