<?xml version="1.0" encoding="utf-8"?>
<svg version="1.1" xmlns:xlink="http://www.w3.org/1999/xlink" width="282px" height="85px" xmlns="http://www.w3.org/2000/svg">
  <g transform="matrix(1 0 0 1 -1297 -728 )">
    <path d="M 1302 755  A 22 22 0 0 1 1324 733 L 1552 733  A 22 22 0 0 1 1574 755 L 1574 786  A 22 22 0 0 1 1552 808 L 1324 808  A 22 22 0 0 1 1302 786 L 1302 755  Z " fill-rule="nonzero" fill="#caf982" stroke="none" fill-opacity="0.364705882352941" />
    <path d="M 1299.5 755  A 24.5 24.5 0 0 1 1324 730.5 L 1552 730.5  A 24.5 24.5 0 0 1 1576.5 755 L 1576.5 786  A 24.5 24.5 0 0 1 1552 810.5 L 1324 810.5  A 24.5 24.5 0 0 1 1299.5 786 L 1299.5 755  Z " stroke-width="5" stroke="#7f7f7f" fill="none" stroke-opacity="0.996078431372549" />
  </g>
</svg>