<?xml version="1.0" encoding="utf-8"?>
<svg version="1.1" xmlns:xlink="http://www.w3.org/1999/xlink" width="414px" height="115px" xmlns="http://www.w3.org/2000/svg">
  <g transform="matrix(1 0 0 1 -363 -698 )">
    <path d="M 368 725  A 22 22 0 0 1 390 703 L 750 703  A 22 22 0 0 1 772 725 L 772 786  A 22 22 0 0 1 750 808 L 390 808  A 22 22 0 0 1 368 786 L 368 725  Z " fill-rule="nonzero" fill="#caf982" stroke="none" fill-opacity="0.776470588235294" />
    <path d="M 365.5 725  A 24.5 24.5 0 0 1 390 700.5 L 750 700.5  A 24.5 24.5 0 0 1 774.5 725 L 774.5 786  A 24.5 24.5 0 0 1 750 810.5 L 390 810.5  A 24.5 24.5 0 0 1 365.5 786 L 365.5 725  Z " stroke-width="5" stroke="#000000" fill="none" stroke-opacity="0.996078431372549" />
  </g>
</svg>