<?xml version="1.0" encoding="utf-8"?>
<svg version="1.1" xmlns:xlink="http://www.w3.org/1999/xlink" width="41px" height="44px" xmlns="http://www.w3.org/2000/svg">
  <g transform="matrix(1 0 0 1 -1473 -747 )">
    <path d="M 31.7643229166667 18.3333333333333  C 31.7643229166667 18.8298611111111  31.5952690972222 19.2595486111111  31.2571614583333 19.6223958333333  L 19.9928385416667 31.7109375  C 19.6547309027778 32.0737847222222  19.2543402777778 32.2552083333333  18.7916666666667 32.2552083333333  C 18.3289930555556 32.2552083333333  17.9286024305556 32.0737847222222  17.5904947916667 31.7109375  L 9.74283854166667 23.2890625  C 9.40473090277778 22.9262152777778  9.23567708333333 22.4965277777778  9.23567708333333 22  C 9.23567708333333 21.5034722222222  9.40473090277778 21.0737847222222  9.74283854166667 20.7109375  L 12.4654947916667 17.7890625  C 12.8036024305556 17.4262152777778  13.2039930555556 17.2447916666667  13.6666666666667 17.2447916666667  C 14.1293402777778 17.2447916666667  14.5297309027778 17.4262152777778  14.8678385416667 17.7890625  L 18.7916666666667 22  L 26.1321614583333 14.1223958333333  C 26.4702690972222 13.7595486111111  26.8706597222222 13.578125  27.3333333333333 13.578125  C 27.7960069444444 13.578125  28.1963975694444 13.7595486111111  28.5345052083333 14.1223958333333  L 31.2571614583333 17.0442708333333  C 31.5952690972222 17.4071180555556  31.7643229166667 17.8368055555556  31.7643229166667 18.3333333333333  Z M 33.072265625 29.8203125  C 34.3713107638889 27.4331597222222  35.0208333333333 24.8263888888889  35.0208333333333 22  C 35.0208333333333 19.1736111111111  34.3713107638889 16.5668402777778  33.072265625 14.1796875  C 31.7732204861111 11.7925347222222  30.0115017361111 9.90190972222222  27.787109375 8.5078125  C 25.5627170138889 7.11371527777778  23.1336805555556 6.41666666666667  20.5 6.41666666666667  C 17.8663194444444 6.41666666666667  15.4372829861111 7.11371527777778  13.212890625 8.5078125  C 10.9884982638889 9.90190972222222  9.22677951388889 11.7925347222222  7.927734375 14.1796875  C 6.62868923611111 16.5668402777778  5.97916666666667 19.1736111111111  5.97916666666667 22  C 5.97916666666667 24.8263888888889  6.62868923611111 27.4331597222222  7.927734375 29.8203125  C 9.22677951388889 32.2074652777778  10.9884982638889 34.0980902777778  13.212890625 35.4921875  C 15.4372829861111 36.8862847222222  17.8663194444444 37.5833333333333  20.5 37.5833333333333  C 23.1336805555556 37.5833333333333  25.5627170138889 36.8862847222222  27.787109375 35.4921875  C 30.0115017361111 34.0980902777778  31.7732204861111 32.2074652777778  33.072265625 29.8203125  Z M 38.2506510416667 10.95703125  C 40.0835503472222 14.3276909722222  41 18.0086805555556  41 22  C 41 25.9913194444444  40.0835503472222 29.6723090277778  38.2506510416667 33.04296875  C 36.4177517361111 36.4136284722222  33.9308810763889 39.0824652777778  30.7900390625 41.0494791666667  C 27.6491970486111 43.0164930555556  24.2191840277778 44  20.5 44  C 16.7808159722222 44  13.3508029513889 43.0164930555556  10.2099609375 41.0494791666667  C 7.06911892361111 39.0824652777778  4.58224826388889 36.4136284722222  2.74934895833333 33.04296875  C 0.916449652777778 29.6723090277778  0 25.9913194444444  0 22  C 0 18.0086805555556  0.916449652777778 14.3276909722222  2.74934895833333 10.95703125  C 4.58224826388889 7.58637152777778  7.06911892361111 4.91753472222222  10.2099609375 2.95052083333333  C 13.3508029513889 0.983506944444441  16.7808159722222 0  20.5 0  C 24.2191840277778 0  27.6491970486111 0.983506944444441  30.7900390625 2.95052083333333  C 33.9308810763889 4.91753472222222  36.4177517361111 7.58637152777778  38.2506510416667 10.95703125  Z " fill-rule="nonzero" fill="#000000" stroke="none" fill-opacity="0.364705882352941" transform="matrix(1 0 0 1 1473 747 )" />
  </g>
</svg>