<?xml version="1.0" encoding="utf-8"?>
<svg version="1.1" xmlns:xlink="http://www.w3.org/1999/xlink" width="60px" height="60px" xmlns="http://www.w3.org/2000/svg">
  <g transform="matrix(1 0 0 1 -667 -726 )">
    <path d="M 46.484375 25  C 46.484375 25.6770833333333  46.2369791666667 26.2630208333333  45.7421875 26.7578125  L 29.2578125 43.2421875  C 28.7630208333333 43.7369791666667  28.1770833333333 43.984375  27.5 43.984375  C 26.8229166666667 43.984375  26.2369791666667 43.7369791666667  25.7421875 43.2421875  L 14.2578125 31.7578125  C 13.7630208333333 31.2630208333333  13.515625 30.6770833333333  13.515625 30  C 13.515625 29.3229166666667  13.7630208333333 28.7369791666667  14.2578125 28.2421875  L 18.2421875 24.2578125  C 18.7369791666667 23.7630208333333  19.3229166666667 23.515625  20 23.515625  C 20.6770833333333 23.515625  21.2630208333333 23.7630208333333  21.7578125 24.2578125  L 27.5 30  L 38.2421875 19.2578125  C 38.7369791666667 18.7630208333333  39.3229166666667 18.515625  40 18.515625  C 40.6770833333333 18.515625  41.2630208333333 18.7630208333333  41.7578125 19.2578125  L 45.7421875 23.2421875  C 46.2369791666667 23.7369791666667  46.484375 24.3229166666667  46.484375 25  Z M 48.3984375 40.6640625  C 50.2994791666667 37.4088541666667  51.25 33.8541666666667  51.25 30  C 51.25 26.1458333333333  50.2994791666667 22.5911458333333  48.3984375 19.3359375  C 46.4973958333333 16.0807291666667  43.9192708333333 13.5026041666667  40.6640625 11.6015625  C 37.4088541666667 9.70052083333333  33.8541666666667 8.75  30 8.75  C 26.1458333333333 8.75  22.5911458333333 9.70052083333333  19.3359375 11.6015625  C 16.0807291666667 13.5026041666667  13.5026041666667 16.0807291666667  11.6015625 19.3359375  C 9.70052083333333 22.5911458333333  8.75 26.1458333333333  8.75 30  C 8.75 33.8541666666667  9.70052083333333 37.4088541666667  11.6015625 40.6640625  C 13.5026041666667 43.9192708333333  16.0807291666667 46.4973958333333  19.3359375 48.3984375  C 22.5911458333333 50.2994791666667  26.1458333333333 51.25  30 51.25  C 33.8541666666667 51.25  37.4088541666667 50.2994791666667  40.6640625 48.3984375  C 43.9192708333333 46.4973958333333  46.4973958333333 43.9192708333333  48.3984375 40.6640625  Z M 55.9765625 14.94140625  C 58.6588541666667 19.5377604166667  60 24.5572916666667  60 30  C 60 35.4427083333333  58.6588541666667 40.4622395833333  55.9765625 45.05859375  C 53.2942708333333 49.6549479166667  49.6549479166667 53.2942708333333  45.05859375 55.9765625  C 40.4622395833333 58.6588541666667  35.4427083333333 60  30 60  C 24.5572916666667 60  19.5377604166667 58.6588541666667  14.94140625 55.9765625  C 10.3450520833333 53.2942708333333  6.70572916666667 49.6549479166667  4.0234375 45.05859375  C 1.34114583333333 40.4622395833333  0 35.4427083333333  0 30  C 0 24.5572916666667  1.34114583333333 19.5377604166667  4.0234375 14.94140625  C 6.70572916666667 10.3450520833333  10.3450520833333 6.70572916666666  14.94140625 4.0234375  C 19.5377604166667 1.34114583333333  24.5572916666667 0  30 0  C 35.4427083333333 0  40.4622395833333 1.34114583333333  45.05859375 4.0234375  C 49.6549479166667 6.70572916666666  53.2942708333333 10.3450520833333  55.9765625 14.94140625  Z " fill-rule="nonzero" fill="#000000" stroke="none" transform="matrix(1 0 0 1 667 726 )" />
  </g>
</svg>