<?xml version="1.0" encoding="utf-8"?>
<svg version="1.1" xmlns:xlink="http://www.w3.org/1999/xlink" width="50px" height="49px" xmlns="http://www.w3.org/2000/svg">
  <defs>
    <mask fill="white" id="clip11">
      <path d="M 38.7369791666667 20.4166666666667  C 38.7369791666667 20.9696180555556  38.5308159722222 21.4481336805556  38.1184895833333 21.8522135416667  L 24.3815104166667 35.314453125  C 23.9691840277778 35.7185329861111  23.4809027777778 35.9205729166667  22.9166666666667 35.9205729166667  C 22.3524305555556 35.9205729166667  21.8641493055556 35.7185329861111  21.4518229166667 35.314453125  L 11.8815104166667 25.935546875  C 11.4691840277778 25.5314670138889  11.2630208333333 25.0529513888889  11.2630208333333 24.5  C 11.2630208333333 23.9470486111111  11.4691840277778 23.4685329861111  11.8815104166667 23.064453125  L 15.2018229166667 19.810546875  C 15.6141493055556 19.4064670138889  16.1024305555556 19.2044270833333  16.6666666666667 19.2044270833333  C 17.2309027777778 19.2044270833333  17.7191840277778 19.4064670138889  18.1315104166667 19.810546875  L 22.9166666666667 24.5  L 31.8684895833333 15.7272135416667  C 32.2808159722222 15.3231336805556  32.7690972222222 15.12109375  33.3333333333333 15.12109375  C 33.8975694444445 15.12109375  34.3858506944445 15.3231336805556  34.7981770833333 15.7272135416667  L 38.1184895833333 18.9811197916667  C 38.5308159722222 19.3851996527778  38.7369791666667 19.8637152777778  38.7369791666667 20.4166666666667  Z M 40.33203125 33.208984375  C 41.9162326388889 30.5505642361111  42.7083333333333 27.6475694444444  42.7083333333333 24.5  C 42.7083333333333 21.3524305555556  41.9162326388889 18.4494357638889  40.33203125 15.791015625  C 38.7478298611111 13.1325954861111  36.5993923611111 11.0271267361111  33.88671875 9.474609375  C 31.1740451388889 7.92209201388889  28.2118055555556 7.14583333333333  25 7.14583333333333  C 21.7881944444444 7.14583333333333  18.8259548611111 7.92209201388889  16.11328125 9.474609375  C 13.4006076388889 11.0271267361111  11.2521701388889 13.1325954861111  9.66796875 15.791015625  C 8.08376736111111 18.4494357638889  7.29166666666667 21.3524305555556  7.29166666666667 24.5  C 7.29166666666667 27.6475694444444  8.08376736111111 30.5505642361111  9.66796875 33.208984375  C 11.2521701388889 35.8674045138889  13.4006076388889 37.9728732638889  16.11328125 39.525390625  C 18.8259548611111 41.0779079861111  21.7881944444444 41.8541666666667  25 41.8541666666667  C 28.2118055555556 41.8541666666667  31.1740451388889 41.0779079861111  33.88671875 39.525390625  C 36.5993923611111 37.9728732638889  38.7478298611111 35.8674045138889  40.33203125 33.208984375  Z M 46.6471354166667 12.2021484375  C 48.8823784722222 15.9558376736111  50 20.0551215277778  50 24.5  C 50 28.9448784722222  48.8823784722222 33.0441623263889  46.6471354166667 36.7978515625  C 44.4118923611111 40.5515407986111  41.3791232638889 43.5236545138889  37.548828125 45.7141927083333  C 33.7185329861111 47.9047309027778  29.5355902777778 49  25 49  C 20.4644097222222 49  16.2814670138889 47.9047309027778  12.451171875 45.7141927083333  C 8.62087673611111 43.5236545138889  5.58810763888889 40.5515407986111  3.35286458333333 36.7978515625  C 1.11762152777778 33.0441623263889  0 28.9448784722222  0 24.5  C 0 20.0551215277778  1.11762152777778 15.9558376736111  3.35286458333333 12.2021484375  C 5.58810763888889 8.44845920138889  8.62087673611111 5.47634548611111  12.451171875 3.28580729166666  C 16.2814670138889 1.09526909722222  20.4644097222222 0  25 0  C 29.5355902777778 0  33.7185329861111 1.09526909722222  37.548828125 3.28580729166666  C 41.3791232638889 5.47634548611111  44.4118923611111 8.44845920138889  46.6471354166667 12.2021484375  Z " fill-rule="evenodd" />
    </mask>
  </defs>
  <g transform="matrix(1 0 0 1 -618 -782 )">
    <path d="M 38.7369791666667 20.4166666666667  C 38.7369791666667 20.9696180555556  38.5308159722222 21.4481336805556  38.1184895833333 21.8522135416667  L 24.3815104166667 35.314453125  C 23.9691840277778 35.7185329861111  23.4809027777778 35.9205729166667  22.9166666666667 35.9205729166667  C 22.3524305555556 35.9205729166667  21.8641493055556 35.7185329861111  21.4518229166667 35.314453125  L 11.8815104166667 25.935546875  C 11.4691840277778 25.5314670138889  11.2630208333333 25.0529513888889  11.2630208333333 24.5  C 11.2630208333333 23.9470486111111  11.4691840277778 23.4685329861111  11.8815104166667 23.064453125  L 15.2018229166667 19.810546875  C 15.6141493055556 19.4064670138889  16.1024305555556 19.2044270833333  16.6666666666667 19.2044270833333  C 17.2309027777778 19.2044270833333  17.7191840277778 19.4064670138889  18.1315104166667 19.810546875  L 22.9166666666667 24.5  L 31.8684895833333 15.7272135416667  C 32.2808159722222 15.3231336805556  32.7690972222222 15.12109375  33.3333333333333 15.12109375  C 33.8975694444445 15.12109375  34.3858506944445 15.3231336805556  34.7981770833333 15.7272135416667  L 38.1184895833333 18.9811197916667  C 38.5308159722222 19.3851996527778  38.7369791666667 19.8637152777778  38.7369791666667 20.4166666666667  Z M 40.33203125 33.208984375  C 41.9162326388889 30.5505642361111  42.7083333333333 27.6475694444444  42.7083333333333 24.5  C 42.7083333333333 21.3524305555556  41.9162326388889 18.4494357638889  40.33203125 15.791015625  C 38.7478298611111 13.1325954861111  36.5993923611111 11.0271267361111  33.88671875 9.474609375  C 31.1740451388889 7.92209201388889  28.2118055555556 7.14583333333333  25 7.14583333333333  C 21.7881944444444 7.14583333333333  18.8259548611111 7.92209201388889  16.11328125 9.474609375  C 13.4006076388889 11.0271267361111  11.2521701388889 13.1325954861111  9.66796875 15.791015625  C 8.08376736111111 18.4494357638889  7.29166666666667 21.3524305555556  7.29166666666667 24.5  C 7.29166666666667 27.6475694444444  8.08376736111111 30.5505642361111  9.66796875 33.208984375  C 11.2521701388889 35.8674045138889  13.4006076388889 37.9728732638889  16.11328125 39.525390625  C 18.8259548611111 41.0779079861111  21.7881944444444 41.8541666666667  25 41.8541666666667  C 28.2118055555556 41.8541666666667  31.1740451388889 41.0779079861111  33.88671875 39.525390625  C 36.5993923611111 37.9728732638889  38.7478298611111 35.8674045138889  40.33203125 33.208984375  Z M 46.6471354166667 12.2021484375  C 48.8823784722222 15.9558376736111  50 20.0551215277778  50 24.5  C 50 28.9448784722222  48.8823784722222 33.0441623263889  46.6471354166667 36.7978515625  C 44.4118923611111 40.5515407986111  41.3791232638889 43.5236545138889  37.548828125 45.7141927083333  C 33.7185329861111 47.9047309027778  29.5355902777778 49  25 49  C 20.4644097222222 49  16.2814670138889 47.9047309027778  12.451171875 45.7141927083333  C 8.62087673611111 43.5236545138889  5.58810763888889 40.5515407986111  3.35286458333333 36.7978515625  C 1.11762152777778 33.0441623263889  0 28.9448784722222  0 24.5  C 0 20.0551215277778  1.11762152777778 15.9558376736111  3.35286458333333 12.2021484375  C 5.58810763888889 8.44845920138889  8.62087673611111 5.47634548611111  12.451171875 3.28580729166666  C 16.2814670138889 1.09526909722222  20.4644097222222 0  25 0  C 29.5355902777778 0  33.7185329861111 1.09526909722222  37.548828125 3.28580729166666  C 41.3791232638889 5.47634548611111  44.4118923611111 8.44845920138889  46.6471354166667 12.2021484375  Z " fill-rule="nonzero" fill="#020202" stroke="none" transform="matrix(1 0 0 1 618 782 )" />
    <path d="M 38.7369791666667 20.4166666666667  C 38.7369791666667 20.9696180555556  38.5308159722222 21.4481336805556  38.1184895833333 21.8522135416667  L 24.3815104166667 35.314453125  C 23.9691840277778 35.7185329861111  23.4809027777778 35.9205729166667  22.9166666666667 35.9205729166667  C 22.3524305555556 35.9205729166667  21.8641493055556 35.7185329861111  21.4518229166667 35.314453125  L 11.8815104166667 25.935546875  C 11.4691840277778 25.5314670138889  11.2630208333333 25.0529513888889  11.2630208333333 24.5  C 11.2630208333333 23.9470486111111  11.4691840277778 23.4685329861111  11.8815104166667 23.064453125  L 15.2018229166667 19.810546875  C 15.6141493055556 19.4064670138889  16.1024305555556 19.2044270833333  16.6666666666667 19.2044270833333  C 17.2309027777778 19.2044270833333  17.7191840277778 19.4064670138889  18.1315104166667 19.810546875  L 22.9166666666667 24.5  L 31.8684895833333 15.7272135416667  C 32.2808159722222 15.3231336805556  32.7690972222222 15.12109375  33.3333333333333 15.12109375  C 33.8975694444445 15.12109375  34.3858506944445 15.3231336805556  34.7981770833333 15.7272135416667  L 38.1184895833333 18.9811197916667  C 38.5308159722222 19.3851996527778  38.7369791666667 19.8637152777778  38.7369791666667 20.4166666666667  Z " stroke-width="6" stroke="#020202" fill="none" transform="matrix(1 0 0 1 618 782 )" mask="url(#clip11)" />
    <path d="M 40.33203125 33.208984375  C 41.9162326388889 30.5505642361111  42.7083333333333 27.6475694444444  42.7083333333333 24.5  C 42.7083333333333 21.3524305555556  41.9162326388889 18.4494357638889  40.33203125 15.791015625  C 38.7478298611111 13.1325954861111  36.5993923611111 11.0271267361111  33.88671875 9.474609375  C 31.1740451388889 7.92209201388889  28.2118055555556 7.14583333333333  25 7.14583333333333  C 21.7881944444444 7.14583333333333  18.8259548611111 7.92209201388889  16.11328125 9.474609375  C 13.4006076388889 11.0271267361111  11.2521701388889 13.1325954861111  9.66796875 15.791015625  C 8.08376736111111 18.4494357638889  7.29166666666667 21.3524305555556  7.29166666666667 24.5  C 7.29166666666667 27.6475694444444  8.08376736111111 30.5505642361111  9.66796875 33.208984375  C 11.2521701388889 35.8674045138889  13.4006076388889 37.9728732638889  16.11328125 39.525390625  C 18.8259548611111 41.0779079861111  21.7881944444444 41.8541666666667  25 41.8541666666667  C 28.2118055555556 41.8541666666667  31.1740451388889 41.0779079861111  33.88671875 39.525390625  C 36.5993923611111 37.9728732638889  38.7478298611111 35.8674045138889  40.33203125 33.208984375  Z " stroke-width="6" stroke="#020202" fill="none" transform="matrix(1 0 0 1 618 782 )" mask="url(#clip11)" />
    <path d="M 46.6471354166667 12.2021484375  C 48.8823784722222 15.9558376736111  50 20.0551215277778  50 24.5  C 50 28.9448784722222  48.8823784722222 33.0441623263889  46.6471354166667 36.7978515625  C 44.4118923611111 40.5515407986111  41.3791232638889 43.5236545138889  37.548828125 45.7141927083333  C 33.7185329861111 47.9047309027778  29.5355902777778 49  25 49  C 20.4644097222222 49  16.2814670138889 47.9047309027778  12.451171875 45.7141927083333  C 8.62087673611111 43.5236545138889  5.58810763888889 40.5515407986111  3.35286458333333 36.7978515625  C 1.11762152777778 33.0441623263889  0 28.9448784722222  0 24.5  C 0 20.0551215277778  1.11762152777778 15.9558376736111  3.35286458333333 12.2021484375  C 5.58810763888889 8.44845920138889  8.62087673611111 5.47634548611111  12.451171875 3.28580729166666  C 16.2814670138889 1.09526909722222  20.4644097222222 0  25 0  C 29.5355902777778 0  33.7185329861111 1.09526909722222  37.548828125 3.28580729166666  C 41.3791232638889 5.47634548611111  44.4118923611111 8.44845920138889  46.6471354166667 12.2021484375  Z " stroke-width="6" stroke="#020202" fill="none" transform="matrix(1 0 0 1 618 782 )" mask="url(#clip11)" />
  </g>
</svg>