<?xml version="1.0" encoding="utf-8"?>
<svg version="1.1" xmlns:xlink="http://www.w3.org/1999/xlink" width="276px" height="79px" xmlns="http://www.w3.org/2000/svg">
  <g transform="matrix(1 0 0 1 -517 -684 )">
    <path d="M 522 711  A 22 22 0 0 1 544 689 L 766 689  A 22 22 0 0 1 788 711 L 788 736  A 22 22 0 0 1 766 758 L 544 758  A 22 22 0 0 1 522 736 L 522 711  Z " fill-rule="nonzero" fill="#caf982" stroke="none" fill-opacity="0.776470588235294" />
    <path d="M 519.5 711  A 24.5 24.5 0 0 1 544 686.5 L 766 686.5  A 24.5 24.5 0 0 1 790.5 711 L 790.5 736  A 24.5 24.5 0 0 1 766 760.5 L 544 760.5  A 24.5 24.5 0 0 1 519.5 736 L 519.5 711  Z " stroke-width="5" stroke="#000000" fill="none" stroke-opacity="0.996078431372549" />
  </g>
</svg>