<?xml version="1.0" encoding="utf-8"?>
<svg version="1.1" xmlns:xlink="http://www.w3.org/1999/xlink" width="55px" height="59px" xmlns="http://www.w3.org/2000/svg">
  <g transform="matrix(1 0 0 1 -315 -130 )">
    <path d="M 16 29  L 50.4166666666667 29  C 51.6898148148148 29.5  52.7719907407407 29.8585069444444  53.6631944444444 30.5755208333333  C 54.5543981481482 31.2925347222222  55 32.1631944444444  55 33.1875  L 55 55.3125  C 55 56.3368055555556  54.5543981481482 57.2074652777778  53.6631944444444 57.9244791666667  C 52.7719907407407 58.6414930555556  51.6898148148148 59  50.4166666666667 59  L 4.58333333333333 59  C 3.31018518518519 59  2.22800925925926 58.6414930555556  1.33680555555556 57.9244791666667  C 0.445601851851852 57.2074652777778  0 56.3368055555556  0 55.3125  L 0 33.1875  C 0 32.1631944444444  0.445601851851852 31.2925347222222  1.33680555555556 30.5755208333333  C 2.22800925925926 29.8585069444444  3.31018518518519 29.5  4.58333333333333 29.5  L 7 29.5  L 7 17.2083333333333  C 6.11111111111111 12.4709201388889  8.20384837962963 8.41851128472221  12.3893229166667 5.05110677083333  C 16.5747974537037 1.68370225694445  21.6116898148148 0  27.5 0  C 33.3883101851852 0  38.4252025462963 1.68370225694445  42.6106770833333 5.05110677083333  C 46.7961516203704 8.41851128472221  48.8888888888889 12.4709201388889  48.8888888888889 17.2083333333333  C 48.8888888888889 17.8741319444444  48.5865162037037 18.4503038194444  47.9817708333333 18.9368489583333  C 47.377025462963 19.4233940972222  46.6608796296296 19.6666666666667  45.8333333333333 19.6666666666667  L 42.7777777777778 19.6666666666667  C 41.9502314814815 19.6666666666667  41.2340856481482 19.4233940972222  40.6293402777778 18.9368489583333  C 40.0245949074074 18.4503038194444  39.7222222222222 17.8741319444444  39.7222222222222 17.2083333333333  C 39.7222222222222 14.4939236111111  38.5286458333333 12.1764322916667  36.1414930555556 10.255859375  C 33.7543402777778 8.33528645833333  30.8738425925926 7.375  27.5 7.375  C 24.1261574074074 7.375  21.2456597222222 8.33528645833333  18.8585069444444 10.255859375  C 16.4713541666667 12.1764322916667  15.2777777777778 14.4939236111111  16 17.2083333333333  L 16 29  Z " fill-rule="nonzero" fill="#000000" stroke="none" transform="matrix(1 0 0 1 315 130 )" />
  </g>
</svg>