<?xml version="1.0" encoding="utf-8"?>
<svg version="1.1" xmlns:xlink="http://www.w3.org/1999/xlink" width="48px" height="60px" xmlns="http://www.w3.org/2000/svg">
  <g transform="matrix(1 0 0 1 -922 -133 )">
    <path d="M 14 30  L 44 30  C 45.1111111111111 30  46.0555555555556 30.3645833333333  46.8333333333333 31.09375  C 47.6111111111111 31.8229166666667  48 32.7083333333333  48 33.75  L 48 56.25  C 48 57.2916666666667  47.6111111111111 58.1770833333333  46.8333333333333 58.90625  C 46.0555555555556 59.6354166666667  45.1111111111111 60  44 60  L 4 60  C 2.88888888888889 60  1.94444444444444 59.6354166666667  1.16666666666667 58.90625  C 0.388888888888889 58.1770833333333  0 57.2916666666667  0 56.25  L 0 33.75  C 0 32.7083333333333  0.388888888888889 31.8229166666667  1.16666666666667 31.09375  C 1.94444444444444 30.3645833333333  2.88888888888889 30  4 30  L 6 30  L 6 17.5  C 5.33333333333333 12.6822916666667  7.15972222222222 8.56119791666666  10.8125 5.13671875  C 14.4652777777778 1.71223958333334  18.8611111111111 0  24 0  C 29.1388888888889 0  33.5347222222222 1.71223958333334  37.1875 5.13671875  C 40.8402777777778 8.56119791666666  42.6666666666667 12.6822916666667  42.6666666666667 17.5  C 42.6666666666667 18.1770833333333  42.4027777777778 18.7630208333333  41.875 19.2578125  C 41.3472222222222 19.7526041666667  40.7222222222222 20  40 20  L 37.3333333333333 20  C 36.6111111111111 20  35.9861111111111 19.7526041666667  35.4583333333333 19.2578125  C 34.9305555555556 18.7630208333333  34.6666666666667 18.1770833333333  34.6666666666667 17.5  C 34.6666666666667 14.7395833333333  33.625 12.3828125  31.5416666666667 10.4296875  C 29.4583333333333 8.4765625  26.9444444444445 7.5  24 7.5  C 21.0555555555556 7.5  18.5416666666667 8.4765625  16.4583333333333 10.4296875  C 14.375 12.3828125  13.3333333333333 14.7395833333333  14 17.5  L 14 30  Z " fill-rule="nonzero" fill="#000000" stroke="none" transform="matrix(1 0 0 1 922 133 )" />
  </g>
</svg>