<?xml version="1.0" encoding="utf-8"?>
<svg version="1.1" xmlns:xlink="http://www.w3.org/1999/xlink" width="60px" height="60px" xmlns="http://www.w3.org/2000/svg">
  <g transform="matrix(1 0 0 1 -1480 -162 )">
    <path d="M 17 30  L 55 30  C 56.3888888888889 30  57.5694444444445 30.3645833333333  58.5416666666667 31.09375  C 59.5138888888889 31.8229166666667  60 32.7083333333333  60 33.75  L 60 56.25  C 60 57.2916666666667  59.5138888888889 58.1770833333333  58.5416666666667 58.90625  C 57.5694444444445 59.6354166666667  56.3888888888889 60  55 60  L 5 60  C 3.61111111111111 60  2.43055555555556 59.6354166666667  1.45833333333333 58.90625  C 0.486111111111111 58.1770833333333  0 57.2916666666667  0 56.25  L 0 33.75  C 0 32.7083333333333  0.486111111111111 31.8229166666667  1.45833333333333 31.09375  C 2.43055555555556 30.3645833333333  3.61111111111111 30  5 30  L 7 30  L 7 17.5  C 6.66666666666667 12.6822916666667  8.94965277777778 8.56119791666666  13.515625 5.13671875  C 18.0815972222222 1.71223958333334  23.5763888888889 0  30 0  C 36.4236111111111 0  41.9184027777778 1.71223958333334  46.484375 5.13671875  C 51.0503472222222 8.56119791666666  53.3333333333333 12.6822916666667  53.3333333333333 17.5  C 53.3333333333333 18.1770833333333  53.0034722222222 18.7630208333333  52.34375 19.2578125  C 51.6840277777778 19.7526041666667  50.9027777777778 20  50 20  L 46.6666666666667 20  C 45.7638888888889 20  44.9826388888889 19.7526041666667  44.3229166666667 19.2578125  C 43.6631944444444 18.7630208333333  43.3333333333333 18.1770833333333  43.3333333333333 17.5  C 43.3333333333333 14.7395833333333  42.03125 12.3828125  39.4270833333333 10.4296875  C 36.8229166666667 8.4765625  33.6805555555556 7.5  30 7.5  C 26.3194444444444 7.5  23.1770833333333 8.4765625  20.5729166666667 10.4296875  C 17.96875 12.3828125  16.6666666666667 14.7395833333333  17 17.5  L 17 30  Z " fill-rule="nonzero" fill="#ffffff" stroke="none" fill-opacity="0.996078431372549" transform="matrix(1 0 0 1 1480 162 )" />
  </g>
</svg>