<?xml version="1.0" encoding="utf-8"?>
<svg version="1.1" xmlns:xlink="http://www.w3.org/1999/xlink" width="37px" height="46px" xmlns="http://www.w3.org/2000/svg">
  <g transform="matrix(1 0 0 1 -852 -101 )">
    <path d="M 10.2777777777778 23  L 33.9166666666667 23  C 34.7731481481482 23  35.5011574074074 23.2795138888889  36.1006944444444 23.8385416666667  C 36.7002314814815 24.3975694444444  37 25.0763888888889  37 25.875  L 37 43.125  C 37 43.9236111111111  36.7002314814815 44.6024305555556  36.1006944444444 45.1614583333333  C 35.5011574074074 45.7204861111111  34.7731481481482 46  33.9166666666667 46  L 3.08333333333333 46  C 2.22685185185185 46  1.49884259259259 45.7204861111111  0.899305555555556 45.1614583333333  C 0.299768518518518 44.6024305555556  0 43.9236111111111  0 43.125  L 0 25.875  C 0 25.0763888888889  0.299768518518518 24.3975694444444  0.899305555555556 23.8385416666667  C 1.49884259259259 23.2795138888889  2.22685185185185 23  3.08333333333333 23  L 4.11111111111111 23  L 4.11111111111111 13.4166666666667  C 4.11111111111111 9.72309027777777  5.5189525462963 6.56358506944444  8.33463541666667 3.93815104166667  C 11.150318287037 1.31271701388889  14.5387731481481 0  18.5 0  C 22.4612268518519 0  25.849681712963 1.31271701388889  28.6653645833333 3.93815104166667  C 31.4810474537037 6.56358506944444  32.8888888888889 9.72309027777777  32.8888888888889 13.4166666666667  C 32.8888888888889 13.9357638888889  32.685474537037 14.3849826388889  32.2786458333333 14.7643229166667  C 31.8718171296296 15.1436631944444  31.3900462962963 15.3333333333333  30.8333333333333 15.3333333333333  L 28.7777777777778 15.3333333333333  C 28.2210648148148 15.3333333333333  27.7392939814815 15.1436631944444  27.3324652777778 14.7643229166667  C 26.9256365740741 14.3849826388889  26.7222222222222 13.9357638888889  26.7222222222222 13.4166666666667  C 26.7222222222222 11.3003472222222  25.9192708333333 9.49348958333334  24.3133680555556 7.99609375  C 22.7074652777778 6.49869791666667  20.7696759259259 5.75  18.5 5.75  C 16.2303240740741 5.75  14.2925347222222 6.49869791666667  12.6866319444444 7.99609375  C 11.0807291666667 9.49348958333334  10.2777777777778 11.3003472222222  10.2777777777778 13.4166666666667  L 10.2777777777778 23  Z " fill-rule="nonzero" fill="#ffffff" stroke="none" fill-opacity="0.996078431372549" transform="matrix(1 0 0 1 852 101 )" />
  </g>
</svg>