<?xml version="1.0" encoding="utf-8"?>
<svg version="1.1" xmlns:xlink="http://www.w3.org/1999/xlink" width="36px" height="38px" xmlns="http://www.w3.org/2000/svg">
  <g transform="matrix(1 0 0 1 -7 -14 )">
    <path d="M 7 14  L 43 14  L 43 52  L 7 52  L 7 14  " fill-rule="nonzero" fill="#cccccc" stroke="none" />
    <path d="M 10 17  L 40 17  L 40 49  L 10 49  L 10 17  " fill-rule="nonzero" fill="#ffffff" stroke="none" />
    <path d="M 28.42 25.1  C 26.908 25.1  25.72 23.912  25.72 22.4  C 25.72 20.888  26.908 19.7  28.42 19.7  C 29.932 19.7  31.12 20.888  31.12 22.4  C 31.12 23.912  29.932 25.1  28.42 25.1  " fill-rule="nonzero" fill="#cccccc" stroke="none" />
    <path d="M 11 48  L 11 31.5  L 18 24  L 27.8 30  L 33.4 28.5  L 39 30  L 39 48  L 11 48  " fill-rule="nonzero" fill="#169bd5" stroke="none" />
  </g>
</svg>