<?xml version="1.0" encoding="utf-8"?>
<svg version="1.1" xmlns:xlink="http://www.w3.org/1999/xlink" width="282px" height="85px" xmlns="http://www.w3.org/2000/svg">
  <g transform="matrix(1 0 0 1 -1266 -726 )">
    <path d="M 1271 753  A 22 22 0 0 1 1293 731 L 1521 731  A 22 22 0 0 1 1543 753 L 1543 784  A 22 22 0 0 1 1521 806 L 1293 806  A 22 22 0 0 1 1271 784 L 1271 753  Z " fill-rule="nonzero" fill="#caf982" stroke="none" fill-opacity="0.364705882352941" />
    <path d="M 1268.5 753  A 24.5 24.5 0 0 1 1293 728.5 L 1521 728.5  A 24.5 24.5 0 0 1 1545.5 753 L 1545.5 784  A 24.5 24.5 0 0 1 1521 808.5 L 1293 808.5  A 24.5 24.5 0 0 1 1268.5 784 L 1268.5 753  Z " stroke-width="5" stroke="#7f7f7f" fill="none" stroke-opacity="0.996078431372549" />
  </g>
</svg>