<?xml version="1.0" encoding="utf-8"?>
<svg version="1.1" xmlns:xlink="http://www.w3.org/1999/xlink" width="27px" height="28px" xmlns="http://www.w3.org/2000/svg">
  <defs>
    <mask fill="white" id="clip8">
      <path d="M 21.9183238636364 12.90625  C 22.0333806818182 13.0255681818182  22.0909090909091 13.1780303030303  22.0909090909091 13.3636363636364  L 22.0909090909091 14.6363636363636  C 22.0909090909091 14.8219696969697  22.0333806818182 14.9744318181818  21.9183238636364 15.09375  C 21.8032670454545 15.2130681818182  21.65625 15.2727272727273  21.4772727272727 15.2727272727273  L 14.7272727272727 15.2727272727273  L 14.7272727272727 22.2727272727273  C 14.7272727272727 22.4583333333333  14.6697443181818 22.6107954545455  14.5546875 22.7301136363636  C 14.4396306818182 22.8494318181818  14.2926136363636 22.9090909090909  14.1136363636364 22.9090909090909  L 12.8863636363636 22.9090909090909  C 12.7073863636364 22.9090909090909  12.5603693181818 22.8494318181818  12.4453125 22.7301136363636  C 12.3302556818182 22.6107954545455  12.2727272727273 22.4583333333333  12.2727272727273 22.2727272727273  L 12.2727272727273 15.2727272727273  L 5.52272727272727 15.2727272727273  C 5.34375 15.2727272727273  5.19673295454546 15.2130681818182  5.08167613636364 15.09375  C 4.96661931818182 14.9744318181818  4.90909090909091 14.8219696969697  4.90909090909091 14.6363636363636  L 4.90909090909091 13.3636363636364  C 4.90909090909091 13.1780303030303  4.96661931818182 13.0255681818182  5.08167613636364 12.90625  C 5.19673295454546 12.7869318181818  5.34375 12.7272727272727  5.52272727272727 12.7272727272727  L 12.2727272727273 12.7272727272727  L 12.2727272727273 5.72727272727273  C 12.2727272727273 5.54166666666666  12.3302556818182 5.38920454545455  12.4453125 5.26988636363636  C 12.5603693181818 5.15056818181818  12.7073863636364 5.09090909090909  12.8863636363636 5.09090909090909  L 14.1136363636364 5.09090909090909  C 14.2926136363636 5.09090909090909  14.4396306818182 5.15056818181818  14.5546875 5.26988636363636  C 14.6697443181818 5.38920454545455  14.7272727272727 5.54166666666666  14.7272727272727 5.72727272727273  L 14.7272727272727 12.7272727272727  L 21.4772727272727 12.7272727272727  C 21.65625 12.7272727272727  21.8032670454545 12.7869318181818  21.9183238636364 12.90625  Z M 23.6441761363636 24.5198863636364  C 24.2450284090909 23.8967803030303  24.5454545454545 23.1477272727273  24.5454545454545 22.2727272727273  L 24.5454545454545 5.72727272727273  C 24.5454545454545 4.85227272727273  24.2450284090909 4.1032196969697  23.6441761363636 3.48011363636364  C 23.0433238636364 2.85700757575757  22.3210227272727 2.54545454545455  21.4772727272727 2.54545454545455  L 5.52272727272727 2.54545454545455  C 4.67897727272727 2.54545454545455  3.95667613636364 2.85700757575757  3.35582386363636 3.48011363636364  C 2.75497159090909 4.1032196969697  2.45454545454545 4.85227272727273  2.45454545454545 5.72727272727273  L 2.45454545454545 22.2727272727273  C 2.45454545454545 23.1477272727273  2.75497159090909 23.8967803030303  3.35582386363636 24.5198863636364  C 3.95667613636364 25.1429924242424  4.67897727272727 25.4545454545455  5.52272727272727 25.4545454545455  L 21.4772727272727 25.4545454545455  C 22.3210227272727 25.4545454545455  23.0433238636364 25.1429924242424  23.6441761363636 24.5198863636364  Z M 25.3796164772727 1.68039772727273  C 26.4598721590909 2.80066287878788  27 4.14962121212121  27 5.72727272727273  L 27 22.2727272727273  C 27 23.8503787878788  26.4598721590909 25.1993371212121  25.3796164772727 26.3196022727273  C 24.2993607954545 27.4398674242424  22.9985795454546 28  21.4772727272727 28  L 5.52272727272727 28  C 4.00142045454546 28  2.70063920454546 27.4398674242424  1.62038352272727 26.3196022727273  C 0.540127840909091 25.1993371212121  0 23.8503787878788  0 22.2727272727273  L 0 5.72727272727273  C 0 4.14962121212121  0.540127840909091 2.80066287878788  1.62038352272727 1.68039772727273  C 2.70063920454546 0.560132575757573  4.00142045454546 0  5.52272727272727 0  L 21.4772727272727 0  C 22.9985795454546 0  24.2993607954545 0.560132575757573  25.3796164772727 1.68039772727273  Z " fill-rule="evenodd" />
    </mask>
  </defs>
  <g transform="matrix(1 0 0 1 -525 -772 )">
    <path d="M 21.9183238636364 12.90625  C 22.0333806818182 13.0255681818182  22.0909090909091 13.1780303030303  22.0909090909091 13.3636363636364  L 22.0909090909091 14.6363636363636  C 22.0909090909091 14.8219696969697  22.0333806818182 14.9744318181818  21.9183238636364 15.09375  C 21.8032670454545 15.2130681818182  21.65625 15.2727272727273  21.4772727272727 15.2727272727273  L 14.7272727272727 15.2727272727273  L 14.7272727272727 22.2727272727273  C 14.7272727272727 22.4583333333333  14.6697443181818 22.6107954545455  14.5546875 22.7301136363636  C 14.4396306818182 22.8494318181818  14.2926136363636 22.9090909090909  14.1136363636364 22.9090909090909  L 12.8863636363636 22.9090909090909  C 12.7073863636364 22.9090909090909  12.5603693181818 22.8494318181818  12.4453125 22.7301136363636  C 12.3302556818182 22.6107954545455  12.2727272727273 22.4583333333333  12.2727272727273 22.2727272727273  L 12.2727272727273 15.2727272727273  L 5.52272727272727 15.2727272727273  C 5.34375 15.2727272727273  5.19673295454546 15.2130681818182  5.08167613636364 15.09375  C 4.96661931818182 14.9744318181818  4.90909090909091 14.8219696969697  4.90909090909091 14.6363636363636  L 4.90909090909091 13.3636363636364  C 4.90909090909091 13.1780303030303  4.96661931818182 13.0255681818182  5.08167613636364 12.90625  C 5.19673295454546 12.7869318181818  5.34375 12.7272727272727  5.52272727272727 12.7272727272727  L 12.2727272727273 12.7272727272727  L 12.2727272727273 5.72727272727273  C 12.2727272727273 5.54166666666666  12.3302556818182 5.38920454545455  12.4453125 5.26988636363636  C 12.5603693181818 5.15056818181818  12.7073863636364 5.09090909090909  12.8863636363636 5.09090909090909  L 14.1136363636364 5.09090909090909  C 14.2926136363636 5.09090909090909  14.4396306818182 5.15056818181818  14.5546875 5.26988636363636  C 14.6697443181818 5.38920454545455  14.7272727272727 5.54166666666666  14.7272727272727 5.72727272727273  L 14.7272727272727 12.7272727272727  L 21.4772727272727 12.7272727272727  C 21.65625 12.7272727272727  21.8032670454545 12.7869318181818  21.9183238636364 12.90625  Z M 23.6441761363636 24.5198863636364  C 24.2450284090909 23.8967803030303  24.5454545454545 23.1477272727273  24.5454545454545 22.2727272727273  L 24.5454545454545 5.72727272727273  C 24.5454545454545 4.85227272727273  24.2450284090909 4.1032196969697  23.6441761363636 3.48011363636364  C 23.0433238636364 2.85700757575757  22.3210227272727 2.54545454545455  21.4772727272727 2.54545454545455  L 5.52272727272727 2.54545454545455  C 4.67897727272727 2.54545454545455  3.95667613636364 2.85700757575757  3.35582386363636 3.48011363636364  C 2.75497159090909 4.1032196969697  2.45454545454545 4.85227272727273  2.45454545454545 5.72727272727273  L 2.45454545454545 22.2727272727273  C 2.45454545454545 23.1477272727273  2.75497159090909 23.8967803030303  3.35582386363636 24.5198863636364  C 3.95667613636364 25.1429924242424  4.67897727272727 25.4545454545455  5.52272727272727 25.4545454545455  L 21.4772727272727 25.4545454545455  C 22.3210227272727 25.4545454545455  23.0433238636364 25.1429924242424  23.6441761363636 24.5198863636364  Z M 25.3796164772727 1.68039772727273  C 26.4598721590909 2.80066287878788  27 4.14962121212121  27 5.72727272727273  L 27 22.2727272727273  C 27 23.8503787878788  26.4598721590909 25.1993371212121  25.3796164772727 26.3196022727273  C 24.2993607954545 27.4398674242424  22.9985795454546 28  21.4772727272727 28  L 5.52272727272727 28  C 4.00142045454546 28  2.70063920454546 27.4398674242424  1.62038352272727 26.3196022727273  C 0.540127840909091 25.1993371212121  0 23.8503787878788  0 22.2727272727273  L 0 5.72727272727273  C 0 4.14962121212121  0.540127840909091 2.80066287878788  1.62038352272727 1.68039772727273  C 2.70063920454546 0.560132575757573  4.00142045454546 0  5.52272727272727 0  L 21.4772727272727 0  C 22.9985795454546 0  24.2993607954545 0.560132575757573  25.3796164772727 1.68039772727273  Z " fill-rule="nonzero" fill="#caf982" stroke="none" fill-opacity="0" transform="matrix(1 0 0 1 525 772 )" />
    <path d="M 21.9183238636364 12.90625  C 22.0333806818182 13.0255681818182  22.0909090909091 13.1780303030303  22.0909090909091 13.3636363636364  L 22.0909090909091 14.6363636363636  C 22.0909090909091 14.8219696969697  22.0333806818182 14.9744318181818  21.9183238636364 15.09375  C 21.8032670454545 15.2130681818182  21.65625 15.2727272727273  21.4772727272727 15.2727272727273  L 14.7272727272727 15.2727272727273  L 14.7272727272727 22.2727272727273  C 14.7272727272727 22.4583333333333  14.6697443181818 22.6107954545455  14.5546875 22.7301136363636  C 14.4396306818182 22.8494318181818  14.2926136363636 22.9090909090909  14.1136363636364 22.9090909090909  L 12.8863636363636 22.9090909090909  C 12.7073863636364 22.9090909090909  12.5603693181818 22.8494318181818  12.4453125 22.7301136363636  C 12.3302556818182 22.6107954545455  12.2727272727273 22.4583333333333  12.2727272727273 22.2727272727273  L 12.2727272727273 15.2727272727273  L 5.52272727272727 15.2727272727273  C 5.34375 15.2727272727273  5.19673295454546 15.2130681818182  5.08167613636364 15.09375  C 4.96661931818182 14.9744318181818  4.90909090909091 14.8219696969697  4.90909090909091 14.6363636363636  L 4.90909090909091 13.3636363636364  C 4.90909090909091 13.1780303030303  4.96661931818182 13.0255681818182  5.08167613636364 12.90625  C 5.19673295454546 12.7869318181818  5.34375 12.7272727272727  5.52272727272727 12.7272727272727  L 12.2727272727273 12.7272727272727  L 12.2727272727273 5.72727272727273  C 12.2727272727273 5.54166666666666  12.3302556818182 5.38920454545455  12.4453125 5.26988636363636  C 12.5603693181818 5.15056818181818  12.7073863636364 5.09090909090909  12.8863636363636 5.09090909090909  L 14.1136363636364 5.09090909090909  C 14.2926136363636 5.09090909090909  14.4396306818182 5.15056818181818  14.5546875 5.26988636363636  C 14.6697443181818 5.38920454545455  14.7272727272727 5.54166666666666  14.7272727272727 5.72727272727273  L 14.7272727272727 12.7272727272727  L 21.4772727272727 12.7272727272727  C 21.65625 12.7272727272727  21.8032670454545 12.7869318181818  21.9183238636364 12.90625  Z " stroke-width="6" stroke="#020202" fill="none" transform="matrix(1 0 0 1 525 772 )" mask="url(#clip8)" />
    <path d="M 23.6441761363636 24.5198863636364  C 24.2450284090909 23.8967803030303  24.5454545454545 23.1477272727273  24.5454545454545 22.2727272727273  L 24.5454545454545 5.72727272727273  C 24.5454545454545 4.85227272727273  24.2450284090909 4.1032196969697  23.6441761363636 3.48011363636364  C 23.0433238636364 2.85700757575757  22.3210227272727 2.54545454545455  21.4772727272727 2.54545454545455  L 5.52272727272727 2.54545454545455  C 4.67897727272727 2.54545454545455  3.95667613636364 2.85700757575757  3.35582386363636 3.48011363636364  C 2.75497159090909 4.1032196969697  2.45454545454545 4.85227272727273  2.45454545454545 5.72727272727273  L 2.45454545454545 22.2727272727273  C 2.45454545454545 23.1477272727273  2.75497159090909 23.8967803030303  3.35582386363636 24.5198863636364  C 3.95667613636364 25.1429924242424  4.67897727272727 25.4545454545455  5.52272727272727 25.4545454545455  L 21.4772727272727 25.4545454545455  C 22.3210227272727 25.4545454545455  23.0433238636364 25.1429924242424  23.6441761363636 24.5198863636364  Z " stroke-width="6" stroke="#020202" fill="none" transform="matrix(1 0 0 1 525 772 )" mask="url(#clip8)" />
    <path d="M 25.3796164772727 1.68039772727273  C 26.4598721590909 2.80066287878788  27 4.14962121212121  27 5.72727272727273  L 27 22.2727272727273  C 27 23.8503787878788  26.4598721590909 25.1993371212121  25.3796164772727 26.3196022727273  C 24.2993607954545 27.4398674242424  22.9985795454546 28  21.4772727272727 28  L 5.52272727272727 28  C 4.00142045454546 28  2.70063920454546 27.4398674242424  1.62038352272727 26.3196022727273  C 0.540127840909091 25.1993371212121  0 23.8503787878788  0 22.2727272727273  L 0 5.72727272727273  C 0 4.14962121212121  0.540127840909091 2.80066287878788  1.62038352272727 1.68039772727273  C 2.70063920454546 0.560132575757573  4.00142045454546 0  5.52272727272727 0  L 21.4772727272727 0  C 22.9985795454546 0  24.2993607954545 0.560132575757573  25.3796164772727 1.68039772727273  Z " stroke-width="6" stroke="#020202" fill="none" transform="matrix(1 0 0 1 525 772 )" mask="url(#clip8)" />
  </g>
</svg>