<?xml version="1.0" encoding="utf-8"?>
<svg version="1.1" xmlns:xlink="http://www.w3.org/1999/xlink" width="220px" height="80px" xmlns="http://www.w3.org/2000/svg">
  <g transform="matrix(1 0 0 1 -1335 -172 )">
    <path d="M 1523.066718427 172.5  C 1523.066718427 172.5  1526.74076666391 173.168008770348  1526.74076666391 173.168008770348  C 1526.74076666391 173.168008770348  1554.42653818876 212  1554.42653818876 212  C 1554.42653818876 212  1526.74076666391 250.831991229652  1526.74076666391 250.831991229652  C 1526.74076666391 250.831991229652  1523.066718427 251.5  1523.066718427 251.5  C 1523.066718427 251.5  1335.5 251.5  1335.5 251.5  C 1335.5 251.5  1335.5 172.5  1335.5 172.5  C 1335.5 172.5  1523.066718427 172.5  1523.066718427 172.5  Z " fill-rule="nonzero" fill="#88d904" stroke="none" />
    <path d="M 1523.066718427 172.5  C 1523.066718427 172.5  1526.74076666391 173.168008770348  1526.74076666391 173.168008770348  C 1526.74076666391 173.168008770348  1554.42653818876 212  1554.42653818876 212  C 1554.42653818876 212  1526.74076666391 250.831991229652  1526.74076666391 250.831991229652  C 1526.74076666391 250.831991229652  1523.066718427 251.5  1523.066718427 251.5  C 1523.066718427 251.5  1335.5 251.5  1335.5 251.5  C 1335.5 251.5  1335.5 172.5  1335.5 172.5  C 1335.5 172.5  1523.066718427 172.5  1523.066718427 172.5  Z " stroke-width="1" stroke="#169bd5" fill="none" />
  </g>
</svg>