<?xml version="1.0" encoding="utf-8"?>
<svg version="1.1" xmlns:xlink="http://www.w3.org/1999/xlink" width="34px" height="35px" xmlns="http://www.w3.org/2000/svg">
  <defs>
    <mask fill="white" id="clip10">
      <path d="M 27.6008522727273 16.1328125  C 27.7457386363636 16.2819602272727  27.8181818181818 16.4725378787879  27.8181818181818 16.7045454545455  L 27.8181818181818 18.2954545454545  C 27.8181818181818 18.5274621212121  27.7457386363636 18.7180397727273  27.6008522727273 18.8671875  C 27.4559659090909 19.0163352272727  27.2708333333333 19.0909090909091  27.0454545454545 19.0909090909091  L 18.5454545454545 19.0909090909091  L 18.5454545454545 27.8409090909091  C 18.5454545454545 28.0729166666667  18.4730113636364 28.2634943181818  18.328125 28.4126420454545  C 18.1832386363636 28.5617897727273  17.9981060606061 28.6363636363636  17.7727272727273 28.6363636363636  L 16.2272727272727 28.6363636363636  C 16.0018939393939 28.6363636363636  15.8167613636364 28.5617897727273  15.671875 28.4126420454545  C 15.5269886363636 28.2634943181818  15.4545454545455 28.0729166666667  15.4545454545455 27.8409090909091  L 15.4545454545455 19.0909090909091  L 6.95454545454546 19.0909090909091  C 6.72916666666667 19.0909090909091  6.54403409090909 19.0163352272727  6.39914772727273 18.8671875  C 6.25426136363636 18.7180397727273  6.18181818181818 18.5274621212121  6.18181818181818 18.2954545454545  L 6.18181818181818 16.7045454545455  C 6.18181818181818 16.4725378787879  6.25426136363636 16.2819602272727  6.39914772727273 16.1328125  C 6.54403409090909 15.9836647727273  6.72916666666667 15.9090909090909  6.95454545454546 15.9090909090909  L 15.4545454545455 15.9090909090909  L 15.4545454545455 7.15909090909091  C 15.4545454545455 6.92708333333333  15.5269886363636 6.73650568181818  15.671875 6.58735795454546  C 15.8167613636364 6.43821022727273  16.0018939393939 6.36363636363636  16.2272727272727 6.36363636363636  L 17.7727272727273 6.36363636363636  C 17.9981060606061 6.36363636363636  18.1832386363636 6.43821022727273  18.328125 6.58735795454546  C 18.4730113636364 6.73650568181818  18.5454545454545 6.92708333333333  18.5454545454545 7.15909090909091  L 18.5454545454545 15.9090909090909  L 27.0454545454545 15.9090909090909  C 27.2708333333333 15.9090909090909  27.4559659090909 15.9836647727273  27.6008522727273 16.1328125  Z M 29.7741477272727 30.6498579545455  C 30.5307765151515 29.8709753787879  30.9090909090909 28.9346590909091  31 27.8409090909091  L 31 7.15909090909091  C 30.9090909090909 6.06534090909091  30.5307765151515 5.12902462121212  29.7741477272727 4.35014204545455  C 29.0175189393939 3.57125946969697  28.1079545454545 3.18181818181818  27.0454545454545 3.18181818181818  L 6.95454545454546 3.18181818181818  C 5.89204545454546 3.18181818181818  4.98248106060606 3.57125946969697  4.22585227272727 4.35014204545455  C 3.46922348484849 5.12902462121212  3.09090909090909 6.06534090909091  3 7.15909090909091  L 3 27.8409090909091  C 3.09090909090909 28.9346590909091  3.46922348484849 29.8709753787879  4.22585227272727 30.6498579545455  C 4.98248106060606 31.428740530303  5.89204545454546 31.8181818181818  6.95454545454546 31.8181818181818  L 27.0454545454545 31.8181818181818  C 28.1079545454545 31.8181818181818  29.0175189393939 31.428740530303  29.7741477272727 30.6498579545455  Z M 31.9595170454545 2.10049715909091  C 33.3198390151515 3.50082859848485  34 5.18702651515151  34 7.15909090909091  L 34 27.8409090909091  C 34 29.8129734848485  33.3198390151515 31.4991714015152  31.9595170454545 32.8995028409091  C 30.5991950757576 34.299834280303  28.9611742424242 35  27.0454545454545 35  L 6.95454545454546 35  C 5.03882575757576 35  3.40080492424242 34.299834280303  2.04048295454545 32.8995028409091  C 0.680160984848485 31.4991714015152  0 29.8129734848485  0 27.8409090909091  L 0 7.15909090909091  C 0 5.18702651515151  0.680160984848485 3.50082859848485  2.04048295454545 2.10049715909091  C 3.40080492424242 0.700165719696966  5.03882575757576 0  6.95454545454546 0  L 27.0454545454545 0  C 28.9611742424242 0  30.5991950757576 0.700165719696966  31.9595170454545 2.10049715909091  Z " fill-rule="evenodd" />
    </mask>
  </defs>
  <g transform="matrix(1 0 0 1 -447 -656 )">
    <path d="M 27.6008522727273 16.1328125  C 27.7457386363636 16.2819602272727  27.8181818181818 16.4725378787879  27.8181818181818 16.7045454545455  L 27.8181818181818 18.2954545454545  C 27.8181818181818 18.5274621212121  27.7457386363636 18.7180397727273  27.6008522727273 18.8671875  C 27.4559659090909 19.0163352272727  27.2708333333333 19.0909090909091  27.0454545454545 19.0909090909091  L 18.5454545454545 19.0909090909091  L 18.5454545454545 27.8409090909091  C 18.5454545454545 28.0729166666667  18.4730113636364 28.2634943181818  18.328125 28.4126420454545  C 18.1832386363636 28.5617897727273  17.9981060606061 28.6363636363636  17.7727272727273 28.6363636363636  L 16.2272727272727 28.6363636363636  C 16.0018939393939 28.6363636363636  15.8167613636364 28.5617897727273  15.671875 28.4126420454545  C 15.5269886363636 28.2634943181818  15.4545454545455 28.0729166666667  15.4545454545455 27.8409090909091  L 15.4545454545455 19.0909090909091  L 6.95454545454546 19.0909090909091  C 6.72916666666667 19.0909090909091  6.54403409090909 19.0163352272727  6.39914772727273 18.8671875  C 6.25426136363636 18.7180397727273  6.18181818181818 18.5274621212121  6.18181818181818 18.2954545454545  L 6.18181818181818 16.7045454545455  C 6.18181818181818 16.4725378787879  6.25426136363636 16.2819602272727  6.39914772727273 16.1328125  C 6.54403409090909 15.9836647727273  6.72916666666667 15.9090909090909  6.95454545454546 15.9090909090909  L 15.4545454545455 15.9090909090909  L 15.4545454545455 7.15909090909091  C 15.4545454545455 6.92708333333333  15.5269886363636 6.73650568181818  15.671875 6.58735795454546  C 15.8167613636364 6.43821022727273  16.0018939393939 6.36363636363636  16.2272727272727 6.36363636363636  L 17.7727272727273 6.36363636363636  C 17.9981060606061 6.36363636363636  18.1832386363636 6.43821022727273  18.328125 6.58735795454546  C 18.4730113636364 6.73650568181818  18.5454545454545 6.92708333333333  18.5454545454545 7.15909090909091  L 18.5454545454545 15.9090909090909  L 27.0454545454545 15.9090909090909  C 27.2708333333333 15.9090909090909  27.4559659090909 15.9836647727273  27.6008522727273 16.1328125  Z M 29.7741477272727 30.6498579545455  C 30.5307765151515 29.8709753787879  30.9090909090909 28.9346590909091  31 27.8409090909091  L 31 7.15909090909091  C 30.9090909090909 6.06534090909091  30.5307765151515 5.12902462121212  29.7741477272727 4.35014204545455  C 29.0175189393939 3.57125946969697  28.1079545454545 3.18181818181818  27.0454545454545 3.18181818181818  L 6.95454545454546 3.18181818181818  C 5.89204545454546 3.18181818181818  4.98248106060606 3.57125946969697  4.22585227272727 4.35014204545455  C 3.46922348484849 5.12902462121212  3.09090909090909 6.06534090909091  3 7.15909090909091  L 3 27.8409090909091  C 3.09090909090909 28.9346590909091  3.46922348484849 29.8709753787879  4.22585227272727 30.6498579545455  C 4.98248106060606 31.428740530303  5.89204545454546 31.8181818181818  6.95454545454546 31.8181818181818  L 27.0454545454545 31.8181818181818  C 28.1079545454545 31.8181818181818  29.0175189393939 31.428740530303  29.7741477272727 30.6498579545455  Z M 31.9595170454545 2.10049715909091  C 33.3198390151515 3.50082859848485  34 5.18702651515151  34 7.15909090909091  L 34 27.8409090909091  C 34 29.8129734848485  33.3198390151515 31.4991714015152  31.9595170454545 32.8995028409091  C 30.5991950757576 34.299834280303  28.9611742424242 35  27.0454545454545 35  L 6.95454545454546 35  C 5.03882575757576 35  3.40080492424242 34.299834280303  2.04048295454545 32.8995028409091  C 0.680160984848485 31.4991714015152  0 29.8129734848485  0 27.8409090909091  L 0 7.15909090909091  C 0 5.18702651515151  0.680160984848485 3.50082859848485  2.04048295454545 2.10049715909091  C 3.40080492424242 0.700165719696966  5.03882575757576 0  6.95454545454546 0  L 27.0454545454545 0  C 28.9611742424242 0  30.5991950757576 0.700165719696966  31.9595170454545 2.10049715909091  Z " fill-rule="nonzero" fill="#333333" stroke="none" transform="matrix(1 0 0 1 447 656 )" />
    <path d="M 27.6008522727273 16.1328125  C 27.7457386363636 16.2819602272727  27.8181818181818 16.4725378787879  27.8181818181818 16.7045454545455  L 27.8181818181818 18.2954545454545  C 27.8181818181818 18.5274621212121  27.7457386363636 18.7180397727273  27.6008522727273 18.8671875  C 27.4559659090909 19.0163352272727  27.2708333333333 19.0909090909091  27.0454545454545 19.0909090909091  L 18.5454545454545 19.0909090909091  L 18.5454545454545 27.8409090909091  C 18.5454545454545 28.0729166666667  18.4730113636364 28.2634943181818  18.328125 28.4126420454545  C 18.1832386363636 28.5617897727273  17.9981060606061 28.6363636363636  17.7727272727273 28.6363636363636  L 16.2272727272727 28.6363636363636  C 16.0018939393939 28.6363636363636  15.8167613636364 28.5617897727273  15.671875 28.4126420454545  C 15.5269886363636 28.2634943181818  15.4545454545455 28.0729166666667  15.4545454545455 27.8409090909091  L 15.4545454545455 19.0909090909091  L 6.95454545454546 19.0909090909091  C 6.72916666666667 19.0909090909091  6.54403409090909 19.0163352272727  6.39914772727273 18.8671875  C 6.25426136363636 18.7180397727273  6.18181818181818 18.5274621212121  6.18181818181818 18.2954545454545  L 6.18181818181818 16.7045454545455  C 6.18181818181818 16.4725378787879  6.25426136363636 16.2819602272727  6.39914772727273 16.1328125  C 6.54403409090909 15.9836647727273  6.72916666666667 15.9090909090909  6.95454545454546 15.9090909090909  L 15.4545454545455 15.9090909090909  L 15.4545454545455 7.15909090909091  C 15.4545454545455 6.92708333333333  15.5269886363636 6.73650568181818  15.671875 6.58735795454546  C 15.8167613636364 6.43821022727273  16.0018939393939 6.36363636363636  16.2272727272727 6.36363636363636  L 17.7727272727273 6.36363636363636  C 17.9981060606061 6.36363636363636  18.1832386363636 6.43821022727273  18.328125 6.58735795454546  C 18.4730113636364 6.73650568181818  18.5454545454545 6.92708333333333  18.5454545454545 7.15909090909091  L 18.5454545454545 15.9090909090909  L 27.0454545454545 15.9090909090909  C 27.2708333333333 15.9090909090909  27.4559659090909 15.9836647727273  27.6008522727273 16.1328125  Z " stroke-width="6" stroke="#020202" fill="none" transform="matrix(1 0 0 1 447 656 )" mask="url(#clip10)" />
    <path d="M 29.7741477272727 30.6498579545455  C 30.5307765151515 29.8709753787879  30.9090909090909 28.9346590909091  31 27.8409090909091  L 31 7.15909090909091  C 30.9090909090909 6.06534090909091  30.5307765151515 5.12902462121212  29.7741477272727 4.35014204545455  C 29.0175189393939 3.57125946969697  28.1079545454545 3.18181818181818  27.0454545454545 3.18181818181818  L 6.95454545454546 3.18181818181818  C 5.89204545454546 3.18181818181818  4.98248106060606 3.57125946969697  4.22585227272727 4.35014204545455  C 3.46922348484849 5.12902462121212  3.09090909090909 6.06534090909091  3 7.15909090909091  L 3 27.8409090909091  C 3.09090909090909 28.9346590909091  3.46922348484849 29.8709753787879  4.22585227272727 30.6498579545455  C 4.98248106060606 31.428740530303  5.89204545454546 31.8181818181818  6.95454545454546 31.8181818181818  L 27.0454545454545 31.8181818181818  C 28.1079545454545 31.8181818181818  29.0175189393939 31.428740530303  29.7741477272727 30.6498579545455  Z " stroke-width="6" stroke="#020202" fill="none" transform="matrix(1 0 0 1 447 656 )" mask="url(#clip10)" />
    <path d="M 31.9595170454545 2.10049715909091  C 33.3198390151515 3.50082859848485  34 5.18702651515151  34 7.15909090909091  L 34 27.8409090909091  C 34 29.8129734848485  33.3198390151515 31.4991714015152  31.9595170454545 32.8995028409091  C 30.5991950757576 34.299834280303  28.9611742424242 35  27.0454545454545 35  L 6.95454545454546 35  C 5.03882575757576 35  3.40080492424242 34.299834280303  2.04048295454545 32.8995028409091  C 0.680160984848485 31.4991714015152  0 29.8129734848485  0 27.8409090909091  L 0 7.15909090909091  C 0 5.18702651515151  0.680160984848485 3.50082859848485  2.04048295454545 2.10049715909091  C 3.40080492424242 0.700165719696966  5.03882575757576 0  6.95454545454546 0  L 27.0454545454545 0  C 28.9611742424242 0  30.5991950757576 0.700165719696966  31.9595170454545 2.10049715909091  Z " stroke-width="6" stroke="#020202" fill="none" transform="matrix(1 0 0 1 447 656 )" mask="url(#clip10)" />
  </g>
</svg>