<?xml version="1.0" encoding="utf-8"?>
<svg version="1.1" xmlns:xlink="http://www.w3.org/1999/xlink" width="42px" height="40px" xmlns="http://www.w3.org/2000/svg">
  <defs>
    <mask fill="white" id="clip115">
      <path d="M 34.0951704545455 18.4375  C 34.2741477272727 18.6079545454545  34.3636363636364 18.8257575757576  34.3636363636364 19.0909090909091  L 34.3636363636364 20.9090909090909  C 34.3636363636364 21.1742424242424  34.2741477272727 21.3920454545455  34.0951704545455 21.5625  C 33.9161931818182 21.7329545454545  33.6875 21.8181818181818  33.4090909090909 21.8181818181818  L 23 21.8181818181818  L 23 31.8181818181818  C 22.9090909090909 32.0833333333333  22.8196022727273 32.3011363636364  22.640625 32.4715909090909  C 22.4616477272727 32.6420454545455  22.2329545454545 32.7272727272727  21.9545454545455 32.7272727272727  L 20.0454545454545 32.7272727272727  C 19.7670454545455 32.7272727272727  19.5383522727273 32.6420454545455  19.359375 32.4715909090909  C 19.1803977272727 32.3011363636364  19.0909090909091 32.0833333333333  19 31.8181818181818  L 19 21.8181818181818  L 8.59090909090909 21.8181818181818  C 8.3125 21.8181818181818  8.08380681818182 21.7329545454545  7.90482954545455 21.5625  C 7.72585227272727 21.3920454545455  7.63636363636364 21.1742424242424  7.63636363636364 20.9090909090909  L 7.63636363636364 19.0909090909091  C 7.63636363636364 18.8257575757576  7.72585227272727 18.6079545454545  7.90482954545455 18.4375  C 8.08380681818182 18.2670454545455  8.3125 18.1818181818182  8.59090909090909 18.1818181818182  L 19 18.1818181818182  L 19 8.18181818181818  C 19.0909090909091 7.91666666666666  19.1803977272727 7.69886363636364  19.359375 7.52840909090909  C 19.5383522727273 7.35795454545455  19.7670454545455 7.27272727272727  20.0454545454545 7.27272727272727  L 21.9545454545455 7.27272727272727  C 22.2329545454545 7.27272727272727  22.4616477272727 7.35795454545455  22.640625 7.52840909090909  C 22.8196022727273 7.69886363636364  22.9090909090909 7.91666666666666  23 8.18181818181818  L 23 18.1818181818182  L 33.4090909090909 18.1818181818182  C 33.6875 18.1818181818182  33.9161931818182 18.2670454545455  34.0951704545455 18.4375  Z M 36.7798295454545 35.0284090909091  C 37.7144886363636 34.1382575757576  38.1818181818182 33.0681818181818  38 31.8181818181818  L 38 8.18181818181818  C 38.1818181818182 6.93181818181818  37.7144886363636 5.86174242424242  36.7798295454545 4.97159090909091  C 35.8451704545455 4.08143939393939  34.7215909090909 3.63636363636364  33.4090909090909 4  L 8.59090909090909 4  C 7.27840909090909 3.63636363636364  6.15482954545455 4.08143939393939  5.22017045454545 4.97159090909091  C 4.28551136363636 5.86174242424242  3.81818181818182 6.93181818181818  4 8.18181818181818  L 4 31.8181818181818  C 3.81818181818182 33.0681818181818  4.28551136363636 34.1382575757576  5.22017045454545 35.0284090909091  C 6.15482954545455 35.9185606060606  7.27840909090909 36.3636363636364  8.59090909090909 36  L 33.4090909090909 36  C 34.7215909090909 36.3636363636364  35.8451704545455 35.9185606060606  36.7798295454545 35.0284090909091  Z M 39.4794034090909 2.40056818181818  C 41.1598011363636 4.00094696969697  42 5.9280303030303  42 8.18181818181818  L 42 31.8181818181818  C 42 34.0719696969697  41.1598011363636 35.999053030303  39.4794034090909 37.5994318181818  C 37.7990056818182 39.1998106060606  35.7755681818182 40  33.4090909090909 40  L 8.59090909090909 40  C 6.22443181818182 40  4.20099431818182 39.1998106060606  2.52059659090909 37.5994318181818  C 0.840198863636364 35.999053030303  0 34.0719696969697  0 31.8181818181818  L 0 8.18181818181818  C 0 5.9280303030303  0.840198863636364 4.00094696969697  2.52059659090909 2.40056818181818  C 4.20099431818182 0.80018939393939  6.22443181818182 0  8.59090909090909 0  L 33.4090909090909 0  C 35.7755681818182 0  37.7990056818182 0.80018939393939  39.4794034090909 2.40056818181818  Z " fill-rule="evenodd" />
    </mask>
  </defs>
  <g transform="matrix(1 0 0 1 -672 -740 )">
    <path d="M 34.0951704545455 18.4375  C 34.2741477272727 18.6079545454545  34.3636363636364 18.8257575757576  34.3636363636364 19.0909090909091  L 34.3636363636364 20.9090909090909  C 34.3636363636364 21.1742424242424  34.2741477272727 21.3920454545455  34.0951704545455 21.5625  C 33.9161931818182 21.7329545454545  33.6875 21.8181818181818  33.4090909090909 21.8181818181818  L 23 21.8181818181818  L 23 31.8181818181818  C 22.9090909090909 32.0833333333333  22.8196022727273 32.3011363636364  22.640625 32.4715909090909  C 22.4616477272727 32.6420454545455  22.2329545454545 32.7272727272727  21.9545454545455 32.7272727272727  L 20.0454545454545 32.7272727272727  C 19.7670454545455 32.7272727272727  19.5383522727273 32.6420454545455  19.359375 32.4715909090909  C 19.1803977272727 32.3011363636364  19.0909090909091 32.0833333333333  19 31.8181818181818  L 19 21.8181818181818  L 8.59090909090909 21.8181818181818  C 8.3125 21.8181818181818  8.08380681818182 21.7329545454545  7.90482954545455 21.5625  C 7.72585227272727 21.3920454545455  7.63636363636364 21.1742424242424  7.63636363636364 20.9090909090909  L 7.63636363636364 19.0909090909091  C 7.63636363636364 18.8257575757576  7.72585227272727 18.6079545454545  7.90482954545455 18.4375  C 8.08380681818182 18.2670454545455  8.3125 18.1818181818182  8.59090909090909 18.1818181818182  L 19 18.1818181818182  L 19 8.18181818181818  C 19.0909090909091 7.91666666666666  19.1803977272727 7.69886363636364  19.359375 7.52840909090909  C 19.5383522727273 7.35795454545455  19.7670454545455 7.27272727272727  20.0454545454545 7.27272727272727  L 21.9545454545455 7.27272727272727  C 22.2329545454545 7.27272727272727  22.4616477272727 7.35795454545455  22.640625 7.52840909090909  C 22.8196022727273 7.69886363636364  22.9090909090909 7.91666666666666  23 8.18181818181818  L 23 18.1818181818182  L 33.4090909090909 18.1818181818182  C 33.6875 18.1818181818182  33.9161931818182 18.2670454545455  34.0951704545455 18.4375  Z M 36.7798295454545 35.0284090909091  C 37.7144886363636 34.1382575757576  38.1818181818182 33.0681818181818  38 31.8181818181818  L 38 8.18181818181818  C 38.1818181818182 6.93181818181818  37.7144886363636 5.86174242424242  36.7798295454545 4.97159090909091  C 35.8451704545455 4.08143939393939  34.7215909090909 3.63636363636364  33.4090909090909 4  L 8.59090909090909 4  C 7.27840909090909 3.63636363636364  6.15482954545455 4.08143939393939  5.22017045454545 4.97159090909091  C 4.28551136363636 5.86174242424242  3.81818181818182 6.93181818181818  4 8.18181818181818  L 4 31.8181818181818  C 3.81818181818182 33.0681818181818  4.28551136363636 34.1382575757576  5.22017045454545 35.0284090909091  C 6.15482954545455 35.9185606060606  7.27840909090909 36.3636363636364  8.59090909090909 36  L 33.4090909090909 36  C 34.7215909090909 36.3636363636364  35.8451704545455 35.9185606060606  36.7798295454545 35.0284090909091  Z M 39.4794034090909 2.40056818181818  C 41.1598011363636 4.00094696969697  42 5.9280303030303  42 8.18181818181818  L 42 31.8181818181818  C 42 34.0719696969697  41.1598011363636 35.999053030303  39.4794034090909 37.5994318181818  C 37.7990056818182 39.1998106060606  35.7755681818182 40  33.4090909090909 40  L 8.59090909090909 40  C 6.22443181818182 40  4.20099431818182 39.1998106060606  2.52059659090909 37.5994318181818  C 0.840198863636364 35.999053030303  0 34.0719696969697  0 31.8181818181818  L 0 8.18181818181818  C 0 5.9280303030303  0.840198863636364 4.00094696969697  2.52059659090909 2.40056818181818  C 4.20099431818182 0.80018939393939  6.22443181818182 0  8.59090909090909 0  L 33.4090909090909 0  C 35.7755681818182 0  37.7990056818182 0.80018939393939  39.4794034090909 2.40056818181818  Z " fill-rule="nonzero" fill="#333333" stroke="none" transform="matrix(1 0 0 1 672 740 )" />
    <path d="M 34.0951704545455 18.4375  C 34.2741477272727 18.6079545454545  34.3636363636364 18.8257575757576  34.3636363636364 19.0909090909091  L 34.3636363636364 20.9090909090909  C 34.3636363636364 21.1742424242424  34.2741477272727 21.3920454545455  34.0951704545455 21.5625  C 33.9161931818182 21.7329545454545  33.6875 21.8181818181818  33.4090909090909 21.8181818181818  L 23 21.8181818181818  L 23 31.8181818181818  C 22.9090909090909 32.0833333333333  22.8196022727273 32.3011363636364  22.640625 32.4715909090909  C 22.4616477272727 32.6420454545455  22.2329545454545 32.7272727272727  21.9545454545455 32.7272727272727  L 20.0454545454545 32.7272727272727  C 19.7670454545455 32.7272727272727  19.5383522727273 32.6420454545455  19.359375 32.4715909090909  C 19.1803977272727 32.3011363636364  19.0909090909091 32.0833333333333  19 31.8181818181818  L 19 21.8181818181818  L 8.59090909090909 21.8181818181818  C 8.3125 21.8181818181818  8.08380681818182 21.7329545454545  7.90482954545455 21.5625  C 7.72585227272727 21.3920454545455  7.63636363636364 21.1742424242424  7.63636363636364 20.9090909090909  L 7.63636363636364 19.0909090909091  C 7.63636363636364 18.8257575757576  7.72585227272727 18.6079545454545  7.90482954545455 18.4375  C 8.08380681818182 18.2670454545455  8.3125 18.1818181818182  8.59090909090909 18.1818181818182  L 19 18.1818181818182  L 19 8.18181818181818  C 19.0909090909091 7.91666666666666  19.1803977272727 7.69886363636364  19.359375 7.52840909090909  C 19.5383522727273 7.35795454545455  19.7670454545455 7.27272727272727  20.0454545454545 7.27272727272727  L 21.9545454545455 7.27272727272727  C 22.2329545454545 7.27272727272727  22.4616477272727 7.35795454545455  22.640625 7.52840909090909  C 22.8196022727273 7.69886363636364  22.9090909090909 7.91666666666666  23 8.18181818181818  L 23 18.1818181818182  L 33.4090909090909 18.1818181818182  C 33.6875 18.1818181818182  33.9161931818182 18.2670454545455  34.0951704545455 18.4375  Z " stroke-width="6" stroke="#020202" fill="none" transform="matrix(1 0 0 1 672 740 )" mask="url(#clip115)" />
    <path d="M 36.7798295454545 35.0284090909091  C 37.7144886363636 34.1382575757576  38.1818181818182 33.0681818181818  38 31.8181818181818  L 38 8.18181818181818  C 38.1818181818182 6.93181818181818  37.7144886363636 5.86174242424242  36.7798295454545 4.97159090909091  C 35.8451704545455 4.08143939393939  34.7215909090909 3.63636363636364  33.4090909090909 4  L 8.59090909090909 4  C 7.27840909090909 3.63636363636364  6.15482954545455 4.08143939393939  5.22017045454545 4.97159090909091  C 4.28551136363636 5.86174242424242  3.81818181818182 6.93181818181818  4 8.18181818181818  L 4 31.8181818181818  C 3.81818181818182 33.0681818181818  4.28551136363636 34.1382575757576  5.22017045454545 35.0284090909091  C 6.15482954545455 35.9185606060606  7.27840909090909 36.3636363636364  8.59090909090909 36  L 33.4090909090909 36  C 34.7215909090909 36.3636363636364  35.8451704545455 35.9185606060606  36.7798295454545 35.0284090909091  Z " stroke-width="6" stroke="#020202" fill="none" transform="matrix(1 0 0 1 672 740 )" mask="url(#clip115)" />
    <path d="M 39.4794034090909 2.40056818181818  C 41.1598011363636 4.00094696969697  42 5.9280303030303  42 8.18181818181818  L 42 31.8181818181818  C 42 34.0719696969697  41.1598011363636 35.999053030303  39.4794034090909 37.5994318181818  C 37.7990056818182 39.1998106060606  35.7755681818182 40  33.4090909090909 40  L 8.59090909090909 40  C 6.22443181818182 40  4.20099431818182 39.1998106060606  2.52059659090909 37.5994318181818  C 0.840198863636364 35.999053030303  0 34.0719696969697  0 31.8181818181818  L 0 8.18181818181818  C 0 5.9280303030303  0.840198863636364 4.00094696969697  2.52059659090909 2.40056818181818  C 4.20099431818182 0.80018939393939  6.22443181818182 0  8.59090909090909 0  L 33.4090909090909 0  C 35.7755681818182 0  37.7990056818182 0.80018939393939  39.4794034090909 2.40056818181818  Z " stroke-width="6" stroke="#020202" fill="none" transform="matrix(1 0 0 1 672 740 )" mask="url(#clip115)" />
  </g>
</svg>