<?xml version="1.0" encoding="utf-8"?>
<svg version="1.1" xmlns:xlink="http://www.w3.org/1999/xlink" width="40px" height="40px" xmlns="http://www.w3.org/2000/svg">
  <g transform="matrix(1 0 0 1 -731 -101 )">
    <path d="M 8.64665613480779 10.8382838283828  C 9.17324907846235 10.1782178217822  9.43654555028963 9.38173817381738  9.43654555028963 8.44884488448845  C 9.43654555028963 7.51595159515951  9.17324907846235 6.71947194719472  8.64665613480779 6.05940594059406  C 8.12006319115324 5.3993399339934  7.48464103914341 5.06930693069307  6.74038967877831 5.06930693069307  C 5.9961383184132 5.06930693069307  5.36071616640337 5.3993399339934  4.83412322274881 6.05940594059406  C 4.30753027909426 6.71947194719472  4.04423380726698 7.51595159515951  4.04423380726698 8.44884488448845  C 4.04423380726698 9.38173817381738  4.30753027909426 10.1782178217822  4.83412322274881 10.8382838283828  C 5.36071616640337 11.4983498349835  5.9961383184132 11.8283828382838  6.74038967877831 11.8283828382838  C 7.48464103914341 11.8283828382838  8.12006319115324 11.4983498349835  8.64665613480779 10.8382838283828  Z M 31.1321748288573 21.2541254125413  C 31.6517465332631 21.9405940594059  31.911532385466 22.7414741474147  31.911532385466 23.6567656765677  C 31.911532385466 24.5896589658966  31.6517465332631 25.3817381738174  31.1321748288573 26.03300330033  L 20.7898894154818 39.023102310231  C 20.2422327540811 39.6743674367437  19.6032999824469 40  18.8730911005793 40  C 18.1288397402141 40  17.4969282078287 39.6743674367437  16.9773565034229 39.023102310231  L 1.91679831490258 20.1188118811881  C 1.3831841319993 19.4675467546755  0.930314200456381 18.5786578657866  0.558188520273828 17.4521452145215  C 0.186062840091276 16.3256325632563  0 15.2959295929593  0 14.3630363036304  L 0 3.37953795379538  C 0 2.46424642464246  0.266807091451641 1.67216721672167  0.800421274354924 1.003300330033  C 1.33403545725821 0.334433443344331  1.96594698964367 0  2.69615587151132 0  L 11.4586624539231 0  C 12.2029138142882 0  13.0243988063893 0.23322332233223  13.9231174302264 0.699669966996699  C 14.8218360540635 1.16611661166116  15.5380024574337 1.73377337733773  16.071616640337 2.4026402640264  L 31.1321748288573 21.2541254125413  Z M 39.2206424433913 21.2541254125413  C 39.7402141477971 21.9405940594059  40 22.7414741474147  40 23.6567656765677  C 40 24.5896589658966  39.7402141477971 25.3817381738174  39.2206424433913 26.03300330033  L 28.8783570300158 39.023102310231  C 28.3307003686151 39.6743674367437  27.6917675969809 40  26.9615587151132 40  C 26.4560294892048 40  26.0417763735299 39.8767876787679  25.7187993680885 39.6303630363036  C 25.395822362647 39.3839383938394  25.0236966824645 38.987898789879  24.6024223275408 38.4422442244224  L 34.5023696682464 26.03300330033  C 35.0219413726523 25.3817381738174  35.2817272248552 24.5896589658966  35.2817272248552 23.6567656765677  C 35.2817272248552 22.7414741474147  35.0219413726523 21.9405940594059  34.5023696682464 21.2541254125413  L 19.4418114797262 2.4026402640264  C 18.9081972968229 1.73377337733773  18.1920308934527 1.16611661166116  17.2933122696156 0.699669966996699  C 16.3945936457785 0.23322332233223  15.5731086536774 0  14.8288572933123 0  L 19.5471300684571 0  C 20.2913814288222 0  21.1128664209233 0.23322332233223  22.0115850447604 0.699669966996699  C 22.9103036685975 1.16611661166116  23.6264700719677 1.73377337733773  24.160084254871 2.4026402640264  L 39.2206424433913 21.2541254125413  Z " fill-rule="nonzero" fill="#ffffff" stroke="none" fill-opacity="0.996078431372549" transform="matrix(1 0 0 1 731 101 )" />
  </g>
</svg>