<?xml version="1.0" encoding="utf-8"?>
<svg version="1.1" xmlns:xlink="http://www.w3.org/1999/xlink" width="59px" height="54px" xmlns="http://www.w3.org/2000/svg">
  <g transform="matrix(1 0 0 1 -1476 -165 )">
    <path d="M 12.7538177988415 14.6316831683168  C 13.530542390732 13.7405940594059  13.9189046866772 12.6653465346535  13.9189046866772 11.4059405940594  C 13.9189046866772 10.1465346534653  13.530542390732 9.07128712871287  12.7538177988415 8.18019801980198  C 11.977093206951 7.28910891089109  11.0398455327365 6.84356435643564  9.942074776198 6.84356435643564  C 8.84430401965947 6.84356435643564  7.90705634544497 7.28910891089109  7.1303317535545 8.18019801980198  C 6.35360716166403 9.07128712871287  5.9652448657188 10.1465346534653  5.9652448657188 11.4059405940594  C 5.9652448657188 12.6653465346535  6.35360716166403 13.7405940594059  7.1303317535545 14.6316831683168  C 7.90705634544497 15.5227722772277  8.84430401965947 15.9683168316832  9.942074776198 15.9683168316832  C 11.0398455327365 15.9683168316832  11.977093206951 15.5227722772277  12.7538177988415 14.6316831683168  Z M 45.9199578725645 28.6930693069307  C 46.6863261365631 29.619801980198  47.0695102685624 30.7009900990099  47.0695102685624 31.9366336633663  C 47.0695102685624 33.1960396039604  46.6863261365631 34.2653465346535  45.9199578725645 35.1445544554456  L 30.6650868878357 52.6811881188119  C 29.8572933122696 53.560396039604  28.9148674741092 54  27.8378093733544 54  C 26.7400386168159 54  25.8079691065473 53.560396039604  25.0416008425487 52.6811881188119  L 2.82727751448131 27.160396039604  C 2.04019659469896 26.2811881188119  1.37221344567316 25.0811881188119  0.823328067403897 23.560396039604  C 0.274442689134632 22.039603960396  0 20.649504950495  0 19.390099009901  L 0 4.56237623762376  C 0 3.32673267326733  0.393540459891171 2.25742574257426  1.18062137967351 1.35445544554455  C 1.96770229945585 0.451485148514847  2.89977180972442 0  3.9768299104792 0  L 16.9015271195366 0  C 17.9992978760751 0  19.2109882394243 0.31485148514851  20.536598209584 0.944554455445543  C 21.8622081797437 1.57425742574257  22.9185536247148 2.34059405940593  23.7056345444971 3.24356435643564  L 45.9199578725645 28.6930693069307  Z M 57.8504476040021 28.6930693069307  C 58.6168158680007 29.619801980198  59 30.7009900990099  59 31.9366336633663  C 59 33.1960396039604  58.6168158680007 34.2653465346535  57.8504476040021 35.1445544554456  L 42.5955766192733 52.6811881188119  C 41.7877830437072 53.560396039604  40.8453572055468 54  39.768299104792 54  C 39.0226434965771 54  38.4116201509566 53.8336633663366  37.9352290679305 53.5009900990099  C 37.4588379849043 53.1683168316832  36.9099526066351 52.6336633663366  36.2885729331227 51.8970297029703  L 50.8909952606635 35.1445544554456  C 51.6573635246621 34.2653465346535  52.0405476566614 33.1960396039604  52.0405476566614 31.9366336633663  C 52.0405476566614 30.7009900990099  51.6573635246621 29.619801980198  50.8909952606635 28.6930693069307  L 28.6766719325961 3.24356435643564  C 27.8895910128138 2.34059405940593  26.8332455678427 1.57425742574257  25.507635597683 0.944554455445543  C 24.1820256275233 0.31485148514851  22.9703352641741 0  21.8725645076356 0  L 28.8320168509742 0  C 29.9297876075127 0  31.1414779708619 0.31485148514851  32.4670879410216 0.944554455445543  C 33.7926979111813 1.57425742574257  34.8490433561524 2.34059405940593  35.6361242759347 3.24356435643564  L 57.8504476040021 28.6930693069307  Z " fill-rule="nonzero" fill="#ffffff" stroke="none" fill-opacity="0.996078431372549" transform="matrix(1 0 0 1 1476 165 )" />
  </g>
</svg>