<?xml version="1.0" encoding="utf-8"?>
<svg version="1.1" xmlns:xlink="http://www.w3.org/1999/xlink" width="226px" height="80px" xmlns="http://www.w3.org/2000/svg">
  <g transform="matrix(1 0 0 1 -361 -172 )">
    <path d="M 555.074636387675 172.5  C 555.074636387675 172.5  558.742446064734 173.149169854347  558.742446064734 173.149169854347  C 558.742446064734 173.149169854347  586.428037636997 212  586.428037636997 212  C 586.428037636997 212  558.742446064734 250.850830145653  558.742446064734 250.850830145653  C 558.742446064734 250.850830145653  555.074636387675 251.5  555.074636387675 251.5  C 555.074636387675 251.5  361.5 251.5  361.5 251.5  C 361.5 251.5  361.5 172.5  361.5 172.5  C 361.5 172.5  555.074636387675 172.5  555.074636387675 172.5  Z " fill-rule="nonzero" fill="#88d904" stroke="none" />
    <path d="M 555.074636387675 172.5  C 555.074636387675 172.5  558.742446064734 173.149169854347  558.742446064734 173.149169854347  C 558.742446064734 173.149169854347  586.428037636997 212  586.428037636997 212  C 586.428037636997 212  558.742446064734 250.850830145653  558.742446064734 250.850830145653  C 558.742446064734 250.850830145653  555.074636387675 251.5  555.074636387675 251.5  C 555.074636387675 251.5  361.5 251.5  361.5 251.5  C 361.5 251.5  361.5 172.5  361.5 172.5  C 361.5 172.5  555.074636387675 172.5  555.074636387675 172.5  Z " stroke-width="1" stroke="#169bd5" fill="none" />
  </g>
</svg>