<?xml version="1.0" encoding="utf-8"?>
<svg version="1.1" xmlns:xlink="http://www.w3.org/1999/xlink" width="1646px" height="781px" xmlns="http://www.w3.org/2000/svg">
  <g transform="matrix(1 0 0 1 -137 -335 )">
    <path d="M 139 382  A 45 45 0 0 1 184 337 L 1736 337  A 45 45 0 0 1 1781 382 L 1781 1069  A 45 45 0 0 1 1736 1114 L 184 1114  A 45 45 0 0 1 139 1069 L 139 382  Z " fill-rule="nonzero" fill="#ffffff" stroke="none" fill-opacity="0.988235294117647" />
    <path d="M 138 382  A 46 46 0 0 1 184 336 L 1736 336  A 46 46 0 0 1 1782 382 L 1782 1069  A 46 46 0 0 1 1736 1115 L 184 1115  A 46 46 0 0 1 138 1069 L 138 382  Z " stroke-width="2" stroke="#000000" fill="none" stroke-opacity="0.282352941176471" />
  </g>
</svg>