<?xml version="1.0" encoding="utf-8"?>
<svg version="1.1" xmlns:xlink="http://www.w3.org/1999/xlink" width="137px" height="71px" xmlns="http://www.w3.org/2000/svg">
  <g transform="matrix(1 0 0 1 -956 0 )">
    <path d="M 1064.58010411539 0.5  C 1064.58010411539 0.5  1068.31380366655 1.46749148953355  1068.31380366655 1.46749148953355  C 1068.31380366655 1.46749148953355  1092.40866111625 35.5  1092.40866111625 35.5  C 1092.40866111625 35.5  1068.31380366655 69.5325085104664  1068.31380366655 69.5325085104664  C 1068.31380366655 69.5325085104664  1064.58010411539 70.5  1064.58010411539 70.5  C 1064.58010411539 70.5  956.5 70.5  956.5 70.5  C 956.5 70.5  956.5 0.499999999999999  956.5 0.499999999999999  C 956.5 0.499999999999999  1064.58010411539 0.5  1064.58010411539 0.5  Z " fill-rule="nonzero" fill="#caf982" stroke="none" />
    <path d="M 1064.58010411539 0.5  C 1064.58010411539 0.5  1068.31380366655 1.46749148953355  1068.31380366655 1.46749148953355  C 1068.31380366655 1.46749148953355  1092.40866111625 35.5  1092.40866111625 35.5  C 1092.40866111625 35.5  1068.31380366655 69.5325085104664  1068.31380366655 69.5325085104664  C 1068.31380366655 69.5325085104664  1064.58010411539 70.5  1064.58010411539 70.5  C 1064.58010411539 70.5  956.5 70.5  956.5 70.5  C 956.5 70.5  956.5 0.499999999999999  956.5 0.499999999999999  C 956.5 0.499999999999999  1064.58010411539 0.5  1064.58010411539 0.5  Z " stroke-width="1" stroke="#169bd5" fill="none" />
  </g>
</svg>