<?xml version="1.0" encoding="utf-8"?>
<svg version="1.1" xmlns:xlink="http://www.w3.org/1999/xlink" width="270px" height="80px" xmlns="http://www.w3.org/2000/svg">
  <g transform="matrix(1 0 0 1 -1444 0 )">
    <path d="M 1682.13270143263 0.5  C 1682.13270143263 0.5  1685.75281196649 1.0363126716833  1685.75281196649 1.0363126716833  C 1685.75281196649 1.0363126716833  1713.43753717345 40  1713.43753717345 40  C 1713.43753717345 40  1685.75281196649 78.9636873283167  1685.75281196649 78.9636873283167  C 1685.75281196649 78.9636873283167  1682.13270143263 79.5  1682.13270143263 79.5  C 1682.13270143263 79.5  1444.5 79.5  1444.5 79.5  C 1444.5 79.5  1444.5 0.499999999999998  1444.5 0.499999999999998  C 1444.5 0.499999999999998  1682.13270143263 0.5  1682.13270143263 0.5  Z " fill-rule="nonzero" fill="#caf982" stroke="none" />
    <path d="M 1682.13270143263 0.5  C 1682.13270143263 0.5  1685.75281196649 1.0363126716833  1685.75281196649 1.0363126716833  C 1685.75281196649 1.0363126716833  1713.43753717345 40  1713.43753717345 40  C 1713.43753717345 40  1685.75281196649 78.9636873283167  1685.75281196649 78.9636873283167  C 1685.75281196649 78.9636873283167  1682.13270143263 79.5  1682.13270143263 79.5  C 1682.13270143263 79.5  1444.5 79.5  1444.5 79.5  C 1444.5 79.5  1444.5 0.499999999999998  1444.5 0.499999999999998  C 1444.5 0.499999999999998  1682.13270143263 0.5  1682.13270143263 0.5  Z " stroke-width="1" stroke="#169bd5" fill="none" />
  </g>
</svg>