<?xml version="1.0" encoding="utf-8"?>
<svg version="1.1" xmlns:xlink="http://www.w3.org/1999/xlink" width="270px" height="80px" xmlns="http://www.w3.org/2000/svg">
  <g transform="matrix(1 0 0 1 -1444 -159 )">
    <path d="M 1682.13270143263 159.5  C 1682.13270143263 159.5  1685.75281196649 160.036312671683  1685.75281196649 160.036312671683  C 1685.75281196649 160.036312671683  1713.43753717345 199  1713.43753717345 199  C 1713.43753717345 199  1685.75281196649 237.963687328317  1685.75281196649 237.963687328317  C 1685.75281196649 237.963687328317  1682.13270143263 238.5  1682.13270143263 238.5  C 1682.13270143263 238.5  1444.5 238.5  1444.5 238.5  C 1444.5 238.5  1444.5 159.5  1444.5 159.5  C 1444.5 159.5  1682.13270143263 159.5  1682.13270143263 159.5  Z " fill-rule="nonzero" fill="#caf982" stroke="none" />
    <path d="M 1682.13270143263 159.5  C 1682.13270143263 159.5  1685.75281196649 160.036312671683  1685.75281196649 160.036312671683  C 1685.75281196649 160.036312671683  1713.43753717345 199  1713.43753717345 199  C 1713.43753717345 199  1685.75281196649 237.963687328317  1685.75281196649 237.963687328317  C 1685.75281196649 237.963687328317  1682.13270143263 238.5  1682.13270143263 238.5  C 1682.13270143263 238.5  1444.5 238.5  1444.5 238.5  C 1444.5 238.5  1444.5 159.5  1444.5 159.5  C 1444.5 159.5  1682.13270143263 159.5  1682.13270143263 159.5  Z " stroke-width="1" stroke="#169bd5" fill="none" />
  </g>
</svg>