<?xml version="1.0" encoding="utf-8"?>
<svg version="1.1" xmlns:xlink="http://www.w3.org/1999/xlink" width="220px" height="80px" xmlns="http://www.w3.org/2000/svg">
  <g transform="matrix(1 0 0 1 -1530 0 )">
    <path d="M 1718.066718427 0.5  C 1718.066718427 0.5  1721.74076666391 1.16800877034786  1721.74076666391 1.16800877034786  C 1721.74076666391 1.16800877034786  1749.42653818876 40  1749.42653818876 40  C 1749.42653818876 40  1721.74076666391 78.8319912296521  1721.74076666391 78.8319912296521  C 1721.74076666391 78.8319912296521  1718.066718427 79.5  1718.066718427 79.5  C 1718.066718427 79.5  1530.5 79.5  1530.5 79.5  C 1530.5 79.5  1530.5 0.499999999999998  1530.5 0.499999999999998  C 1530.5 0.499999999999998  1718.066718427 0.5  1718.066718427 0.5  Z " fill-rule="nonzero" fill="#ffffff" stroke="none" />
    <path d="M 1718.066718427 0.5  C 1718.066718427 0.5  1721.74076666391 1.16800877034786  1721.74076666391 1.16800877034786  C 1721.74076666391 1.16800877034786  1749.42653818876 40  1749.42653818876 40  C 1749.42653818876 40  1721.74076666391 78.8319912296521  1721.74076666391 78.8319912296521  C 1721.74076666391 78.8319912296521  1718.066718427 79.5  1718.066718427 79.5  C 1718.066718427 79.5  1530.5 79.5  1530.5 79.5  C 1530.5 79.5  1530.5 0.499999999999998  1530.5 0.499999999999998  C 1530.5 0.499999999999998  1718.066718427 0.5  1718.066718427 0.5  Z " stroke-width="1" stroke="#8c8c8c" fill="none" />
  </g>
</svg>