<?xml version="1.0" encoding="utf-8"?>
<svg version="1.1" xmlns:xlink="http://www.w3.org/1999/xlink" width="226px" height="80px" xmlns="http://www.w3.org/2000/svg">
  <g transform="matrix(1 0 0 1 -1137 -172 )">
    <path d="M 1331.07463638768 172.5  C 1331.07463638768 172.5  1334.74244606473 173.149169854347  1334.74244606473 173.149169854347  C 1334.74244606473 173.149169854347  1362.428037637 212  1362.428037637 212  C 1362.428037637 212  1334.74244606473 250.850830145653  1334.74244606473 250.850830145653  C 1334.74244606473 250.850830145653  1331.07463638768 251.5  1331.07463638768 251.5  C 1331.07463638768 251.5  1137.5 251.5  1137.5 251.5  C 1137.5 251.5  1137.5 172.5  1137.5 172.5  C 1137.5 172.5  1331.07463638768 172.5  1331.07463638768 172.5  Z " fill-rule="nonzero" fill="#ffffff" stroke="none" />
    <path d="M 1331.07463638768 172.5  C 1331.07463638768 172.5  1334.74244606473 173.149169854347  1334.74244606473 173.149169854347  C 1334.74244606473 173.149169854347  1362.428037637 212  1362.428037637 212  C 1362.428037637 212  1334.74244606473 250.850830145653  1334.74244606473 250.850830145653  C 1334.74244606473 250.850830145653  1331.07463638768 251.5  1331.07463638768 251.5  C 1331.07463638768 251.5  1137.5 251.5  1137.5 251.5  C 1137.5 251.5  1137.5 172.5  1137.5 172.5  C 1137.5 172.5  1331.07463638768 172.5  1331.07463638768 172.5  Z " stroke-width="1" stroke="#8c8c8c" fill="none" />
  </g>
</svg>