<?xml version="1.0" encoding="utf-8"?>
<svg version="1.1" xmlns:xlink="http://www.w3.org/1999/xlink" width="52px" height="40px" xmlns="http://www.w3.org/2000/svg">
  <g transform="matrix(1 0 0 1 -224 -15 )">
    <path d="M 51.4486607142857 13.275  C 51.8162202380952 13.5916666666667  52 13.9666666666667  52 14.4  C 52 14.8333333333333  51.8162202380952 15.2083333333333  51.4486607142857 15.525  L 36.5915178571429 28.325  C 36.2239583333333 28.6416666666667  35.7886904761905 28.8  35.2857142857143 28.8  C 34.7827380952381 28.8  34.3474702380952 28.6416666666667  33.9799107142857 28.325  C 33.6123511904762 28.0083333333333  33.4285714285714 27.6333333333333  33.4285714285714 27.2  L 33.4285714285714 20.8  L 26.9285714285714 20.8  C 25.0327380952381 20.8  23.335193452381 20.85  21.8359375 20.95  C 20.336681547619 21.05  18.8470982142857 21.2291666666667  17.3671875 21.4875  C 15.8872767857143 21.7458333333333  14.600818452381 22.1  13.5078125 22.55  C 12.414806547619 23  11.3943452380952 23.5791666666667  10.4464285714286 24.2875  C 9.49851190476191 24.9958333333333  8.72470238095238 25.8375  8.125 26.8125  C 7.52529761904762 27.7875  7.0561755952381 28.9416666666667  6.71763392857143 30.275  C 6.37909226190476 31.6083333333333  6.20982142857143 33.1166666666667  6.20982142857143 34.8  C 6.20982142857143 35.7166666666667  6.25818452380952 36.7416666666667  6.35491071428571 37.875  C 6.35491071428571 37.975  6.37909226190476 38.1708333333333  6.42745535714286 38.4625  C 6.47581845238095 38.7541666666667  6.5 38.975  6.5 39.125  C 6.5 39.375  6.41778273809524 39.5833333333333  6.25334821428571 39.75  C 6.08891369047619 39.9166666666667  5.86160714285714 40  5.57142857142857 40  C 5.26190476190476 40  4.99107142857143 39.8583333333333  4.75892857142857 39.575  C 4.62351190476191 39.425  4.49776785714286 39.2416666666667  4.38169642857143 39.025  C 4.265625 38.8083333333333  4.13504464285714 38.5583333333333  3.98995535714286 38.275  C 3.84486607142857 37.9916666666667  3.74330357142857 37.7916666666667  3.68526785714286 37.675  C 1.22842261904762 32.925  0 29.1666666666667  0 26.4  C 0 23.0833333333333  0.512648809523809 20.3083333333333  1.53794642857143 18.075  C 4.671875 11.3583333333333  13.1354166666667 8  26.9285714285714 8  L 33.4285714285714 8  L 33.4285714285714 1.6  C 33.4285714285714 1.16666666666666  33.6123511904762 0.791666666666662  33.9799107142857 0.474999999999999  C 34.3474702380952 0.158333333333331  34.7827380952381 0  35.2857142857143 0  C 35.7886904761905 0  36.2239583333333 0.158333333333331  36.5915178571429 0.474999999999999  L 51.4486607142857 13.275  Z " fill-rule="nonzero" fill="#000000" stroke="none" transform="matrix(1 0 0 1 224 15 )" />
  </g>
</svg>