<?xml version="1.0" encoding="utf-8"?>
<svg version="1.1" xmlns:xlink="http://www.w3.org/1999/xlink" width="52px" height="42px" xmlns="http://www.w3.org/2000/svg">
  <g transform="matrix(1 0 0 1 -40 -14 )">
    <path d="M 50.4620535714286 18.97875  C 51.4873511904762 21.32375  52 24.2375  52 27.72  C 52 30.625  50.7715773809524 34.57125  48.3147321428571 39.55875  C 48.2566964285714 39.68125  48.1551339285714 39.89125  48.0100446428571 40.18875  C 47.8649553571429 40.48625  47.734375 40.74875  47.6183035714286 40.97625  C 47.5022321428572 41.20375  47.3764880952381 41.39625  47.2410714285714 41.55375  C 47.0089285714286 41.85125  46.7380952380952 42  46.4285714285714 42  C 46.1383928571429 42  45.9110863095238 41.9125  45.7466517857143 41.7375  C 45.5822172619048 41.5625  45.5 41.34375  45.5 41.08125  C 45.5 40.92375  45.5241815476191 40.691875  45.5725446428571 40.385625  C 45.6209077380952 40.079375  45.6450892857143 39.87375  45.6450892857143 39.76875  C 45.7418154761905 38.57875  45.7901785714286 37.5025  45.7901785714286 36.54  C 45.7901785714286 34.7725  45.6209077380952 33.18875  45.2823660714286 31.78875  C 44.9438244047619 30.38875  44.4747023809524 29.176875  43.875 28.153125  C 43.2752976190476 27.129375  42.5014880952381 26.245625  41.5535714285714 25.501875  C 40.6056547619048 24.758125  39.5851934523809 24.15  38.4921875 23.6775  C 37.3991815476191 23.205  36.1127232142857 22.833125  34.6328125 22.561875  C 33.1529017857143 22.290625  31.663318452381 22.1025  30.1640625 21.9975  C 28.664806547619 21.8925  26.9672619047619 21.84  25.0714285714286 21.84  L 18.5714285714286 21.84  L 18.5714285714286 28.56  C 18.5714285714286 29.015  18.3876488095238 29.40875  18.0200892857143 29.74125  C 17.6525297619048 30.07375  17.2172619047619 30.24  16.7142857142857 30.24  C 16.2113095238095 30.24  15.7760416666667 30.07375  15.4084821428571 29.74125  L 0.551339285714286 16.30125  C 0.183779761904762 15.96875  0 15.575  0 15.12  C 0 14.665  0.183779761904762 14.27125  0.551339285714286 13.93875  L 15.4084821428571 0.498749999999999  C 15.7760416666667 0.166249999999998  16.2113095238095 0  16.7142857142857 0  C 17.2172619047619 0  17.6525297619048 0.166249999999998  18.0200892857143 0.498749999999999  C 18.3876488095238 0.831249999999995  18.5714285714286 1.225  18.5714285714286 1.68  L 18.5714285714286 8.4  L 25.0714285714286 8.4  C 38.8645833333333 8.4  47.328125 11.92625  50.4620535714286 18.97875  Z " fill-rule="nonzero" fill="#000000" stroke="none" transform="matrix(1 0 0 1 40 14 )" />
  </g>
</svg>