<?xml version="1.0" encoding="utf-8"?>
<svg version="1.1" xmlns:xlink="http://www.w3.org/1999/xlink" width="53px" height="41px" xmlns="http://www.w3.org/2000/svg">
  <g transform="matrix(1 0 0 1 -224 -15 )">
    <path d="M 52.4380580357143 13.606875  C 52.8126860119048 13.9314583333333  53 14.3158333333333  53 14.76  C 53 15.2041666666667  52.8126860119048 15.5885416666667  52.4380580357143 15.913125  L 37.2952008928571 29.033125  C 36.9205729166667 29.3577083333333  36.4769345238095 29.52  35.9642857142857 29.52  C 35.4516369047619 29.52  35.0079985119048 29.3577083333333  34.6333705357143 29.033125  C 34.2587425595238 28.7085416666667  34.0714285714286 28.3241666666667  34.0714285714286 27.88  L 34.0714285714286 21.32  L 27.4464285714286 21.32  C 25.5141369047619 21.32  23.7839471726191 21.37125  22.255859375 21.47375  C 20.727771577381 21.57625  19.2095424107143 21.7598958333333  17.701171875 22.0246875  C 16.1928013392857 22.2894791666667  14.8816034226191 22.6525  13.767578125 23.11375  C 12.653552827381 23.575  11.6134672619048 24.1686458333333  10.6473214285714 24.8946875  C 9.6811755952381 25.6207291666667  8.89248511904762 26.4834375  8.28125 27.4828125  C 7.67001488095238 28.4821875  7.19187127976191 29.6652083333333  6.84681919642857 31.031875  C 6.50176711309524 32.3985416666667  6.32924107142857 33.9445833333333  6.32924107142857 35.67  C 6.32924107142857 36.6095833333333  6.37853422619048 37.6602083333333  6.47712053571429 38.821875  C 6.47712053571429 38.924375  6.50176711309524 39.1251041666667  6.55106026785714 39.4240625  C 6.60035342261905 39.7230208333333  6.625 39.949375  6.625 40.103125  C 6.625 40.359375  6.54120163690476 40.5729166666667  6.37360491071429 40.74375  C 6.20600818452381 40.9145833333333  5.97433035714286 41  5.67857142857143 41  C 5.36309523809524 41  5.08705357142857 40.8547916666667  4.85044642857143 40.564375  C 4.7124255952381 40.410625  4.58426339285714 40.2227083333333  4.46595982142857 40.000625  C 4.34765625 39.7785416666667  4.21456473214286 39.5222916666667  4.06668526785714 39.231875  C 3.91880580357143 38.9414583333333  3.81529017857143 38.7364583333333  3.75613839285714 38.616875  C 1.25204613095238 33.748125  0 29.8958333333333  0 27.06  C 0 23.6604166666667  0.52250744047619 20.8160416666667  1.56752232142857 18.526875  C 4.76171875 11.6422916666667  13.3880208333333 8.2  27.4464285714286 8.2  L 34.0714285714286 8.2  L 34.0714285714286 1.64  C 34.0714285714286 1.19583333333333  34.2587425595238 0.811458333333328  34.6333705357143 0.486874999999999  C 35.0079985119048 0.162291666666665  35.4516369047619 0  35.9642857142857 0  C 36.4769345238095 0  36.9205729166667 0.162291666666665  37.2952008928571 0.486874999999999  L 52.4380580357143 13.606875  Z " fill-rule="nonzero" fill="#ffffff" stroke="none" fill-opacity="0.996078431372549" transform="matrix(1 0 0 1 224 15 )" />
  </g>
</svg>