<?xml version="1.0" encoding="utf-8"?>
<svg version="1.1" xmlns:xlink="http://www.w3.org/1999/xlink" width="53px" height="53px" xmlns="http://www.w3.org/2000/svg">
  <g transform="matrix(1 0 0 1 -41 -72 )">
    <path d="M 36.6100260416667 24.7057291666667  C 37.2311197916667 25.1427951388889  37.5416666666667 25.7408854166667  37.5416666666667 26.5  C 37.5416666666667 27.2591145833333  37.2311197916667 27.8572048611111  36.6100260416667 28.2942708333333  L 21.1516927083333 39.3359375  C 20.4385850694444 39.8650173611111  19.6794704861111 39.9225260416667  18.8743489583333 39.5084635416667  C 18.0692274305556 39.1174045138889  17.6666666666667 38.4618055555556  18 37.5416666666667  L 18 15.4583333333333  C 17.6666666666667 14.5381944444444  18.0692274305556 13.8825954861111  18.8743489583333 13.4915364583333  C 19.6794704861111 13.0774739583333  20.4385850694444 13.1349826388889  21.1516927083333 13.6640625  L 36.6100260416667 24.7057291666667  Z M 43.8561197916667 43.8561197916667  C 44.0631510416667 43.6490885416667  44.1666666666667 43.3845486111111  44 43.0625  L 44 9.9375  C 44.1666666666667 9.61545138888889  44.0631510416667 9.35091145833333  43.8561197916667 9.14388020833333  C 43.6490885416667 8.93684895833333  43.3845486111111 8.83333333333333  43.0625 9  L 9.9375 9  C 9.61545138888889 8.83333333333333  9.35091145833333 8.93684895833333  9.14388020833333 9.14388020833333  C 8.93684895833333 9.35091145833333  8.83333333333333 9.61545138888889  9 9.9375  L 9 43.0625  C 8.83333333333333 43.3845486111111  8.93684895833333 43.6490885416667  9.14388020833333 43.8561197916667  C 9.35091145833333 44.0631510416667  9.61545138888889 44.1666666666667  9.9375 44  L 43.0625 44  C 43.3845486111111 44.1666666666667  43.6490885416667 44.0631510416667  43.8561197916667 43.8561197916667  Z M 50.0843098958333 2.91569010416667  C 52.0281032986111 4.85948350694444  53 7.20008680555555  53 9.9375  L 53 43.0625  C 53 45.7999131944444  52.0281032986111 48.1405164930556  50.0843098958333 50.0843098958333  C 48.1405164930556 52.0281032986111  45.7999131944445 53  43.0625 53  L 9.9375 53  C 7.20008680555556 53  4.85948350694444 52.0281032986111  2.91569010416667 50.0843098958333  C 0.971896701388889 48.1405164930556  0 45.7999131944444  0 43.0625  L 0 9.9375  C 0 7.20008680555555  0.971896701388889 4.85948350694444  2.91569010416667 2.91569010416667  C 4.85948350694444 0.971896701388886  7.20008680555556 0  9.9375 0  L 43.0625 0  C 45.7999131944445 0  48.1405164930556 0.971896701388886  50.0843098958333 2.91569010416667  Z " fill-rule="nonzero" fill="#000000" stroke="none" transform="matrix(1 0 0 1 41 72 )" />
  </g>
</svg>