<?xml version="1.0" encoding="utf-8"?>
<svg version="1.1" xmlns:xlink="http://www.w3.org/1999/xlink" width="326px" height="88px" xmlns="http://www.w3.org/2000/svg">
  <g transform="matrix(1 0 0 1 -1196 -807 )">
    <path d="M 1201 834  A 22 22 0 0 1 1223 812 L 1495 812  A 22 22 0 0 1 1517 834 L 1517 868  A 22 22 0 0 1 1495 890 L 1223 890  A 22 22 0 0 1 1201 868 L 1201 834  Z " fill-rule="nonzero" fill="#88d904" stroke="none" />
    <path d="M 1198.5 834  A 24.5 24.5 0 0 1 1223 809.5 L 1495 809.5  A 24.5 24.5 0 0 1 1519.5 834 L 1519.5 868  A 24.5 24.5 0 0 1 1495 892.5 L 1223 892.5  A 24.5 24.5 0 0 1 1198.5 868 L 1198.5 834  Z " stroke-width="5" stroke="#000000" fill="none" stroke-opacity="0.996078431372549" />
  </g>
</svg>