<?xml version="1.0" encoding="utf-8"?>
<svg version="1.1" xmlns:xlink="http://www.w3.org/1999/xlink" width="326px" height="88px" xmlns="http://www.w3.org/2000/svg">
  <g transform="matrix(1 0 0 1 -1242 -718 )">
    <path d="M 1247 745  A 22 22 0 0 1 1269 723 L 1541 723  A 22 22 0 0 1 1563 745 L 1563 779  A 22 22 0 0 1 1541 801 L 1269 801  A 22 22 0 0 1 1247 779 L 1247 745  Z " fill-rule="nonzero" fill="#caf982" stroke="none" fill-opacity="0.776470588235294" />
    <path d="M 1244.5 745  A 24.5 24.5 0 0 1 1269 720.5 L 1541 720.5  A 24.5 24.5 0 0 1 1565.5 745 L 1565.5 779  A 24.5 24.5 0 0 1 1541 803.5 L 1269 803.5  A 24.5 24.5 0 0 1 1244.5 779 L 1244.5 745  Z " stroke-width="5" stroke="#000000" fill="none" stroke-opacity="0.996078431372549" />
  </g>
</svg>