<?xml version="1.0" encoding="utf-8"?>
<svg version="1.1" xmlns:xlink="http://www.w3.org/1999/xlink" width="64px" height="45px" xmlns="http://www.w3.org/2000/svg">
  <g transform="matrix(1 0 0 1 -1430 -829 )">
    <path d="M 42.35 24.2418323863636  C 42.5611111111111 24.0394176136364  42.6666666666667 23.7997159090909  42.6666666666667 23.5227272727273  C 42.6666666666667 23.2244318181818  42.5666666666667 22.9794034090909  42.3666666666667 22.7876420454545  L 30.6333333333333 11.5376420454545  C 30.4333333333333 11.3458806818182  30.1777777777778 11.25  29.8666666666667 11.25  C 29.5555555555556 11.25  29.3 11.3458806818182  29.1 11.5376420454545  L 17.4 22.7556818181818  C 17.1777777777778 23.0113636363636  17.0666666666667 23.2670454545455  17.0666666666667 23.5227272727273  C 17.0666666666667 23.8210227272727  17.1666666666667 24.0660511363636  17.3666666666667 24.2578125  C 17.5666666666667 24.4495738636364  17.8222222222222 24.5454545454545  18.1333333333333 24.5454545454545  L 26 24.5454545454545  L 26 35.7954545454545  C 25.6 36.0724431818182  25.7055555555556 36.3121448863636  25.9166666666667 36.5145596590909  C 26.1277777777778 36.7169744318182  26.3777777777778 36.8181818181818  26.6666666666667 36.8181818181818  L 33.0666666666667 36.8181818181818  C 33.3555555555556 36.8181818181818  33.6055555555556 36.7169744318182  33.8166666666667 36.5145596590909  C 34.0277777777778 36.3121448863636  34.1333333333333 36.0724431818182  34 35.7954545454545  L 34 24.5454545454545  L 41.6 24.5454545454545  C 41.8888888888889 24.5454545454545  42.1388888888889 24.4442471590909  42.35 24.2418323863636  Z M 61.2166666666667 25.1047585227273  C 63.0722222222222 27.3313210227273  64 29.8721590909091  64 32.7272727272727  C 64 36.1150568181818  62.75 39.0074573863636  60.25 41.4044744318182  C 57.75 43.8014914772727  54.7333333333333 45  51.2 45  L 14.9333333333333 45  C 10.8222222222222 45  7.30555555555556 43.5990767045455  4.38333333333333 40.7972301136364  C 1.46111111111111 37.9953835227273  0 34.6235795454545  0 30.6818181818182  C 0 27.9119318181818  0.777777777777778 25.3551136363636  2.33333333333333 23.0113636363636  C 3.88888888888889 20.6676136363636  5.97777777777778 18.9098011363636  8.6 17.7379261363636  C 8.55555555555556 17.0987215909091  8.53333333333333 16.640625  8.53333333333333 16.3636363636364  C 8.53333333333333 11.8465909090909  10.2 7.99005681818182  13.5333333333333 4.79403409090909  C 16.8666666666667 1.59801136363636  20.8888888888889 0  25.6 0  C 29.0666666666667 0  32.2388888888889 0.926846590909092  35.1166666666667 2.78053977272727  C 37.9944444444444 4.63423295454546  40.0888888888889 7.09517045454546  41.4 10.1633522727273  C 42.9777777777778 8.84232954545454  44.8222222222222 8.18181818181818  46.9333333333333 8.18181818181818  C 49.2888888888889 8.18181818181818  51.3 8.98082386363636  52.9666666666667 10.5788352272727  C 54.6333333333333 12.1768465909091  55.4666666666667 14.1051136363636  55.4666666666667 16.3636363636364  C 55.4666666666667 17.9829545454545  55.0111111111111 19.453125  54.1 20.7741477272727  C 56.9888888888889 21.4346590909091  59.3611111111111 22.8781960227273  61.2166666666667 25.1047585227273  Z " fill-rule="nonzero" fill="#000000" stroke="none" transform="matrix(1 0 0 1 1430 829 )" />
  </g>
</svg>