<?xml version="1.0" encoding="utf-8"?>
<svg version="1.1" xmlns:xlink="http://www.w3.org/1999/xlink" width="35px" height="30px" xmlns="http://www.w3.org/2000/svg">
  <g transform="matrix(1 0 0 1 -913 -660 )">
    <path d="M 23.16015625 16.1612215909091  C 23.2756076388889 16.0262784090909  23.3333333333333 15.8664772727273  23.3333333333333 15.6818181818182  C 23.3333333333333 15.4829545454545  23.2786458333333 15.3196022727273  23.1692708333333 15.1917613636364  L 16.7526041666667 7.69176136363636  C 16.6432291666667 7.56392045454545  16.5034722222222 7.5  16.3333333333333 7.5  C 16.1631944444444 7.5  16.0234375 7.56392045454545  15.9140625 7.69176136363636  L 9.515625 15.1704545454545  C 9.39409722222222 15.3409090909091  9.33333333333333 15.5113636363636  9.33333333333333 15.6818181818182  C 9.33333333333333 15.8806818181818  9.38802083333333 16.0440340909091  9.49739583333333 16.171875  C 9.60677083333333 16.2997159090909  9.74652777777778 16.3636363636364  9.91666666666667 16.3636363636364  L 14 16.3636363636364  L 14 23.8636363636364  C 14 24.0482954545455  14.0577256944444 24.2080965909091  14.1731770833333 24.3430397727273  C 14.2886284722222 24.4779829545455  14.4253472222222 24.5454545454545  14.5833333333333 24.5454545454545  L 18.0833333333333 24.5454545454545  C 18.2413194444444 24.5454545454545  18.3780381944444 24.4779829545455  18.4934895833333 24.3430397727273  C 18.6089409722222 24.2080965909091  18.6666666666667 24.0482954545455  18.6666666666667 23.8636363636364  L 18.6666666666667 16.3636363636364  L 22.75 16.3636363636364  C 22.9079861111111 16.3636363636364  23.0447048611111 16.2961647727273  23.16015625 16.1612215909091  Z M 33.4778645833333 16.7365056818182  C 34.4926215277778 18.2208806818182  35 19.9147727272727  35 21.8181818181818  C 35 24.0767045454545  34.31640625 26.0049715909091  32.94921875 27.6029829545455  C 31.58203125 29.2009943181818  29.9322916666667 30  28 30  L 8.16666666666667 30  C 5.91840277777778 30  3.99522569444444 29.0660511363636  2.39713541666667 27.1981534090909  C 0.799045138888889 25.3302556818182  0 23.0823863636364  0 20.4545454545455  C 0 18.6079545454545  0.425347222222222 16.9034090909091  1.27604166666667 15.3409090909091  C 2.12673611111111 13.7784090909091  3.26909722222222 12.6065340909091  4.703125 11.8252840909091  C 4.67881944444444 11.3991477272727  4.66666666666667 11.09375  4.66666666666667 10.9090909090909  C 4.66666666666667 7.89772727272727  5.578125 5.32670454545455  7.40104166666667 3.19602272727273  C 9.22395833333333 1.06534090909091  11.4236111111111 0  14 0  C 15.8958333333333 0  17.6306423611111 0.617897727272728  19.2044270833333 1.85369318181818  C 20.7782118055556 3.08948863636364  21.9236111111111 4.73011363636364  22.640625 6.77556818181818  C 23.5034722222222 5.89488636363636  24.5121527777778 5.45454545454545  25.6666666666667 5.45454545454545  C 26.9548611111111 5.45454545454545  28.0546875 5.98721590909091  28.9661458333333 7.05255681818182  C 29.8776041666667 8.11789772727273  30.3333333333333 9.40340909090909  30.3333333333333 10.9090909090909  C 30.3333333333333 11.9886363636364  30.0842013888889 12.96875  29.5859375 13.8494318181818  C 31.1657986111111 14.2897727272727  32.4631076388889 15.2521306818182  33.4778645833333 16.7365056818182  Z " fill-rule="nonzero" fill="#000000" stroke="none" transform="matrix(1 0 0 1 913 660 )" />
  </g>
</svg>