<?xml version="1.0" encoding="utf-8"?>
<svg version="1.1" xmlns:xlink="http://www.w3.org/1999/xlink" width="63px" height="63px" xmlns="http://www.w3.org/2000/svg">
  <g transform="matrix(1 0 0 1 -69 -117 )">
    <path d="M 43.517578125 29.3671875  C 44.255859375 29.88671875  44.625 30.59765625  44.625 31.5  C 44.625 32.40234375  44.255859375 33.11328125  43.517578125 33.6328125  L 25.142578125 46.7578125  C 24.294921875 47.38671875  23.392578125 47.455078125  22.435546875 46.962890625  C 21.478515625 46.498046875  21 45.71875  21 44.625  L 21 18.375  C 21 17.28125  21.478515625 16.501953125  22.435546875 16.037109375  C 23.392578125 15.544921875  24.294921875 15.61328125  25.142578125 16.2421875  L 43.517578125 29.3671875  Z M 52.130859375 52.130859375  C 52.376953125 51.884765625  52.5 51.5703125  52 51.1875  L 52 11.8125  C 52.5 11.4296875  52.376953125 11.115234375  52.130859375 10.869140625  C 51.884765625 10.623046875  51.5703125 10.5  51.1875 11  L 11.8125 11  C 11.4296875 10.5  11.115234375 10.623046875  10.869140625 10.869140625  C 10.623046875 11.115234375  10.5 11.4296875  11 11.8125  L 11 51.1875  C 10.5 51.5703125  10.623046875 51.884765625  10.869140625 52.130859375  C 11.115234375 52.376953125  11.4296875 52.5  11.8125 52  L 51.1875 52  C 51.5703125 52.5  51.884765625 52.376953125  52.130859375 52.130859375  Z M 59.5341796875 3.4658203125  C 61.8447265625 5.77636718749999  63 8.55859374999999  63 11.8125  L 63 51.1875  C 63 54.44140625  61.8447265625 57.2236328125  59.5341796875 59.5341796875  C 57.2236328125 61.8447265625  54.44140625 63  51.1875 63  L 11.8125 63  C 8.55859375 63  5.7763671875 61.8447265625  3.4658203125 59.5341796875  C 1.1552734375 57.2236328125  0 54.44140625  0 51.1875  L 0 11.8125  C 0 8.55859374999999  1.1552734375 5.77636718749999  3.4658203125 3.4658203125  C 5.7763671875 1.1552734375  8.55859375 0  11.8125 0  L 51.1875 0  C 54.44140625 0  57.2236328125 1.1552734375  59.5341796875 3.4658203125  Z " fill-rule="nonzero" fill="#000000" stroke="none" transform="matrix(1 0 0 1 69 117 )" />
  </g>
</svg>